<?xml version="1.0" standalone="no"?>
<!DOCTYPE svg PUBLIC "-//W3C//DTD SVG 20010904//EN"
 "http://www.w3.org/TR/2001/REC-SVG-20010904/DTD/svg10.dtd">
<svg version="1.0" xmlns="http://www.w3.org/2000/svg"
 width="260.000000pt" height="260.000000pt" viewBox="0 0 260.000000 260.000000"
 preserveAspectRatio="xMidYMid meet">
<metadata>
Created by potrace 1.14, written by Peter Selinger 2001-2017
</metadata>
<g transform="translate(0.000000,260.000000) scale(0.100000,-0.100000)"
fill="#000000" stroke="none">
<path d="M1165 2271 c-128 -36 -209 -100 -357 -282 -43 -53 -88 -107 -100
-121 -13 -14 -54 -61 -93 -104 -38 -43 -168 -178 -290 -300 -197 -196 -225
-228 -257 -295 -51 -102 -68 -182 -64 -299 2 -52 6 -104 9 -115 68 -267 283
-445 535 -445 97 0 170 24 312 101 293 160 645 149 935 -30 60 -37 168 -68
245 -70 251 -7 470 166 541 429 40 147 7 351 -76 477 -20 30 -130 148 -244
262 -225 225 -305 311 -462 501 -126 154 -184 209 -257 248 -113 60 -257 76
-377 43z m272 -227 c48 -25 76 -51 163 -156 207 -249 279 -326 527 -573 209
-207 236 -246 256 -361 40 -231 -135 -449 -348 -432 -64 6 -79 11 -206 81
-262 141 -590 170 -882 75 -34 -10 -120 -49 -192 -85 -150 -75 -204 -86 -298
-59 -86 25 -153 85 -202 180 -39 76 -40 82 -39 175 1 163 11 180 243 412 269
268 329 333 490 529 127 155 179 204 242 228 80 30 170 25 246 -14z"/>
</g>
</svg>
