<svg width="61" height="61" viewBox="0 0 61 61" fill="none" xmlns="http://www.w3.org/2000/svg">
<g clip-path="url(#clip0_908_4315)">
<path d="M52.4848 11.7292C47.6444 7.8393 39.9904 7.18033 39.6669 7.15238C39.1557 7.10845 38.6704 7.39799 38.4608 7.86526C38.4528 7.88124 38.0255 9.12129 37.6121 10.3174C43.2373 11.3019 47.0593 13.4864 47.263 13.6063C48.2175 14.1614 48.537 15.3855 47.9798 16.338C47.6104 16.973 46.9415 17.3284 46.2546 17.3284C45.9131 17.3284 45.5696 17.2426 45.2541 17.0588C45.1982 17.0249 39.591 13.8339 32.2805 13.8339C24.9679 13.8339 19.3587 17.0269 19.3028 17.0588C18.3503 17.612 17.1282 17.2865 16.5751 16.332C16.022 15.3815 16.3435 14.1614 17.294 13.6063C17.4976 13.4864 21.3336 11.2939 26.9748 10.3114C26.5395 9.10132 26.1002 7.88124 26.0922 7.86526C25.8825 7.396 25.3973 7.10046 24.8861 7.15238C24.5626 7.17834 16.9086 7.8373 12.0043 11.7811C9.44028 14.1494 4.32031 27.9957 4.32031 39.9669C4.32031 40.1786 4.37423 40.3843 4.48006 40.568C8.01652 46.7782 17.6574 48.4037 19.854 48.4736C19.8679 48.4756 19.8799 48.4756 19.8919 48.4756C20.2793 48.4756 20.6447 48.2899 20.8744 47.9764L23.2506 44.7574C18.0388 43.5014 15.2831 41.5265 15.1174 41.4047C14.2308 40.7517 14.0391 39.5017 14.692 38.613C15.343 37.7284 16.5891 37.5327 17.4757 38.1817C17.5496 38.2296 22.6356 41.7901 32.2765 41.7901C41.9553 41.7901 47.0273 38.2157 47.0773 38.1797C47.9639 37.5367 49.2139 37.7304 49.8629 38.621C50.5099 39.5076 50.3222 40.7497 49.4396 41.4007C49.2738 41.5225 46.5321 43.4934 41.3323 44.7494L43.6786 47.9744C43.9082 48.2899 44.2737 48.4736 44.661 48.4736C44.675 48.4736 44.687 48.4736 44.699 48.4716C46.8975 48.4017 56.5384 46.7762 60.0729 40.566C60.1787 40.3823 60.2326 40.1766 60.2326 39.9649C60.2326 27.9957 55.1127 14.1494 52.4848 11.7292ZM24.289 35.7995C22.0825 35.7995 20.2953 33.565 20.2953 30.8073C20.2953 28.0496 22.0825 25.8151 24.289 25.8151C26.4955 25.8151 28.2827 28.0496 28.2827 30.8073C28.2827 33.565 26.4955 35.7995 24.289 35.7995ZM40.2639 35.7995C38.0574 35.7995 36.2702 33.565 36.2702 30.8073C36.2702 28.0496 38.0574 25.8151 40.2639 25.8151C42.4705 25.8151 44.2577 28.0496 44.2577 30.8073C44.2577 33.565 42.4705 35.7995 40.2639 35.7995Z" fill="#202028"/>
</g>
<defs>
<clipPath id="clip0_908_4315">
<rect width="59.906" height="59.906" fill="white" transform="translate(0.328125 0.339844)"/>
</clipPath>
</defs>
</svg>
