<svg width="22" height="23" viewBox="0 0 22 23" fill="none" xmlns="http://www.w3.org/2000/svg">
<g clip-path="url(#clip0_908_2012)">
<path d="M18.9982 5.13979C17.2373 3.72469 14.4529 3.48497 14.3352 3.4748C14.1493 3.45882 13.9727 3.56415 13.8965 3.73414C13.8936 3.73995 13.7381 4.19107 13.5877 4.6262C15.6341 4.98434 17.0245 5.77906 17.0986 5.82264C17.4458 6.02459 17.5621 6.4699 17.3594 6.81641C17.225 7.04742 16.9816 7.17672 16.7317 7.17672C16.6075 7.17672 16.4826 7.14549 16.3678 7.07865C16.3475 7.0663 14.3076 5.90546 11.6481 5.90546C8.98792 5.90546 6.94736 7.06703 6.92702 7.07865C6.58051 7.27988 6.13593 7.16147 5.93471 6.81423C5.73348 6.46845 5.85044 6.02459 6.19622 5.82264C6.27032 5.77906 7.66581 4.98143 9.71799 4.62402C9.55963 4.1838 9.39981 3.73995 9.39691 3.73414C9.32063 3.56343 9.14411 3.45591 8.95814 3.4748C8.84045 3.48424 6.05602 3.72397 4.27189 5.15868C3.33915 6.02024 1.47656 11.0574 1.47656 15.4123C1.47656 15.4893 1.49618 15.5642 1.53468 15.631C2.8212 17.8902 6.32844 18.4815 7.12752 18.507C7.1326 18.5077 7.13696 18.5077 7.14132 18.5077C7.28225 18.5077 7.41518 18.4401 7.49873 18.3261L8.36319 17.1551C6.46718 16.6981 5.4647 15.9797 5.40441 15.9354C5.08187 15.6978 5.01213 15.2431 5.24968 14.9198C5.48649 14.598 5.93979 14.5268 6.26233 14.7629C6.28921 14.7803 8.13944 16.0756 11.6467 16.0756C15.1677 16.0756 17.0129 14.7753 17.031 14.7622C17.3536 14.5283 17.8083 14.5987 18.0444 14.9227C18.2798 15.2453 18.2115 15.6971 17.8904 15.9339C17.8301 15.9782 16.8327 16.6952 14.9411 17.1522L15.7946 18.3254C15.8782 18.4401 16.0111 18.507 16.152 18.507C16.1571 18.507 16.1615 18.507 16.1658 18.5062C16.9657 18.4808 20.4729 17.8895 21.7587 15.6303C21.7972 15.5634 21.8168 15.4886 21.8168 15.4116C21.8168 11.0574 19.9542 6.02024 18.9982 5.13979ZM8.74093 13.8963C7.93822 13.8963 7.28806 13.0834 7.28806 12.0802C7.28806 11.077 7.93822 10.2641 8.74093 10.2641C9.54365 10.2641 10.1938 11.077 10.1938 12.0802C10.1938 13.0834 9.54365 13.8963 8.74093 13.8963ZM14.5524 13.8963C13.7497 13.8963 13.0996 13.0834 13.0996 12.0802C13.0996 11.077 13.7497 10.2641 14.5524 10.2641C15.3551 10.2641 16.0053 11.077 16.0053 12.0802C16.0053 13.0834 15.3551 13.8963 14.5524 13.8963Z" fill="white"/>
</g>
<defs>
<clipPath id="clip0_908_2012">
<rect width="21.7931" height="21.7931" fill="white" transform="translate(0.0234375 0.996094)"/>
</clipPath>
</defs>
</svg>
