<svg width="51" height="51" viewBox="0 0 51 51" fill="none" xmlns="http://www.w3.org/2000/svg">
<path d="M13.9609 0.339844C6.31455 0.339844 0.09375 6.56064 0.09375 14.207V36.3944C0.09375 44.0407 6.31455 50.2615 13.9609 50.2615H36.1483C43.7947 50.2615 50.0155 44.0407 50.0155 36.3944V14.207C50.0155 6.56064 43.7947 0.339844 36.1483 0.339844H13.9609ZM13.9609 5.8867H36.1483C40.7356 5.8867 44.4686 9.61973 44.4686 14.207V36.3944C44.4686 40.9817 40.7356 44.7147 36.1483 44.7147H13.9609C9.37364 44.7147 5.64061 40.9817 5.64061 36.3944V14.207C5.64061 9.61973 9.37364 5.8867 13.9609 5.8867ZM38.9217 8.66013C38.1862 8.66013 37.4807 8.95233 36.9606 9.47245C36.4405 9.99257 36.1483 10.698 36.1483 11.4336C36.1483 12.1691 36.4405 12.8745 36.9606 13.3947C37.4807 13.9148 38.1862 14.207 38.9217 14.207C39.6573 14.207 40.3627 13.9148 40.8829 13.3947C41.403 12.8745 41.6952 12.1691 41.6952 11.4336C41.6952 10.698 41.403 9.99257 40.8829 9.47245C40.3627 8.95233 39.6573 8.66013 38.9217 8.66013ZM25.0546 11.4336C17.4083 11.4336 11.1875 17.6544 11.1875 25.3007C11.1875 32.947 17.4083 39.1678 25.0546 39.1678C32.7009 39.1678 38.9217 32.947 38.9217 25.3007C38.9217 17.6544 32.7009 11.4336 25.0546 11.4336ZM25.0546 16.9804C29.6419 16.9804 33.3749 20.7134 33.3749 25.3007C33.3749 29.8879 29.6419 33.621 25.0546 33.621C20.4674 33.621 16.7343 29.8879 16.7343 25.3007C16.7343 20.7134 20.4674 16.9804 25.0546 16.9804Z" fill="#202028"/>
</svg>
