<svg width="20" height="20" viewBox="0 0 20 20" fill="none" xmlns="http://www.w3.org/2000/svg">
<path d="M5.91189 0.996094C3.13024 0.996094 0.867188 3.25915 0.867188 6.04079V14.1123C0.867188 16.894 3.13024 19.157 5.91189 19.157H13.9834C16.7651 19.157 19.0281 16.894 19.0281 14.1123V6.04079C19.0281 3.25915 16.7651 0.996094 13.9834 0.996094H5.91189ZM5.91189 3.01397H13.9834C15.6522 3.01397 17.0102 4.37201 17.0102 6.04079V14.1123C17.0102 15.7811 15.6522 17.1391 13.9834 17.1391H5.91189C4.2431 17.1391 2.88507 15.7811 2.88507 14.1123V6.04079C2.88507 4.37201 4.2431 3.01397 5.91189 3.01397ZM14.9924 4.02291C14.7248 4.02291 14.4681 4.12921 14.2789 4.31843C14.0897 4.50764 13.9834 4.76427 13.9834 5.03185C13.9834 5.29944 14.0897 5.55607 14.2789 5.74528C14.4681 5.9345 14.7248 6.04079 14.9924 6.04079C15.2599 6.04079 15.5166 5.9345 15.7058 5.74528C15.895 5.55607 16.0013 5.29944 16.0013 5.03185C16.0013 4.76427 15.895 4.50764 15.7058 4.31843C15.5166 4.12921 15.2599 4.02291 14.9924 4.02291ZM9.94765 5.03185C7.166 5.03185 4.90295 7.29491 4.90295 10.0766C4.90295 12.8582 7.166 15.1213 9.94765 15.1213C12.7293 15.1213 14.9924 12.8582 14.9924 10.0766C14.9924 7.29491 12.7293 5.03185 9.94765 5.03185ZM9.94765 7.04974C11.6164 7.04974 12.9745 8.40777 12.9745 10.0766C12.9745 11.7453 11.6164 13.1034 9.94765 13.1034C8.27886 13.1034 6.92083 11.7453 6.92083 10.0766C6.92083 8.40777 8.27886 7.04974 9.94765 7.04974Z" fill="white"/>
</svg>
