<svg width="50" height="50" viewBox="0 0 50 50" fill="none" xmlns="http://www.w3.org/2000/svg">
<g clip-path="url(#clip0_954_2852)">
<path fill-rule="evenodd" clip-rule="evenodd" d="M5.90538 49.9844H44.0165C47.0234 49.9844 49.4609 47.5468 49.4609 44.5399V6.42882C49.4609 3.42194 47.0234 0.984375 44.0165 0.984375H5.90538C2.8985 0.984375 0.460937 3.42194 0.460938 6.42882V44.5399C0.460938 47.5468 2.8985 49.9844 5.90538 49.9844Z" fill="#202028"/>
<path fill-rule="evenodd" clip-rule="evenodd" d="M42.6545 43.1779H35.3832V30.7933C35.3832 27.3977 34.093 25.5002 31.4054 25.5002C28.4817 25.5002 26.9541 27.4749 26.9541 30.7933V43.1779H19.9466V19.5854H26.9541V22.7633C26.9541 22.7633 29.0611 18.8646 34.0676 18.8646C39.0718 18.8646 42.6545 21.9204 42.6545 28.2406V43.1779ZM11.5867 16.4961C9.1998 16.4961 7.26562 14.5467 7.26562 12.1426C7.26562 9.73842 9.1998 7.78906 11.5867 7.78906C13.9736 7.78906 15.9066 9.73842 15.9066 12.1426C15.9066 14.5467 13.9736 16.4961 11.5867 16.4961ZM7.96833 43.1779H15.2754V19.5854H7.96833V43.1779Z" fill="white"/>
</g>
<defs>
<clipPath id="clip0_954_2852">
<rect width="49" height="49" fill="white" transform="translate(0.460938 0.984375)"/>
</clipPath>
</defs>
</svg>
