<svg width="21" height="21" viewBox="0 0 21 21" fill="none" xmlns="http://www.w3.org/2000/svg">
<path d="M4.47304 1.04883C3.12864 1.04883 2.15222 1.85448 2.15222 2.96254C2.15222 4.07447 3.15189 4.91559 4.47304 4.91559C5.81743 4.91559 6.79385 4.09439 6.79385 2.93984C6.73186 1.8279 5.77481 1.04883 4.47304 1.04883ZM2.53587 5.69424C2.32278 5.69424 2.14844 5.86859 2.14844 6.08168V17.3172C2.14844 17.5303 2.32278 17.7047 2.53587 17.7047H6.4102C6.62329 17.7047 6.79763 17.5303 6.79763 17.3172V6.08168C6.79763 5.86859 6.62329 5.69424 6.4102 5.69424H2.53587ZM8.34737 5.69424C8.13428 5.69424 7.95993 5.86859 7.95993 6.08168V17.3172C7.95993 17.5303 8.13428 17.7047 8.34737 17.7047H11.8343C12.0481 17.7047 12.2217 17.5311 12.2217 17.3172V11.5057V11.4089V11.312C12.2217 10.3938 12.9271 9.64588 13.8259 9.57614C13.8724 9.56839 13.9187 9.56857 13.9651 9.56857C14.0116 9.56857 14.0579 9.56839 14.1044 9.57614C15.0032 9.64588 15.7086 10.3938 15.7086 11.312V17.3172C15.7086 17.5311 15.8822 17.7047 16.096 17.7047H19.5829C19.796 17.7047 19.9704 17.5303 19.9704 17.3172V10.7309C19.9704 8.22418 18.6256 5.69424 15.6269 5.69424C14.2631 5.69424 13.2329 6.22124 12.6091 6.65904V6.08168C12.6091 5.86859 12.4348 5.69424 12.2217 5.69424H8.34737Z" fill="white"/>
</svg>
