<svg width="20" height="20" viewBox="0 0 20 20" fill="none" xmlns="http://www.w3.org/2000/svg">
<g clip-path="url(#clip0_954_2819)">
<g clip-path="url(#clip1_954_2819)">
<path fill-rule="evenodd" clip-rule="evenodd" d="M2.57986 19.5762H17.3576C18.5236 19.5762 19.4688 18.631 19.4688 17.4651V2.68728C19.4688 1.52135 18.5236 0.576172 17.3576 0.576172H2.57986C1.41393 0.576172 0.46875 1.52135 0.46875 2.68728V17.4651C0.46875 18.631 1.41393 19.5762 2.57986 19.5762Z" fill="white"/>
<path fill-rule="evenodd" clip-rule="evenodd" d="M16.8316 16.9371H14.0121V12.1348C14.0121 10.8182 13.5118 10.0824 12.4697 10.0824C11.336 10.0824 10.7437 10.8481 10.7437 12.1348V16.9371H8.0265V7.78892H10.7437V9.02117C10.7437 9.02117 11.5607 7.50943 13.502 7.50943C15.4424 7.50943 16.8316 8.69436 16.8316 11.145V16.9371ZM4.7849 6.59104C3.85936 6.59104 3.10938 5.83517 3.10938 4.90294C3.10938 3.97072 3.85936 3.21484 4.7849 3.21484C5.71043 3.21484 6.45997 3.97072 6.45997 4.90294C6.45997 5.83517 5.71043 6.59104 4.7849 6.59104ZM3.38185 16.9371H6.21519V7.78892H3.38185V16.9371Z" fill="#181818"/>
</g>
</g>
<defs>
<clipPath id="clip0_954_2819">
<rect width="19.3717" height="19.3717" fill="white" transform="translate(0.109375 0.576172)"/>
</clipPath>
<clipPath id="clip1_954_2819">
<rect width="19" height="19" fill="white" transform="translate(0.46875 0.576172)"/>
</clipPath>
</defs>
</svg>
