<svg width="49" height="45" viewBox="0 0 49 45" fill="none" xmlns="http://www.w3.org/2000/svg">
<path d="M45.1689 0.478387C44.5198 0.507024 43.9151 0.696091 43.3826 0.911302C42.8839 1.11191 40.9784 1.92918 37.9771 3.21628C34.9731 4.5045 30.9955 6.2122 26.7525 8.03685C18.2664 11.6861 8.72588 15.794 3.83919 17.8964C3.65543 17.9754 3.01426 18.1802 2.33374 18.7115C1.65321 19.2428 0.929688 20.3437 0.929688 21.5703C0.929688 22.5594 1.40108 23.5421 1.99442 24.1288C2.58776 24.7155 3.2156 25.0053 3.75338 25.2247C5.70466 26.0209 11.7564 28.4974 12.8992 28.965C13.3014 30.197 15.4918 36.8976 15.9998 38.5398C16.3347 39.6235 16.6534 40.3022 17.0684 40.8409C17.276 41.1102 17.5172 41.3462 17.8095 41.5312C17.9263 41.6051 18.0544 41.6621 18.1839 41.7145L18.1917 41.7184C18.2215 41.7304 18.2472 41.7507 18.2775 41.7613C18.3346 41.7813 18.3727 41.7837 18.4491 41.8003C18.7533 41.8985 19.0604 41.9602 19.3344 41.9602C20.5029 41.9602 21.2182 41.3167 21.2182 41.3167L21.2611 41.2855L27.2712 36.0866L34.5605 42.982C34.6632 43.1272 35.6204 44.4407 37.7314 44.4407C38.9848 44.4407 39.9791 43.8117 40.6175 43.1419C41.2558 42.4722 41.6535 41.7685 41.8226 40.8838V40.8799C41.9807 40.0438 48.6985 5.55636 48.6985 5.55636L48.6868 5.60316C48.8835 4.70554 48.935 3.8696 48.718 3.04467C48.501 2.21975 47.9293 1.42993 47.2204 1.0049C46.5115 0.579979 45.818 0.44975 45.1689 0.478387ZM44.7945 4.65153C44.7849 4.70981 44.8017 4.6805 44.7867 4.74903L44.7828 4.77243L44.7789 4.79583C44.7789 4.79583 38.1443 38.8422 37.8991 40.1388C37.917 40.0409 37.835 40.2356 37.7509 40.3534C37.6319 40.2714 37.3881 40.1661 37.3881 40.1661L37.3491 40.1232L27.3921 30.7044L20.3524 36.7886L22.4467 28.4033C22.4467 28.4033 35.5385 14.8513 36.3273 14.0626C36.9623 13.4315 37.0956 13.2116 37.0956 12.9939C37.0956 12.7024 36.9437 12.4908 36.6042 12.4908C36.2987 12.4908 35.8878 12.7878 35.6682 12.9276C32.8065 14.7518 20.243 22.0741 14.6114 25.3495C13.7164 24.9833 7.49871 22.4381 5.39144 21.5781C5.4074 21.5711 5.40214 21.5736 5.41874 21.5664C10.3067 19.4634 19.8433 15.3556 28.3281 11.7069C32.5706 9.88249 36.5512 8.17349 39.5527 6.88631C42.508 5.61894 44.5615 4.74672 44.7945 4.65153Z" fill="#202028"/>
</svg>
