<svg width="58" height="58" viewBox="0 0 58 58" fill="none" xmlns="http://www.w3.org/2000/svg">
<g clip-path="url(#clip0_954_2398)">
<path fill-rule="evenodd" clip-rule="evenodd" d="M0.46875 29.4844C0.46875 45.2244 13.2287 57.9844 28.9688 57.9844C44.7088 57.9844 57.4688 45.2244 57.4688 29.4844C57.4688 13.7443 44.7088 0.984375 28.9688 0.984375C13.2287 0.984375 0.46875 13.7443 0.46875 29.4844ZM23.7437 42.5469L24.2286 35.2821L24.2282 35.2817L37.4438 23.3557C38.0238 22.8409 37.3172 22.5899 36.5473 23.0568L20.2374 33.3465L13.1925 31.1477C11.671 30.6819 11.6601 29.6364 13.534 28.8848L40.9866 18.2992C42.2405 17.7299 43.4507 18.6003 42.972 20.5193L38.2968 42.5506C37.9704 44.1162 37.0244 44.4906 35.7137 43.7674L28.592 38.5057L25.1687 41.8344C25.1579 41.8448 25.1473 41.8553 25.1366 41.8657C24.7537 42.2385 24.4369 42.5469 23.7437 42.5469Z" fill="#202028"/>
</g>
<defs>
<clipPath id="clip0_954_2398">
<rect width="57" height="57" fill="white" transform="translate(0.46875 0.984375)"/>
</clipPath>
</defs>
</svg>
