<svg width="50" height="47" viewBox="0 0 50 47" fill="none" xmlns="http://www.w3.org/2000/svg">
<path d="M6.87435 0.734375C3.17882 0.734375 0.494775 2.94899 0.494775 5.99488C0.494775 9.05142 3.24272 11.3635 6.87435 11.3635C10.5699 11.3635 13.2539 9.10616 13.2539 5.93247C13.0835 2.87593 10.4527 0.734375 6.87435 0.734375ZM1.54937 13.5039C0.963623 13.5039 0.484375 13.9832 0.484375 14.5689V45.4538C0.484375 46.0396 0.963623 46.5188 1.54937 46.5188H12.1993C12.7851 46.5188 13.2643 46.0396 13.2643 45.4538V14.5689C13.2643 13.9832 12.7851 13.5039 12.1993 13.5039H1.54937ZM17.5243 13.5039C16.9386 13.5039 16.4593 13.9832 16.4593 14.5689V45.4538C16.4593 46.0396 16.9386 46.5188 17.5243 46.5188H27.1093C27.6972 46.5188 28.1743 46.0417 28.1743 45.4538V29.4789V29.2126V28.9464C28.1743 26.4223 30.1132 24.3664 32.584 24.1747C32.7118 24.1534 32.839 24.1539 32.9668 24.1539C33.0946 24.1539 33.2217 24.1534 33.3495 24.1747C35.8203 24.3664 37.7592 26.4223 37.7592 28.9464V45.4538C37.7592 46.0417 38.2364 46.5188 38.8242 46.5188H48.4092C48.995 46.5188 49.4742 46.0396 49.4742 45.4538V27.3489C49.4742 20.4584 45.7777 13.5039 37.5346 13.5039C33.7858 13.5039 30.9539 14.9526 29.2393 16.156V14.5689C29.2393 13.9832 28.76 13.5039 28.1743 13.5039H17.5243Z" fill="#202028"/>
</svg>
