<svg width="21" height="21" viewBox="0 0 21 21" fill="none" xmlns="http://www.w3.org/2000/svg">
<path fill-rule="evenodd" clip-rule="evenodd" d="M0.28125 10.5762C0.28125 16.099 4.75842 20.5762 10.2812 20.5762C15.8041 20.5762 20.2812 16.099 20.2812 10.5762C20.2812 5.05334 15.8041 0.576172 10.2812 0.576172C4.75842 0.576172 0.28125 5.05334 0.28125 10.5762ZM8.44792 15.1595L8.61804 12.6105L13.255 8.42576C13.4585 8.24513 13.2105 8.15705 12.9404 8.32088L7.21763 11.9313L4.74571 11.1598C4.21187 10.9963 4.20804 10.6295 4.86554 10.3658L14.498 6.65155C14.938 6.4518 15.3626 6.75721 15.1947 7.43055L13.5542 15.1608C13.4397 15.7101 13.1078 15.8415 12.6479 15.5878L10.149 13.7415L8.94792 14.9095C8.94412 14.9132 8.94037 14.9168 8.93662 14.9205C8.80229 15.0513 8.69113 15.1595 8.44792 15.1595Z" fill="white"/>
</svg>
