<svg width="23" height="23" viewBox="0 0 23 23" fill="none" xmlns="http://www.w3.org/2000/svg">
<path d="M19.9062 2.77481C19.6701 2.78523 19.4501 2.85401 19.2564 2.9323C19.075 3.00528 18.3818 3.30259 17.2899 3.77082C16.1971 4.23946 14.7501 4.86071 13.2065 5.52449C10.1194 6.85206 6.64866 8.34643 4.87094 9.11127C4.80409 9.14002 4.57084 9.21454 4.32328 9.40781C4.07571 9.60108 3.8125 10.0016 3.8125 10.4478C3.8125 10.8076 3.98399 11.1651 4.19984 11.3785C4.41569 11.592 4.64409 11.6974 4.83973 11.7772C5.54958 12.0669 7.75113 12.9678 8.16687 13.1379C8.31317 13.5861 9.11004 16.0237 9.29483 16.6211C9.41665 17.0153 9.53261 17.2622 9.68359 17.4582C9.75908 17.5562 9.84683 17.642 9.95316 17.7093C9.99567 17.7362 10.0423 17.7569 10.0894 17.776L10.0922 17.7774C10.1031 17.7818 10.1124 17.7892 10.1234 17.793C10.1442 17.8003 10.1581 17.8012 10.1859 17.8072C10.2965 17.843 10.4082 17.8654 10.5079 17.8654C10.933 17.8654 11.1932 17.6313 11.1932 17.6313L11.2088 17.6199L13.3952 15.7287L16.047 18.2371C16.0843 18.2899 16.4326 18.7678 17.2005 18.7678C17.6565 18.7678 18.0182 18.539 18.2504 18.2953C18.4827 18.0516 18.6273 17.7957 18.6889 17.4738V17.4724C18.7464 17.1683 21.1902 4.62212 21.1902 4.62212L21.186 4.63914C21.2575 4.3126 21.2763 4.00849 21.1973 3.7084C21.1184 3.4083 20.9104 3.12097 20.6525 2.96635C20.3946 2.81177 20.1423 2.76439 19.9062 2.77481ZM19.77 4.29295C19.7665 4.31415 19.7726 4.30349 19.7672 4.32842L19.7657 4.33693L19.7643 4.34545C19.7643 4.34545 17.3507 16.7311 17.2615 17.2028C17.268 17.1672 17.2382 17.238 17.2076 17.2809C17.1643 17.251 17.0757 17.2127 17.0757 17.2127L17.0615 17.1971L13.4392 13.7707L10.8782 15.984L11.6401 12.9336C11.6401 12.9336 16.4028 8.00351 16.6897 7.71657C16.9207 7.48702 16.9692 7.40699 16.9692 7.32781C16.9692 7.22175 16.914 7.14478 16.7905 7.14478C16.6793 7.14478 16.5299 7.25284 16.45 7.30369C15.4089 7.96733 10.8385 10.6311 8.78973 11.8226C8.46415 11.6894 6.20223 10.7635 5.43563 10.4506C5.44144 10.4481 5.43953 10.449 5.44556 10.4464C7.22375 9.68135 10.693 8.18698 13.7797 6.8596C15.3231 6.19591 16.7712 5.5742 17.8631 5.10594C18.9382 4.64489 19.6852 4.32758 19.77 4.29295Z" fill="white"/>
</svg>
