<svg width="361" height="205" viewBox="0 0 361 205" fill="none" xmlns="http://www.w3.org/2000/svg"><g filter="url(#a)"><rect x="4.775" y=".098" width="352" height="196" rx="16" fill="#17120E"/></g><path stroke="#E6E6E6" d="M24.775 132.598h312"/><path d="M26.055 117.098v-11.52h1.424v11.52h-1.424Zm9.817 0v-4.328c0-.411-.038-.806-.112-1.184a2.963 2.963 0 0 0-.376-1.016 1.943 1.943 0 0 0-.72-.72c-.299-.176-.678-.264-1.136-.264a2.5 2.5 0 0 0-.976.184 1.9 1.9 0 0 0-.744.544c-.208.245-.37.554-.488.928-.112.368-.168.802-.168 1.304l-.936-.288c0-.838.15-1.555.448-2.152a3.267 3.267 0 0 1 1.272-1.384c.55-.326 1.194-.488 1.936-.488.56 0 1.037.088 1.432.264.394.176.722.41.984.704.261.288.466.613.616.976.15.357.253.722.312 1.096.064.368.096.717.096 1.048v4.776h-1.44Zm-6.16 0v-8.64h1.28v2.312h.16v6.328h-1.44Zm15.019.24c-.646 0-1.187-.118-1.624-.352a2.51 2.51 0 0 1-.984-.944 2.57 2.57 0 0 1-.328-1.28c0-.454.085-.846.256-1.176.176-.336.421-.614.736-.832.314-.224.69-.4 1.128-.528.41-.112.87-.208 1.376-.288.512-.086 1.03-.163 1.552-.232.522-.07 1.01-.136 1.464-.2l-.512.296c.016-.768-.139-1.336-.464-1.704-.32-.368-.875-.552-1.664-.552-.523 0-.982.12-1.376.36-.39.234-.664.618-.824 1.152l-1.352-.408c.208-.758.61-1.352 1.208-1.784.597-.432 1.384-.648 2.36-.648.784 0 1.456.141 2.016.424.565.277.97.698 1.216 1.264.122.266.2.557.232.872.032.309.048.634.048.976v5.344H47.93v-2.072l.296.192c-.326.698-.782 1.226-1.368 1.584-.582.357-1.29.536-2.128.536Zm.216-1.192c.512 0 .954-.091 1.328-.272.378-.187.682-.43.912-.728.23-.304.378-.635.448-.992.08-.267.122-.563.128-.888.01-.331.016-.584.016-.76l.496.216c-.464.064-.92.125-1.368.184a28.97 28.97 0 0 0-1.272.192 9.4 9.4 0 0 0-1.08.232c-.235.074-.456.17-.664.288a1.501 1.501 0 0 0-.496.456c-.123.181-.184.408-.184.68 0 .234.058.458.176.672.122.213.31.386.56.52.256.133.59.2 1 .2Zm9.432 1.184c-1.03 0-1.875-.224-2.536-.672-.656-.454-1.059-1.086-1.208-1.896l1.456-.232c.117.469.386.842.808 1.12.421.272.944.408 1.568.408.592 0 1.056-.123 1.392-.368.336-.246.504-.579.504-1 0-.246-.056-.443-.168-.592-.112-.155-.344-.299-.696-.432-.347-.134-.872-.294-1.576-.48-.763-.203-1.363-.414-1.8-.632-.438-.219-.75-.472-.936-.76-.187-.288-.28-.638-.28-1.048 0-.507.138-.95.416-1.328.277-.384.664-.68 1.16-.888.501-.208 1.082-.312 1.744-.312.656 0 1.242.104 1.76.312.517.208.933.504 1.248.888.32.378.51.821.568 1.328l-1.456.264a1.57 1.57 0 0 0-.672-1.096c-.374-.267-.856-.408-1.448-.424-.56-.022-1.016.077-1.368.296-.347.218-.52.514-.52.888 0 .208.064.386.192.536.133.149.376.29.728.424.357.133.874.285 1.552.456.762.192 1.362.402 1.8.632.442.224.757.49.944.8.186.304.28.68.28 1.128 0 .832-.307 1.488-.92 1.968-.614.474-1.459.712-2.536.712Zm8.324 0c-1.03 0-1.875-.224-2.536-.672-.656-.454-1.059-1.086-1.208-1.896l1.456-.232c.117.469.387.842.808 1.12.422.272.944.408 1.568.408.592 0 1.056-.123 1.392-.368.336-.246.504-.579.504-1 0-.246-.056-.443-.168-.592-.112-.155-.344-.299-.696-.432-.346-.134-.872-.294-1.576-.48-.763-.203-1.362-.414-1.8-.632-.437-.219-.75-.472-.936-.76-.187-.288-.28-.638-.28-1.048 0-.507.139-.95.416-1.328.278-.384.664-.68 1.16-.888.502-.208 1.083-.312 1.744-.312.656 0 1.243.104 1.76.312.517.208.933.504 1.248.888.32.378.51.821.568 1.328l-1.456.264a1.569 1.569 0 0 0-.672-1.096c-.373-.267-.856-.408-1.448-.424-.56-.022-1.016.077-1.368.296-.346.218-.52.514-.52.888 0 .208.064.386.192.536.134.149.376.29.728.424.358.133.875.285 1.552.456.763.192 1.363.402 1.8.632.443.224.757.49.944.8.187.304.28.68.28 1.128 0 .832-.306 1.488-.92 1.968-.613.474-1.459.712-2.536.712Zm8.804.008c-.848 0-1.589-.187-2.224-.56a3.925 3.925 0 0 1-1.472-1.576c-.352-.678-.528-1.467-.528-2.368 0-.944.174-1.76.52-2.448.347-.694.83-1.227 1.448-1.6.624-.379 1.355-.568 2.192-.568.87 0 1.609.2 2.216.6.614.4 1.072.97 1.376 1.712.31.741.443 1.624.4 2.648h-1.44v-.512c-.016-1.062-.232-1.854-.648-2.376-.415-.528-1.034-.792-1.855-.792-.88 0-1.55.282-2.008.848-.46.565-.688 1.376-.688 2.432 0 1.018.229 1.808.688 2.368.458.56 1.112.84 1.96.84.57 0 1.066-.131 1.487-.392.422-.262.752-.638.993-1.128l1.367.472a3.881 3.881 0 0 1-1.52 1.776c-.671.416-1.426.624-2.264.624Zm-3.192-4.16v-1.144H74.7v1.144h-6.385Zm13.566 3.92a6.438 6.438 0 0 1-1.52.12 3.38 3.38 0 0 1-1.328-.296 1.913 1.913 0 0 1-.888-.864 2.563 2.563 0 0 1-.28-1.032c-.011-.352-.016-.75-.016-1.192v-7.776h1.424v7.712c0 .352.002.653.008.904.01.25.066.466.168.648.192.341.496.541.912.6.421.058.928.042 1.52-.048v1.224Zm-5.784-7.464v-1.176h5.784v1.176h-5.784Zm10.642 7.696c-1.03 0-1.875-.224-2.536-.672-.656-.454-1.059-1.086-1.208-1.896l1.456-.232c.117.469.386.842.808 1.12.421.272.944.408 1.568.408.592 0 1.056-.123 1.392-.368.336-.246.504-.579.504-1 0-.246-.056-.443-.168-.592-.112-.155-.344-.299-.696-.432-.347-.134-.872-.294-1.576-.48-.763-.203-1.363-.414-1.8-.632-.438-.219-.75-.472-.936-.76-.187-.288-.28-.638-.28-1.048 0-.507.138-.95.416-1.328.277-.384.664-.68 1.16-.888.501-.208 1.082-.312 1.744-.312.656 0 1.242.104 1.76.312.517.208.933.504 1.248.888.32.378.51.821.568 1.328l-1.456.264a1.57 1.57 0 0 0-.672-1.096c-.374-.267-.856-.408-1.448-.424-.56-.022-1.016.077-1.368.296-.347.218-.52.514-.52.888 0 .208.064.386.192.536.133.149.376.29.728.424.357.133.874.285 1.552.456.762.192 1.362.402 1.8.632.442.224.757.49.944.8.186.304.28.68.28 1.128 0 .832-.307 1.488-.92 1.968-.614.474-1.459.712-2.536.712ZM234.3 117.098v-1.712h3.072v-7.936h-.144l-2.432 2.88-1.312-1.104 2.768-3.296h3.216v9.456h2.528v1.712H234.3Zm9.434 0v-1.712h3.072v-7.936h-.144l-2.432 2.88-1.312-1.104 2.768-3.296h3.216v9.456h2.528v1.712h-7.696Zm12.778.176c-.555 0-.95-.118-1.184-.352a1.174 1.174 0 0 1-.352-.864v-.48c0-.342.117-.63.352-.864.234-.235.629-.352 1.184-.352.554 0 .949.117 1.184.352.234.234.352.522.352.864v.48c0 .341-.118.629-.352.864-.235.234-.63.352-1.184.352Zm8.985-6.832c.672 0 1.163-.134 1.472-.4.32-.267.48-.603.48-1.008v-.112c0-.459-.154-.816-.464-1.072-.298-.256-.714-.384-1.248-.384-.512 0-.96.117-1.344.352a3.14 3.14 0 0 0-.992.992l-1.36-1.216c.192-.256.406-.496.64-.72a3.73 3.73 0 0 1 .816-.592c.31-.171.651-.304 1.024-.4.374-.096.8-.144 1.28-.144.566 0 1.083.069 1.552.208.48.128.886.32 1.216.576.342.256.603.565.784.928.192.352.288.752.288 1.2 0 .352-.058.672-.176.96a2.383 2.383 0 0 1-.48.752 2.421 2.421 0 0 1-.688.528 3.12 3.12 0 0 1-.832.304v.08c.331.064.64.17.928.32.288.138.539.32.752.544.214.224.384.496.512.816.128.309.192.661.192 1.056 0 .49-.101.938-.304 1.344-.202.405-.49.752-.864 1.04a3.978 3.978 0 0 1-1.328.672 6.18 6.18 0 0 1-1.728.224 5.27 5.27 0 0 1-1.424-.176 3.986 3.986 0 0 1-1.936-1.104 7.14 7.14 0 0 1-.624-.784l1.552-1.2c.267.448.582.816.944 1.104.374.288.88.432 1.52.432s1.131-.144 1.472-.432c.352-.299.528-.71.528-1.232v-.128c0-.512-.186-.902-.56-1.168-.373-.278-.901-.416-1.584-.416h-1.12v-1.744h1.104Zm6.538 6.656v-1.712h3.072v-7.936h-.144l-2.432 2.88-1.312-1.104 2.768-3.296h3.216v9.456h2.528v1.712h-7.696Zm9.434 0v-1.712h3.072v-7.936h-.144l-2.432 2.88-1.312-1.104 2.768-3.296h3.216v9.456h2.528v1.712h-7.696Zm11.754-2.608h2.752l-2.096 4.976h-1.552l.896-4.976Zm7.113 2.608v-1.712h3.072v-7.936h-.144l-2.432 2.88-1.312-1.104 2.768-3.296h3.216v9.456h2.528v1.712h-7.696Zm12.778.192c-.725 0-1.355-.128-1.888-.384a3.6 3.6 0 0 1-1.328-1.136c-.341-.491-.597-1.094-.768-1.808-.16-.715-.24-1.531-.24-2.448 0-.907.08-1.718.24-2.432.171-.726.427-1.334.768-1.824a3.45 3.45 0 0 1 1.328-1.12c.533-.267 1.163-.4 1.888-.4 1.451 0 2.517.506 3.2 1.52.683 1.013 1.024 2.432 1.024 4.256 0 1.824-.341 3.242-1.024 4.256-.683 1.013-1.749 1.52-3.2 1.52Zm0-1.68c.768 0 1.307-.272 1.616-.816.32-.555.48-1.318.48-2.288v-1.984c0-.971-.16-1.728-.48-2.272-.309-.555-.848-.832-1.616-.832-.768 0-1.312.277-1.632.832-.309.544-.464 1.301-.464 2.272v1.984c0 .97.155 1.733.464 2.288.32.544.864.816 1.632.816Zm0-3.152c-.373 0-.635-.075-.784-.224a.77.77 0 0 1-.208-.544v-.352c0-.214.069-.395.208-.544.149-.15.411-.224.784-.224.373 0 .629.074.768.224a.74.74 0 0 1 .224.544v.352a.744.744 0 0 1-.224.544c-.139.149-.395.224-.768.224Zm19.38 4.832c-1.44 0-2.544-.502-3.312-1.504-.768-1.003-1.152-2.427-1.152-4.272 0-1.846.384-3.27 1.152-4.272.768-1.003 1.872-1.504 3.312-1.504.533 0 .992.058 1.376.176.394.117.736.277 1.024.48.288.192.533.416.736.672.213.245.4.501.56.768l-1.568.992c-.214-.448-.48-.795-.8-1.04-.32-.246-.742-.368-1.264-.368-.64 0-1.152.186-1.536.56-.374.373-.624.896-.752 1.568h3.584v1.344h-3.664v1.248h3.664v1.344h-3.584c.128.672.378 1.194.752 1.568.384.373.896.56 1.536.56.522 0 .944-.123 1.264-.368.32-.246.586-.592.8-1.04l1.568.992a6.33 6.33 0 0 1-.56.784 3.762 3.762 0 0 1-.736.672c-.288.192-.63.346-1.024.464-.384.117-.843.176-1.376.176ZM28.863 161.098V150.93h-3.928v-1.352h9.28v1.352h-3.928v10.168h-1.424Zm8.865.24c-.859 0-1.6-.195-2.224-.584a3.874 3.874 0 0 1-1.432-1.616c-.336-.688-.504-1.478-.504-2.368 0-.907.17-1.702.512-2.384a3.803 3.803 0 0 1 1.448-1.592c.624-.384 1.357-.576 2.2-.576.864 0 1.608.194 2.232.584.624.384 1.101.92 1.432 1.608.336.682.504 1.469.504 2.36 0 .901-.168 1.696-.504 2.384a3.87 3.87 0 0 1-1.44 1.608c-.624.384-1.365.576-2.224.576Zm0-1.352c.896 0 1.563-.299 2-.896.437-.598.656-1.371.656-2.32 0-.976-.221-1.752-.664-2.328-.443-.582-1.107-.872-1.992-.872-.603 0-1.099.136-1.488.408-.39.272-.68.648-.872 1.128-.192.48-.288 1.034-.288 1.664 0 .97.224 1.749.672 2.336.448.586 1.107.88 1.976.88Zm10.593 1.112a6.438 6.438 0 0 1-1.52.12 3.379 3.379 0 0 1-1.328-.296 1.912 1.912 0 0 1-.888-.864 2.562 2.562 0 0 1-.28-1.032 39.66 39.66 0 0 1-.016-1.192v-7.776h1.424v7.712c0 .352.003.653.008.904.01.25.067.466.168.648.192.341.496.541.912.6.422.058.928.042 1.52-.048v1.224Zm-5.784-7.464v-1.176h5.784v1.176h-5.784Zm9.834 7.704c-.645 0-1.186-.118-1.624-.352a2.51 2.51 0 0 1-.984-.944 2.57 2.57 0 0 1-.328-1.28c0-.454.086-.846.256-1.176.176-.336.422-.614.736-.832.315-.224.691-.4 1.128-.528.411-.112.87-.208 1.376-.288.512-.086 1.03-.163 1.552-.232.523-.07 1.011-.136 1.464-.2l-.512.296c.016-.768-.138-1.336-.464-1.704-.32-.368-.874-.552-1.664-.552-.522 0-.98.12-1.376.36-.389.234-.664.618-.824 1.152l-1.352-.408c.208-.758.611-1.352 1.208-1.784.598-.432 1.384-.648 2.36-.648.784 0 1.456.141 2.016.424.566.277.971.698 1.216 1.264.123.266.2.557.232.872.032.309.048.634.048.976v5.344h-1.264v-2.072l.296.192c-.325.698-.78 1.226-1.368 1.584-.58.357-1.29.536-2.128.536Zm.216-1.192c.512 0 .955-.091 1.328-.272.38-.187.683-.43.912-.728.23-.304.38-.635.448-.992.08-.267.123-.563.128-.888a25.3 25.3 0 0 0 .016-.76l.496.216c-.464.064-.92.125-1.368.184a28.97 28.97 0 0 0-1.272.192 9.4 9.4 0 0 0-1.08.232c-.234.074-.456.17-.664.288a1.501 1.501 0 0 0-.496.456c-.122.181-.184.408-.184.68 0 .234.06.458.176.672.123.213.31.386.56.52.256.133.59.2 1 .2Zm6.328.952v-11.76h1.424v11.76h-1.424Zm9.044 0-3.136-8.64h1.44l2.424 6.824 2.416-6.824h1.448l-3.136 8.64h-1.456Zm7.85.24c-.645 0-1.186-.118-1.623-.352a2.51 2.51 0 0 1-.985-.944 2.572 2.572 0 0 1-.327-1.28c0-.454.085-.846.255-1.176.176-.336.422-.614.736-.832.315-.224.691-.4 1.129-.528.41-.112.869-.208 1.376-.288.511-.086 1.029-.163 1.551-.232.523-.07 1.011-.136 1.464-.2l-.511.296c.016-.768-.14-1.336-.465-1.704-.32-.368-.874-.552-1.663-.552-.523 0-.982.12-1.376.36-.39.234-.665.618-.825 1.152l-1.352-.408c.209-.758.611-1.352 1.209-1.784.597-.432 1.383-.648 2.36-.648.784 0 1.456.141 2.016.424.565.277.97.698 1.215 1.264.123.266.2.557.233.872.031.309.047.634.047.976v5.344H79.01v-2.072l.295.192c-.325.698-.78 1.226-1.368 1.584-.58.357-1.29.536-2.127.536Zm.216-1.192c.512 0 .955-.091 1.328-.272.38-.187.683-.43.913-.728.229-.304.378-.635.447-.992.08-.267.123-.563.129-.888a25.3 25.3 0 0 0 .016-.76l.495.216c-.463.064-.92.125-1.367.184a28.97 28.97 0 0 0-1.273.192 9.4 9.4 0 0 0-1.08.232c-.234.074-.456.17-.663.288a1.502 1.502 0 0 0-.496.456c-.123.181-.184.408-.184.68 0 .234.058.458.175.672.123.213.31.386.56.52.256.133.59.2 1 .2Zm6.328.952v-11.76h1.425v11.76h-1.425Zm6.945.224c-.555 0-1.032-.088-1.432-.264a2.855 2.855 0 0 1-.984-.704 3.484 3.484 0 0 1-.616-.976 5.064 5.064 0 0 1-.32-1.096 6.778 6.778 0 0 1-.088-1.048v-4.776h1.44v4.328c0 .405.037.797.112 1.176.075.378.2.72.376 1.024.181.304.421.544.72.72.304.176.683.264 1.136.264.357 0 .683-.062.976-.184a2.01 2.01 0 0 0 .752-.544c.208-.246.368-.555.48-.928.112-.374.168-.808.168-1.304l.936.288c0 .832-.152 1.549-.456 2.152a3.262 3.262 0 0 1-1.272 1.392c-.544.32-1.187.48-1.928.48Zm2.88-.224v-2.312h-.16v-6.328h1.432v8.64h-1.272Zm7.096.24c-.848 0-1.59-.187-2.224-.56a3.924 3.924 0 0 1-1.472-1.576c-.352-.678-.528-1.467-.528-2.368 0-.944.173-1.76.52-2.448.346-.694.83-1.227 1.448-1.6.624-.379 1.354-.568 2.192-.568.869 0 1.608.2 2.216.6.613.4 1.072.97 1.376 1.712.309.741.442 1.624.4 2.648h-1.44v-.512c-.016-1.062-.232-1.854-.648-2.376-.416-.528-1.035-.792-1.856-.792-.88 0-1.55.282-2.008.848-.459.565-.688 1.376-.688 2.432 0 1.018.23 1.808.688 2.368.458.56 1.112.84 1.96.84.57 0 1.066-.131 1.488-.392.421-.262.752-.638.992-1.128l1.368.472a3.883 3.883 0 0 1-1.52 1.776c-.672.416-1.427.624-2.264.624Zm-3.192-4.16v-1.144h6.384v1.144h-6.384ZM234.3 161.098v-1.712h3.072v-7.936h-.144l-2.432 2.88-1.312-1.104 2.768-3.296h3.216v9.456h2.528v1.712H234.3Zm9.434 0v-1.712h3.072v-7.936h-.144l-2.432 2.88-1.312-1.104 2.768-3.296h3.216v9.456h2.528v1.712h-7.696Zm12.778.176c-.555 0-.95-.118-1.184-.352a1.174 1.174 0 0 1-.352-.864v-.48c0-.342.117-.63.352-.864.234-.235.629-.352 1.184-.352.554 0 .949.117 1.184.352.234.234.352.522.352.864v.48c0 .341-.118.629-.352.864-.235.234-.63.352-1.184.352Zm10.249-.176v-2.16h-5.168v-1.792l4.56-7.216h2.608v7.376h1.504v1.632h-1.504v2.16h-2Zm-3.456-3.792h3.456v-5.328h-.128l-3.328 5.328Zm16.074 3.792h-7.872v-1.952l3.584-3.056c.597-.512 1.04-.976 1.328-1.392a2.39 2.39 0 0 0 .432-1.36v-.16c0-.534-.149-.939-.448-1.216-.299-.278-.715-.416-1.248-.416-.587 0-1.035.16-1.344.48-.309.32-.533.714-.672 1.184l-1.824-.688c.117-.363.283-.71.496-1.04.224-.342.496-.64.816-.896.331-.256.72-.459 1.168-.608.448-.16.96-.24 1.536-.24.597 0 1.125.085 1.584.256.469.16.864.389 1.184.688.32.288.56.634.72 1.04.171.405.256.848.256 1.328 0 .458-.075.88-.224 1.264a4.445 4.445 0 0 1-.592 1.104c-.256.341-.56.672-.912.992-.341.32-.715.64-1.12.96l-2.432 1.968h5.584v1.76Zm5.434.192c-.725 0-1.355-.128-1.888-.384a3.6 3.6 0 0 1-1.328-1.136c-.341-.491-.597-1.094-.768-1.808-.16-.715-.24-1.531-.24-2.448 0-.907.08-1.718.24-2.432.171-.726.427-1.334.768-1.824a3.45 3.45 0 0 1 1.328-1.12c.533-.267 1.163-.4 1.888-.4 1.451 0 2.517.506 3.2 1.52.683 1.013 1.024 2.432 1.024 4.256 0 1.824-.341 3.242-1.024 4.256-.683 1.013-1.749 1.52-3.2 1.52Zm0-1.68c.768 0 1.307-.272 1.616-.816.32-.555.48-1.318.48-2.288v-1.984c0-.971-.16-1.728-.48-2.272-.309-.555-.848-.832-1.616-.832-.768 0-1.312.277-1.632.832-.309.544-.464 1.301-.464 2.272v1.984c0 .97.155 1.733.464 2.288.32.544.864.816 1.632.816Zm0-3.152c-.373 0-.635-.075-.784-.224a.77.77 0 0 1-.208-.544v-.352c0-.214.069-.395.208-.544.149-.15.411-.224.784-.224.373 0 .629.074.768.224a.74.74 0 0 1 .224.544v.352a.744.744 0 0 1-.224.544c-.139.149-.395.224-.768.224Zm8.41 2.032h2.752l-2.096 4.976h-1.552l.896-4.976Zm8.329 2.608 3.984-9.456h-3.984v2.048h-1.792v-3.76h7.856v1.824l-3.856 9.344h-2.208Zm15.562 0h-7.872v-1.952l3.584-3.056c.597-.512 1.04-.976 1.328-1.392a2.39 2.39 0 0 0 .432-1.36v-.16c0-.534-.149-.939-.448-1.216-.299-.278-.715-.416-1.248-.416-.587 0-1.035.16-1.344.48-.309.32-.533.714-.672 1.184l-1.824-.688c.117-.363.283-.71.496-1.04.224-.342.496-.64.816-.896.331-.256.72-.459 1.168-.608.448-.16.96-.24 1.536-.24.597 0 1.125.085 1.584.256.469.16.864.389 1.184.688.32.288.56.634.72 1.04.171.405.256.848.256 1.328 0 .458-.075.88-.224 1.264a4.445 4.445 0 0 1-.592 1.104c-.256.341-.56.672-.912.992-.341.32-.715.64-1.12.96l-2.432 1.968h5.584v1.76Zm15.38.192c-1.44 0-2.544-.502-3.312-1.504-.768-1.003-1.152-2.427-1.152-4.272 0-1.846.384-3.27 1.152-4.272.768-1.003 1.872-1.504 3.312-1.504.533 0 .992.058 1.376.176.394.117.736.277 1.024.48.288.192.533.416.736.672.213.245.4.501.56.768l-1.568.992c-.214-.448-.48-.795-.8-1.04-.32-.246-.742-.368-1.264-.368-.64 0-1.152.186-1.536.56-.374.373-.624.896-.752 1.568h3.584v1.344h-3.664v1.248h3.664v1.344h-3.584c.128.672.378 1.194.752 1.568.384.373.896.56 1.536.56.522 0 .944-.123 1.264-.368.32-.246.586-.592.8-1.04l1.568.992a6.33 6.33 0 0 1-.56.784 3.762 3.762 0 0 1-.736.672c-.288.192-.63.346-1.024.464-.384.117-.843.176-1.376.176ZM27.687 69.098v-3.424h6.144V49.802h-.288l-4.864 5.76-2.624-2.208 5.536-6.592h6.432v18.912h5.056v3.424H27.687Zm25.556.384c-1.45 0-2.71-.256-3.776-.768a7.176 7.176 0 0 1-2.656-2.272c-.683-.982-1.195-2.187-1.536-3.616-.32-1.43-.48-3.062-.48-4.896 0-1.814.16-3.435.48-4.864.341-1.451.853-2.667 1.536-3.648a6.9 6.9 0 0 1 2.656-2.24c1.067-.534 2.325-.8 3.776-.8 2.901 0 5.035 1.013 6.4 3.04 1.365 2.026 2.048 4.864 2.048 8.512 0 3.648-.683 6.485-2.048 8.512-1.365 2.026-3.499 3.04-6.4 3.04Zm0-3.36c1.536 0 2.613-.544 3.232-1.632.64-1.11.96-2.635.96-4.576v-3.968c0-1.942-.32-3.456-.96-4.544-.619-1.11-1.696-1.664-3.232-1.664-1.536 0-2.624.554-3.264 1.664-.619 1.088-.928 2.602-.928 4.544v3.968c0 1.941.31 3.466.928 4.576.64 1.088 1.728 1.632 3.264 1.632Zm0-6.304c-.747 0-1.27-.15-1.568-.448a1.541 1.541 0 0 1-.416-1.088v-.704c0-.427.139-.79.416-1.088.299-.299.821-.448 1.568-.448.747 0 1.259.149 1.536.448.299.298.448.661.448 1.088v.704c0 .426-.15.789-.448 1.088-.277.298-.79.448-1.536.448Zm26.995-4.672c0 1.6-.245 3.114-.736 4.544a17.49 17.49 0 0 1-1.92 3.904 18.848 18.848 0 0 1-2.592 3.168c-.96.938-1.92 1.717-2.88 2.336h-5.696a60.204 60.204 0 0 0 3.584-2.688c1.067-.875 1.984-1.76 2.752-2.656a14.65 14.65 0 0 0 1.952-2.784c.534-.982.928-2.048 1.184-3.2l-.256-.064c-.213.426-.469.842-.768 1.248a4.657 4.657 0 0 1-1.088 1.056 5.373 5.373 0 0 1-1.44.736c-.533.17-1.162.256-1.888.256-.938 0-1.813-.16-2.624-.48a6.137 6.137 0 0 1-2.112-1.376 6.746 6.746 0 0 1-1.408-2.208c-.32-.854-.48-1.814-.48-2.88 0-1.131.192-2.166.576-3.104a7.077 7.077 0 0 1 1.632-2.432 7.404 7.404 0 0 1 2.592-1.568c1.024-.384 2.155-.576 3.392-.576 1.302 0 2.454.213 3.456.64a6.908 6.908 0 0 1 2.592 1.76c.704.746 1.238 1.664 1.6 2.752.384 1.066.576 2.272.576 3.616Zm-8.192 2.624c1.216 0 2.166-.331 2.848-.992.683-.662 1.024-1.611 1.024-2.848v-.384c0-1.238-.33-2.187-.992-2.848-.66-.683-1.62-1.024-2.88-1.024-1.28 0-2.25.341-2.912 1.024-.66.661-.992 1.61-.992 2.848v.384c0 1.237.331 2.186.992 2.848.683.661 1.654.992 2.912.992Zm18.932 11.68c-1.11 0-1.899-.235-2.368-.704-.47-.47-.704-1.046-.704-1.728v-.96c0-.683.235-1.259.704-1.728.47-.47 1.259-.704 2.368-.704 1.11 0 1.899.234 2.368.704.47.469.704 1.045.704 1.728v.96c0 .682-.235 1.258-.704 1.728-.47.469-1.259.704-2.368.704Zm18.963.032c-1.301 0-2.464-.203-3.488-.608a7.519 7.519 0 0 1-2.56-1.76c-.704-.768-1.248-1.686-1.632-2.752-.362-1.088-.544-2.304-.544-3.648 0-1.6.246-3.104.736-4.512.491-1.43 1.12-2.731 1.888-3.904a19.477 19.477 0 0 1 2.624-3.2c.96-.939 1.92-1.718 2.88-2.336h5.696a59.027 59.027 0 0 0-3.616 2.72 23.315 23.315 0 0 0-2.752 2.624 16.282 16.282 0 0 0-1.952 2.816c-.512.96-.896 2.016-1.152 3.168l.256.064c.214-.427.47-.832.768-1.216a4.969 4.969 0 0 1 1.056-1.056c.427-.32.907-.566 1.44-.736.555-.192 1.195-.288 1.92-.288.939 0 1.814.16 2.624.48.811.32 1.504.789 2.08 1.408a6.373 6.373 0 0 1 1.408 2.176c.342.853.512 1.813.512 2.88 0 1.13-.192 2.165-.576 3.104a6.862 6.862 0 0 1-1.664 2.432c-.704.682-1.568 1.216-2.592 1.6-1.002.362-2.122.544-3.36.544Zm-.032-3.296c1.28 0 2.251-.331 2.912-.992.662-.683.992-1.643.992-2.88v-.384c0-1.238-.341-2.187-1.024-2.848-.661-.662-1.621-.992-2.88-.992-1.216 0-2.165.33-2.848.992-.682.661-1.024 1.61-1.024 2.848v.384c0 1.237.331 2.197.992 2.88.662.661 1.622.992 2.88.992Zm25.78-15.776h-10.24l-.544 7.488h.256c.256-.47.533-.896.832-1.28.299-.406.64-.747 1.024-1.024.405-.278.853-.491 1.344-.64.512-.15 1.099-.224 1.76-.224.939 0 1.824.16 2.656.48.832.32 1.557.778 2.176 1.376.619.597 1.099 1.333 1.44 2.208.363.874.544 1.866.544 2.976 0 1.109-.192 2.133-.576 3.072a6.83 6.83 0 0 1-1.632 2.464c-.704.682-1.579 1.216-2.624 1.6-1.024.384-2.208.576-3.552.576-1.045 0-1.984-.118-2.816-.352a7.81 7.81 0 0 1-2.144-.896 8.285 8.285 0 0 1-1.632-1.312 11.507 11.507 0 0 1-1.216-1.568l3.04-2.4c.256.426.533.832.832 1.216.32.362.672.682 1.056.96.384.277.811.501 1.28.672.491.149 1.045.224 1.664.224 1.28 0 2.251-.342 2.912-1.024.683-.704 1.024-1.664 1.024-2.88v-.256c0-1.174-.341-2.091-1.024-2.752-.683-.662-1.643-.992-2.88-.992-.939 0-1.707.181-2.304.544-.576.341-1.045.714-1.408 1.12l-3.424-.48.832-12.544h13.344v3.648Zm31.783 19.072c-2.88 0-5.088-1.003-6.624-3.008-1.536-2.006-2.304-4.854-2.304-8.544 0-3.691.768-6.539 2.304-8.544 1.536-2.006 3.744-3.008 6.624-3.008 1.067 0 1.984.117 2.752.352.789.234 1.472.554 2.048.96a6.35 6.35 0 0 1 1.472 1.344c.427.49.8 1.002 1.12 1.536l-3.136 1.984c-.427-.896-.96-1.59-1.6-2.08-.64-.491-1.483-.736-2.528-.736-1.28 0-2.304.373-3.072 1.12-.747.746-1.248 1.792-1.504 3.136h7.168v2.688h-7.328v2.496h7.328v2.688h-7.168c.256 1.344.757 2.389 1.504 3.136.768.746 1.792 1.12 3.072 1.12 1.045 0 1.888-.246 2.528-.736.64-.491 1.173-1.184 1.6-2.08l3.136 1.984a12.46 12.46 0 0 1-1.12 1.568 7.46 7.46 0 0 1-1.472 1.344c-.576.384-1.259.693-2.048.928-.768.234-1.685.352-2.752.352Z" fill="#DDD"/><defs><filter id="a" x=".775" y=".098" width="360" height="204" filterUnits="userSpaceOnUse" color-interpolation-filters="sRGB"><feFlood flood-opacity="0" result="BackgroundImageFix"/><feColorMatrix in="SourceAlpha" values="0 0 0 0 0 0 0 0 0 0 0 0 0 0 0 0 0 0 127 0" result="hardAlpha"/><feOffset dy="4"/><feGaussianBlur stdDeviation="2"/><feComposite in2="hardAlpha" operator="out"/><feColorMatrix values="0 0 0 0 0 0 0 0 0 0 0 0 0 0 0 0 0 0 0.1 0"/><feBlend in2="BackgroundImageFix" result="effect1_dropShadow_0_1"/><feBlend in="SourceGraphic" in2="effect1_dropShadow_0_1" result="shape"/></filter></defs></svg>