<svg width="141" height="31" viewBox="0 0 141 31" fill="none" xmlns="http://www.w3.org/2000/svg">
<path d="M22.9359 14.3007C22.5569 14.682 22.2667 15.1422 22.0859 15.6484C21.9051 16.1547 21.8382 16.6946 21.8899 17.2297L21.8719 17.2117C21.9251 17.8416 21.8401 18.4754 21.623 19.0691C21.4059 19.6627 21.0619 20.2018 20.615 20.6488C20.168 21.0957 19.6289 21.4398 19.0352 21.6568C18.4416 21.8739 17.8077 21.9589 17.1779 21.9057L17.1959 21.9237C16.4425 21.8536 15.6858 22.0175 15.0289 22.3932C14.3721 22.7689 13.8471 23.338 13.5256 24.023C13.2041 24.708 13.1016 25.4754 13.2322 26.2208C13.3629 26.9661 13.7202 27.653 14.2555 28.1878C14.7908 28.7226 15.478 29.0793 16.2234 29.2092C16.9689 29.3392 17.7362 29.236 18.4209 28.9139C19.1056 28.5917 19.6742 28.0663 20.0493 27.4091C20.4244 26.7519 20.5877 25.9951 20.5169 25.2417L20.5359 25.2597C20.4827 24.6299 20.5676 23.996 20.7847 23.4023C21.0018 22.8087 21.3459 22.2696 21.7928 21.8226C22.2398 21.3757 22.7789 21.0316 23.3725 20.8146C23.9662 20.5975 24.6 20.5125 25.2299 20.5657L25.2109 20.5477C25.8263 20.603 26.4458 20.5021 27.0119 20.2543C27.5779 20.0065 28.0723 19.6198 28.4491 19.1301C28.8259 18.6404 29.0731 18.0634 29.1675 17.4528C29.262 16.8421 29.2008 16.2175 28.9896 15.6367C28.7784 15.056 28.424 14.538 27.9593 14.1307C27.4946 13.7234 26.9346 13.44 26.3312 13.3068C25.7278 13.1736 25.1005 13.1948 24.5075 13.3685C23.9145 13.5423 23.375 13.8629 22.9389 14.3007H22.9359Z" fill="white"/>
<path d="M15.5589 19.5657L15.5399 19.5477C16.0752 19.6016 16.6158 19.5359 17.1227 19.3553C17.6295 19.1747 18.0899 18.8838 18.4705 18.5035C18.851 18.1232 19.1424 17.663 19.3233 17.1563C19.5043 16.6496 19.5704 16.1091 19.5169 15.5737L19.5359 15.5917C19.4827 14.9618 19.5677 14.328 19.7847 13.7343C20.0018 13.1407 20.3459 12.6016 20.7928 12.1546C21.2398 11.7077 21.7789 11.3636 22.3725 11.1466C22.9662 10.9294 23.6 10.8445 24.2299 10.8977L24.2109 10.8797C24.9644 10.9505 25.7213 10.787 26.3785 10.4118C27.0358 10.0365 27.5612 9.46765 27.8832 8.78278C28.2052 8.09792 28.3081 7.33039 28.1779 6.58488C28.0477 5.83937 27.6907 5.15219 27.1555 4.61705C26.6204 4.08192 25.9332 3.72488 25.1877 3.59466C24.4422 3.46443 23.6747 3.56734 22.9898 3.88936C22.3049 4.21137 21.7361 4.73682 21.3608 5.39403C20.9855 6.05123 20.8221 6.8082 20.8929 7.56168L20.8749 7.54268C20.9282 8.17257 20.8434 8.80651 20.6264 9.40023C20.4094 9.99395 20.0653 10.5331 19.6184 10.9802C19.1714 11.4271 18.6322 11.7712 18.0385 11.9882C17.4447 12.2052 16.8108 12.29 16.1809 12.2367L16.1989 12.2557C15.6636 12.2018 15.1229 12.2675 14.6161 12.4481C14.1093 12.6286 13.6489 12.9196 13.2683 13.2999C12.8877 13.6802 12.5964 14.1404 12.4154 14.6471C12.2345 15.1538 12.1684 15.6943 12.2219 16.2297L12.2039 16.2117C12.2569 16.8415 12.1718 17.4753 11.9547 18.0689C11.7375 18.6624 11.3935 19.2015 10.9466 19.6484C10.4996 20.0953 9.9606 20.4393 9.36704 20.6565C8.77348 20.8736 8.13969 20.9587 7.50988 20.9057L7.52788 20.9237C6.7744 20.8529 6.01743 21.0163 5.36022 21.3916C4.70302 21.7669 4.17757 22.3357 3.85556 23.0206C3.53354 23.7055 3.43062 24.473 3.56085 25.2185C3.69108 25.964 4.04812 26.6512 4.58325 27.1863C5.11839 27.7215 5.80557 28.0785 6.55108 28.2087C7.29659 28.3389 8.06412 28.236 8.74899 27.914C9.43385 27.592 10.0027 27.0666 10.378 26.4094C10.7533 25.7521 10.9167 24.9952 10.8459 24.2417L10.8649 24.2597C10.8117 23.6298 10.8967 22.996 11.1138 22.4023C11.3308 21.8087 11.6749 21.2696 12.1218 20.8226C12.5688 20.3757 13.1079 20.0316 13.7015 19.8146C14.2952 19.5975 14.929 19.5125 15.5589 19.5657Z" fill="white"/>
<path d="M8.85694 17.5587C9.23596 17.1775 9.52614 16.7173 9.70678 16.211C9.88742 15.7047 9.95406 15.1647 9.90194 14.6297L9.92093 14.6477C9.86773 14.0177 9.95269 13.3836 10.1699 12.7898C10.3871 12.196 10.7313 11.6568 11.1785 11.2098C11.6257 10.7628 12.165 10.4188 12.7589 10.2019C13.3528 9.98491 13.9869 9.90021 14.6169 9.95369L14.5979 9.93569C15.3511 10.0063 16.1078 9.84277 16.7647 9.46753C17.4216 9.0923 17.9467 8.52357 18.2686 7.83892C18.5904 7.15426 18.6932 6.38701 18.563 5.64178C18.4328 4.89655 18.0758 4.20963 17.5409 3.67469C17.006 3.13975 16.319 2.78283 15.5738 2.65261C14.8286 2.52238 14.0613 2.6252 13.3767 2.94702C12.692 3.26884 12.1233 3.79401 11.7481 4.45091C11.3728 5.10781 11.2093 5.86447 11.2799 6.61769L11.2619 6.59969C11.3151 7.22954 11.2301 7.86341 11.013 8.45705C10.7959 9.05069 10.452 9.5898 10.005 10.0368C9.55805 10.4837 9.01893 10.8277 8.42529 11.0448C7.83165 11.2619 7.19779 11.3469 6.56794 11.2937L6.58593 11.3117C5.9705 11.2565 5.35109 11.3576 4.78512 11.6055C4.21914 11.8534 3.72488 12.2402 3.34818 12.73C2.97147 13.2197 2.72449 13.7967 2.63011 14.4073C2.53574 15.018 2.59703 15.6426 2.8083 16.2232C3.01957 16.8039 3.374 17.3218 3.83873 17.729C4.30346 18.1363 4.86346 18.4196 5.46684 18.5528C6.07021 18.6859 6.69744 18.6646 7.29041 18.4909C7.88337 18.3171 8.42287 17.9965 8.85893 17.5587H8.85694Z" fill="white"/>
<path d="M39.8339 7.58472H42.8039V22.0377H39.8339V7.58472Z" fill="white"/>
<path d="M44.4859 17.0887C44.4818 16.0501 44.786 15.0335 45.36 14.1679C45.934 13.3023 46.752 12.6265 47.7104 12.2262C48.6688 11.8258 49.7244 11.7189 50.7436 11.919C51.7628 12.1191 52.6997 12.6171 53.4356 13.3501C54.1715 14.083 54.6733 15.0179 54.8775 16.0363C55.0817 17.0547 54.979 18.1108 54.5825 19.0708C54.186 20.0307 53.5135 20.8515 52.6502 21.4289C51.7868 22.0064 50.7716 22.3147 49.7329 22.3147C49.0435 22.3226 48.3594 22.1929 47.7206 21.9333C47.0818 21.6737 46.5012 21.2894 46.0127 20.8029C45.5241 20.3163 45.1375 19.7372 44.8754 19.0995C44.6132 18.4618 44.4808 17.7782 44.4859 17.0887ZM52.0099 17.0887C51.9975 16.641 51.8534 16.2069 51.5957 15.8406C51.3379 15.4744 50.9779 15.1922 50.5607 15.0295C50.1434 14.8667 49.6875 14.8305 49.2498 14.9255C48.8121 15.0205 48.4121 15.2423 48.0998 15.5634C47.7876 15.8844 47.5768 16.2904 47.4941 16.7306C47.4113 17.1707 47.46 17.6255 47.6343 18.0381C47.8086 18.4507 48.1006 18.8027 48.4738 19.0502C48.8471 19.2977 49.2851 19.4297 49.7329 19.4297C50.0396 19.4379 50.3447 19.3824 50.629 19.2668C50.9132 19.1512 51.1704 18.978 51.3843 18.7581C51.5982 18.5381 51.7643 18.2762 51.8719 17.9889C51.9796 17.7016 52.0266 17.3951 52.0099 17.0887Z" fill="white"/>
<path d="M66.8169 12.1387V21.5387C66.8169 24.8647 64.2229 26.2707 61.5899 26.2707C60.6629 26.3401 59.7346 26.1528 58.9069 25.7295C58.0793 25.3061 57.3842 24.663 56.8979 23.8707L59.4319 22.4057C59.6363 22.8187 59.962 23.1594 60.3653 23.3823C60.7687 23.6051 61.2305 23.6995 61.6889 23.6527C61.9819 23.6933 62.2803 23.6675 62.562 23.5772C62.8436 23.4869 63.1014 23.3344 63.3162 23.1311C63.531 22.9277 63.6973 22.6787 63.8029 22.4023C63.9084 22.126 63.9504 21.8295 63.9259 21.5347V20.6297C63.5781 21.0552 63.1355 21.3933 62.6334 21.6168C62.1313 21.8403 61.5839 21.943 61.0349 21.9167C59.7287 21.8755 58.4898 21.3277 57.5804 20.3891C56.671 19.4506 56.1625 18.195 56.1625 16.8882C56.1625 15.5814 56.671 14.3258 57.5804 13.3873C58.4898 12.4487 59.7287 11.9009 61.0349 11.8597C61.5839 11.8334 62.1313 11.9361 62.6334 12.1596C63.1355 12.3831 63.5781 12.7212 63.9259 13.1467V12.1367L66.8169 12.1387ZM63.9269 16.8897C63.9469 16.4111 63.8231 15.9374 63.5716 15.5297C63.3201 15.1219 62.9523 14.7988 62.5156 14.6019C62.0789 14.4049 61.5933 14.3432 61.1212 14.4246C60.6491 14.506 60.2122 14.7268 59.8666 15.0587C59.5211 15.3905 59.2828 15.8181 59.1823 16.2865C59.0819 16.7549 59.1239 17.2427 59.3031 17.687C59.4822 18.1313 59.7902 18.5119 60.1874 18.7797C60.5846 19.0475 61.0529 19.1903 61.5319 19.1897C61.844 19.2115 62.1571 19.1677 62.4512 19.0611C62.7453 18.9545 63.0138 18.7874 63.2394 18.5708C63.465 18.3541 63.6428 18.0926 63.7612 17.803C63.8796 17.5135 63.9361 17.2024 63.9269 16.8897Z" fill="white"/>
<path d="M68.4989 17.0887C68.4948 16.0501 68.7989 15.0335 69.373 14.1679C69.947 13.3023 70.765 12.6265 71.7234 12.2262C72.6818 11.8258 73.7374 11.7189 74.7566 11.919C75.7758 12.1191 76.7127 12.6171 77.4486 13.3501C78.1845 14.083 78.6863 15.0179 78.8905 16.0363C79.0947 17.0547 78.992 18.1108 78.5955 19.0708C78.199 20.0307 77.5265 20.8515 76.6632 21.4289C75.7998 22.0064 74.7846 22.3147 73.7459 22.3147C73.0565 22.3226 72.3723 22.1929 71.7336 21.9333C71.0948 21.6737 70.5142 21.2894 70.0257 20.8029C69.5371 20.3163 69.1505 19.7372 68.8884 19.0995C68.6262 18.4618 68.4938 17.7782 68.4989 17.0887ZM76.0229 17.0887C76.0105 16.641 75.8664 16.2069 75.6087 15.8406C75.3509 15.4744 74.9909 15.1922 74.5737 15.0295C74.1564 14.8667 73.7004 14.8305 73.2628 14.9255C72.8251 15.0205 72.4251 15.2423 72.1128 15.5634C71.8006 15.8844 71.5898 16.2904 71.507 16.7306C71.4242 17.1707 71.473 17.6255 71.6473 18.0381C71.8216 18.4507 72.1136 18.8027 72.4868 19.0502C72.8601 19.2977 73.298 19.4297 73.7459 19.4297C74.0526 19.4379 74.3577 19.3824 74.6419 19.2668C74.9262 19.1512 75.1834 18.978 75.3973 18.7581C75.6112 18.5381 75.7773 18.2762 75.8849 17.9889C75.9926 17.7016 76.0396 17.3951 76.0229 17.0887Z" fill="white"/>
<path d="M80.3779 9.48568C80.3779 9.13323 80.4824 8.7887 80.6782 8.49566C80.874 8.20261 81.1524 7.9742 81.478 7.83933C81.8036 7.70445 82.1619 7.66916 82.5076 7.73792C82.8532 7.80668 83.1708 7.9764 83.42 8.22562C83.6692 8.47483 83.8389 8.79235 83.9077 9.13803C83.9764 9.4837 83.9411 9.842 83.8063 10.1676C83.6714 10.4932 83.443 10.7715 83.1499 10.9674C82.8569 11.1632 82.5124 11.2677 82.1599 11.2677C81.6888 11.263 81.2382 11.0738 80.905 10.7406C80.5719 10.4074 80.3826 9.95684 80.3779 9.48568ZM80.6779 12.1387H83.6489V22.0387H80.6739L80.6779 12.1387Z" fill="white"/>
<path d="M96.4729 17.0887C96.5072 17.743 96.4119 18.3976 96.1923 19.0149C95.9728 19.6322 95.6334 20.2 95.1936 20.6857C94.7539 21.1713 94.2224 21.5653 93.6299 21.8449C93.0373 22.1244 92.3954 22.2841 91.7409 22.3147C91.1905 22.3447 90.6404 22.2519 90.1303 22.043C89.6202 21.834 89.1631 21.5142 88.7919 21.1067V25.9977H85.8219V12.1387H88.7919V13.0687C89.1632 12.6615 89.6205 12.3419 90.1305 12.1332C90.6406 11.9244 91.1906 11.8317 91.7409 11.8617C92.3955 11.8922 93.0376 12.0518 93.6303 12.3314C94.223 12.611 94.7545 13.005 95.1943 13.4908C95.6341 13.9766 95.9735 14.5446 96.1929 15.1621C96.4123 15.7795 96.5075 16.4343 96.4729 17.0887ZM93.5029 17.0887C93.4913 16.6254 93.3433 16.1758 93.0774 15.7961C92.8115 15.4165 92.4396 15.1237 92.0082 14.9545C91.5767 14.7852 91.1049 14.7469 90.6518 14.8445C90.1987 14.942 89.7845 15.171 89.4609 15.5028C89.1373 15.8347 88.9188 16.2545 88.8327 16.71C88.7466 17.1654 88.7967 17.636 88.9768 18.0631C89.1568 18.4902 89.4589 18.8546 89.8451 19.1109C90.2313 19.3671 90.6844 19.5038 91.1479 19.5037C91.4661 19.5179 91.7837 19.4646 92.0799 19.3474C92.376 19.2303 92.6441 19.0518 92.8664 18.8238C93.0888 18.5957 93.2604 18.3233 93.3701 18.0243C93.4798 17.7253 93.5251 17.4064 93.5029 17.0887Z" fill="white"/>
<path d="M105.638 19.0677C105.638 21.3447 103.659 22.3147 101.521 22.3147C100.657 22.3929 99.7896 22.2103 99.0307 21.7902C98.2718 21.3702 97.6564 20.7322 97.2639 19.9587L99.8369 18.4937C99.941 18.8512 100.165 19.1623 100.47 19.3748C100.776 19.5874 101.146 19.6887 101.517 19.6617C102.229 19.6617 102.586 19.4437 102.586 19.0487C102.586 17.9587 97.7149 18.5337 97.7149 15.1087C97.7149 12.9497 99.5369 11.8617 101.596 11.8617C102.37 11.8372 103.136 12.0208 103.815 12.3933C104.494 12.7659 105.061 13.3137 105.456 13.9797L102.922 15.3457C102.811 15.0864 102.626 14.8655 102.39 14.7106C102.154 14.5557 101.878 14.4737 101.596 14.4747C101.081 14.4747 100.764 14.6747 100.764 15.0287C100.768 16.1577 105.638 15.4047 105.638 19.0677Z" fill="white"/>
<path d="M116.487 12.1387V22.0387H113.517V21.1077C113.174 21.5185 112.739 21.8422 112.247 22.0522C111.755 22.2622 111.221 22.3525 110.687 22.3157C108.687 22.3157 106.987 20.8907 106.987 18.2157V12.1387H109.957V17.7807C109.932 18.0165 109.959 18.2549 110.036 18.4792C110.112 18.7036 110.237 18.9086 110.401 19.0799C110.565 19.2512 110.764 19.3847 110.985 19.4712C111.205 19.5577 111.442 19.5951 111.679 19.5807C112.768 19.5807 113.52 18.9477 113.52 17.5417V12.1417L116.487 12.1387Z" fill="white"/>
<path d="M133.517 15.9597V22.0377H130.547V16.2167C130.547 15.2267 130.072 14.5937 129.122 14.5937C128.132 14.5937 127.577 15.2867 127.577 16.4547V22.0377H124.608V16.2167C124.608 15.2267 124.133 14.5937 123.182 14.5937C122.192 14.5937 121.638 15.2867 121.638 16.4547V22.0377H118.668V12.1377H121.638V13.0477C121.946 12.644 122.35 12.3238 122.813 12.1165C123.277 11.9091 123.785 11.8212 124.291 11.8607C124.799 11.8358 125.305 11.9431 125.76 12.172C126.214 12.4008 126.601 12.7436 126.884 13.1667C127.213 12.724 127.649 12.372 128.151 12.1436C128.653 11.9152 129.205 11.8179 129.755 11.8607C132.028 11.8617 133.517 13.4847 133.517 15.9597Z" fill="white"/>
<path d="M136.029 12.0777C137.246 12.0777 138.233 11.0909 138.233 9.87368C138.233 8.65644 137.246 7.66968 136.029 7.66968C134.812 7.66968 133.825 8.65644 133.825 9.87368C133.825 11.0909 134.812 12.0777 136.029 12.0777Z" fill="white"/>
</svg>
