<svg width="125" height="33" viewBox="0 0 125 33" fill="none" xmlns="http://www.w3.org/2000/svg">
<path d="M37.5619 10.3253H40.5619V22.4553H37.5619V10.3253ZM41.7519 17.8753C41.7519 14.8753 43.5919 13.0853 46.4319 13.0853C49.2719 13.0853 51.1119 14.8753 51.1119 17.8753C51.1119 20.8753 49.3119 22.6753 46.4319 22.6753C43.5519 22.6753 41.7519 20.9253 41.7519 17.8753ZM48.1019 17.8753C48.1019 16.2253 47.4519 15.2553 46.4319 15.2553C45.4119 15.2553 44.7719 16.2553 44.7719 17.8753C44.7719 19.4953 45.4019 20.4753 46.4319 20.4753C47.4619 20.4753 48.1019 19.5553 48.1019 17.8853V17.8753ZM52.2419 23.0453H55.1219C55.259 23.3498 55.4907 23.6019 55.7826 23.7641C56.0745 23.9262 56.411 23.9898 56.7419 23.9453C57.8819 23.9453 58.4819 23.3253 58.4819 22.4253V20.7453H58.4219C58.1829 21.2602 57.795 21.6916 57.3084 21.984C56.8218 22.2763 56.2587 22.4161 55.6919 22.3853C53.5019 22.3853 52.0519 20.7153 52.0519 17.8453C52.0519 14.9753 53.4319 13.1653 55.7319 13.1653C56.3165 13.1424 56.8941 13.2987 57.3874 13.6132C57.8807 13.9278 58.2661 14.3856 58.4919 14.9253V13.2553H61.4919V22.3553C61.4919 24.5453 59.5619 25.9053 56.7119 25.9053C54.0619 25.9053 52.4119 24.7153 52.2419 23.0553V23.0453ZM58.4919 17.8653C58.4919 16.4053 57.8219 15.4853 56.7619 15.4853C55.7019 15.4853 55.0519 16.3953 55.0519 17.8653C55.0519 19.3353 55.6919 20.1653 56.7619 20.1653C57.8319 20.1653 58.4919 19.3553 58.4919 17.8753V17.8653ZM62.6219 17.8653C62.6219 14.8653 64.4619 13.0753 67.3019 13.0753C70.1419 13.0753 71.9919 14.8653 71.9919 17.8653C71.9919 20.8653 70.1919 22.6653 67.3019 22.6653C64.4119 22.6653 62.6219 20.9253 62.6219 17.8753V17.8653ZM68.9719 17.8653C68.9719 16.2153 68.3219 15.2453 67.3019 15.2453C66.2819 15.2453 65.6919 16.2553 65.6919 17.8853C65.6919 19.5153 66.3219 20.4853 67.3419 20.4853C68.3619 20.4853 68.9719 19.5553 68.9719 17.8853V17.8653ZM73.1319 11.0753C73.124 10.7724 73.2063 10.474 73.3682 10.2179C73.5302 9.96182 73.7645 9.75958 74.0415 9.63682C74.3185 9.51406 74.6257 9.47631 74.9242 9.52836C75.2227 9.58042 75.499 9.71993 75.7181 9.9292C75.9373 10.1385 76.0893 10.4081 76.155 10.7039C76.2207 10.9997 76.1971 11.3083 76.0871 11.5907C75.9772 11.873 75.7859 12.1164 75.5375 12.2899C75.2892 12.4634 74.9948 12.5593 74.6919 12.5653C74.4911 12.5791 74.2896 12.5512 74.1001 12.4834C73.9105 12.4156 73.7371 12.3094 73.5906 12.1713C73.4441 12.0333 73.3277 11.8664 73.2488 11.6812C73.1698 11.4961 73.13 11.2966 73.1319 11.0953V11.0753ZM73.1319 13.2753H76.1319V22.4553H73.1319V13.2753ZM87.0219 17.8653C87.0219 20.8653 85.6919 22.5753 83.4119 22.5753C82.8273 22.6128 82.2452 22.4699 81.7444 22.1659C81.2436 21.8618 80.8483 21.4113 80.6119 20.8753H80.5519V25.3953H77.5519V13.2553H80.5519V14.8953H80.6119C80.8373 14.3504 81.2251 13.8882 81.7225 13.5715C82.2199 13.2548 82.8028 13.099 83.3919 13.1253C85.6919 13.1653 87.0619 14.8853 87.0619 17.8853L87.0219 17.8653ZM84.0219 17.8653C84.0219 16.4053 83.3519 15.4753 82.3019 15.4753C81.2519 15.4753 80.5819 16.4153 80.5719 17.8653C80.5619 19.3153 81.2519 20.2453 82.3019 20.2453C83.3519 20.2453 84.0219 19.3353 84.0219 17.8853V17.8653ZM92.1719 13.0653C94.6619 13.0653 96.1719 14.2453 96.2419 16.1353H93.5119C93.5119 15.4853 92.9719 15.0753 92.1419 15.0753C91.3119 15.0753 90.9419 15.3953 90.9419 15.8653C90.9419 16.3353 91.2719 16.4853 91.9419 16.6253L93.8619 17.0153C95.6919 17.4053 96.4719 18.1453 96.4719 19.5353C96.4719 21.4353 94.7419 22.6553 92.1919 22.6553C89.6419 22.6553 87.9719 21.4353 87.8419 19.5653H90.7319C90.8219 20.2453 91.3619 20.6453 92.2419 20.6453C93.1219 20.6453 93.5219 20.3553 93.5219 19.8753C93.5219 19.3953 93.2419 19.2953 92.5219 19.1453L90.7919 18.7753C89.0019 18.4053 88.0619 17.4553 88.0619 16.0553C88.0819 14.2553 89.6919 13.0853 92.1719 13.0853V13.0653ZM106.482 22.4353H103.592V20.7253H103.532C103.373 21.2994 103.023 21.8019 102.539 22.1494C102.055 22.4968 101.467 22.6683 100.872 22.6353C100.416 22.6612 99.9601 22.589 99.5346 22.4235C99.1091 22.258 98.7241 22.0032 98.4056 21.6761C98.0871 21.3491 97.8424 20.9574 97.6883 20.5277C97.5341 20.098 97.474 19.6402 97.5119 19.1853V13.2553H100.512V18.4953C100.512 19.5853 101.072 20.1653 102.002 20.1653C102.22 20.1657 102.436 20.1196 102.635 20.0299C102.833 19.9402 103.011 19.809 103.155 19.6452C103.298 19.4813 103.406 19.2886 103.469 19.08C103.532 18.8713 103.551 18.6515 103.522 18.4353V13.2553H106.522L106.482 22.4353ZM107.932 13.2553H110.832V15.0253H110.892C111.051 14.4588 111.394 13.961 111.866 13.61C112.338 13.259 112.914 13.0744 113.502 13.0853C114.101 13.0374 114.695 13.2165 115.168 13.5871C115.64 13.9577 115.956 14.4925 116.052 15.0853H116.112C116.293 14.4862 116.669 13.9646 117.18 13.6025C117.69 13.2404 118.307 13.0584 118.932 13.0853C119.34 13.0716 119.746 13.1439 120.124 13.2975C120.503 13.451 120.844 13.6825 121.127 13.9767C121.41 14.271 121.628 14.6215 121.767 15.0054C121.905 15.3893 121.962 15.7982 121.932 16.2053V22.4553H118.932V17.0053C118.932 16.0053 118.482 15.5453 117.642 15.5453C117.455 15.5437 117.269 15.5823 117.098 15.6585C116.927 15.7347 116.774 15.8467 116.65 15.987C116.526 16.1273 116.433 16.2925 116.378 16.4716C116.323 16.6508 116.308 16.8396 116.332 17.0253V22.4553H113.482V16.9653C113.482 16.0453 113.032 15.5453 112.212 15.5453C112.023 15.5454 111.835 15.5856 111.663 15.6633C111.49 15.7411 111.335 15.8546 111.21 15.9963C111.084 16.138 110.99 16.3048 110.933 16.4857C110.877 16.6665 110.859 16.8572 110.882 17.0453V22.4553H107.882L107.932 13.2553Z" fill="white"/>
<path d="M29.1719 10.8754C28.663 9.71175 27.9895 8.62732 27.1719 7.65539C25.9634 6.17573 24.4552 4.96878 22.7466 4.11399C21.038 3.25921 19.1677 2.77596 17.2589 2.69605C15.3501 2.61614 13.446 2.94138 11.6719 3.65038C9.89784 4.35937 8.29404 5.43604 6.96607 6.80952C5.63809 8.18299 4.61604 9.82214 3.96719 11.6191C3.31834 13.416 3.05739 15.33 3.20153 17.235C3.34568 19.1401 3.89163 20.993 4.80347 22.6718C5.71531 24.3507 6.97236 25.8174 8.49188 26.9754C9.46688 27.7333 10.5442 28.3494 11.6919 28.8054C13.3009 29.4648 15.023 29.8044 16.7619 29.8054C20.3513 29.7975 23.7911 28.3667 26.3274 25.8267C28.8636 23.2867 30.2893 19.8448 30.2919 16.2554C30.2945 14.4039 29.9132 12.572 29.1719 10.8754ZM16.7519 5.44538C18.3135 5.44522 19.8562 5.78652 21.2719 6.44538C20.9267 6.59455 20.5637 6.69874 20.1919 6.75539C18.9685 6.93248 17.8352 7.50046 16.9611 8.37456C16.087 9.24865 15.519 10.382 15.3419 11.6054C15.2642 12.2915 14.9521 12.9298 14.4584 13.4126C13.9647 13.8954 13.3196 14.193 12.6319 14.2554C11.4085 14.4325 10.2751 15.0005 9.40105 15.8746C8.52696 16.7487 7.95897 17.882 7.78188 19.1054C7.72192 19.7578 7.44357 20.3709 6.99188 20.8454C6.21253 19.1987 5.86243 17.3815 5.97415 15.5631C6.08587 13.7447 6.65578 11.9841 7.63085 10.4451C8.60591 8.90618 9.95445 7.6389 11.551 6.76123C13.1475 5.88356 14.9401 5.42403 16.7619 5.42538L16.7519 5.44538ZM8.48188 23.2554C8.60188 23.1454 8.72188 23.0454 8.84188 22.9254C9.73153 22.0629 10.3026 20.9243 10.4619 19.6954C10.5265 19.0046 10.8349 18.3594 11.3319 17.8754C11.8102 17.3776 12.4539 17.0717 13.1419 17.0154C14.3653 16.8383 15.4986 16.2703 16.3727 15.3962C17.2468 14.5221 17.8148 13.3888 17.9919 12.1654C18.0352 11.4429 18.3452 10.7622 18.8619 10.2554C19.352 9.76724 20.0018 9.47248 20.6919 9.42537C21.8158 9.27074 22.864 8.7711 23.6919 7.99539C24.6346 8.77746 25.4332 9.71828 26.0519 10.7754C26.0139 10.8267 25.9703 10.8737 25.9219 10.9154C25.4446 11.4176 24.8017 11.7302 24.1119 11.7954C22.8872 11.9694 21.7522 12.5364 20.8775 13.411C20.0029 14.2857 19.4359 15.4207 19.2619 16.6454C19.1914 17.3338 18.8851 17.9767 18.3949 18.4651C17.9046 18.9536 17.2606 19.2575 16.5719 19.3254C15.3449 19.5011 14.2074 20.068 13.3282 20.9417C12.4491 21.8155 11.8752 22.9495 11.6919 24.1754C11.6381 24.6641 11.4702 25.1334 11.2019 25.5454C10.1759 24.9362 9.25697 24.1626 8.48188 23.2554ZM16.7519 27.1154C15.7372 27.1165 14.7273 26.9751 13.7519 26.6954C14.0856 26.0734 14.3025 25.3955 14.3919 24.6954C14.462 24.0085 14.7669 23.3668 15.2551 22.8786C15.7433 22.3904 16.385 22.0855 17.0719 22.0154C18.2971 21.8403 19.4327 21.2732 20.3088 20.3989C21.1848 19.5247 21.7543 18.3902 21.9319 17.1654C22.002 16.4785 22.3069 15.8368 22.7951 15.3486C23.2833 14.8604 23.925 14.5555 24.6119 14.4854C25.5339 14.3655 26.4127 14.0222 27.1719 13.4854C27.5935 15.0833 27.6434 16.7565 27.3179 18.3767C26.9924 19.9969 26.3 21.5211 25.294 22.8322C24.288 24.1432 22.9951 25.2065 21.5143 25.9403C20.0336 26.6741 18.4045 27.059 16.7519 27.0654V27.1154Z" fill="white"/>
</svg>
