<svg width="160" height="32" viewBox="0 0 160 32" fill="none" xmlns="http://www.w3.org/2000/svg">
<path d="M38.6326 17.3241L38.6332 17.3247C39.8103 18.5846 40.5385 20.2824 40.6508 22.1087L40.6508 22.1088C40.7632 23.9352 40.2494 25.7287 39.2289 27.1539C38.2103 28.5763 36.7671 29.5237 35.1879 29.8618C33.6116 30.1991 31.9674 29.9159 30.5526 29.045L30.5518 29.0445C30.2916 28.8845 30.031 28.733 29.7651 28.5871L29.7613 28.5851C27.2619 27.221 24.4871 26.5055 21.666 26.5055C18.8449 26.5055 16.0702 27.221 13.5706 28.5851L13.5666 28.5873C13.3008 28.7331 13.0403 28.8846 12.7802 29.0445L12.7794 29.045C11.3646 29.9159 9.72042 30.1991 8.1441 29.8616L8.14397 29.8616C6.56496 29.5237 5.12179 28.5762 4.10324 27.154C3.08266 25.7288 2.56886 23.9353 2.68121 22.1087C2.79356 20.2823 3.52169 18.5846 4.69878 17.3247C4.81373 17.2018 4.90217 17.1097 4.98617 17.0293C6.98592 15.1839 8.93287 13.2476 10.8271 11.2207C12.8415 9.0653 14.7534 6.83891 16.5694 4.56709L16.5743 4.56094L16.5792 4.55475C16.7039 4.39619 16.8361 4.24206 16.9762 4.09228L16.9768 4.09158C17.6053 3.41891 18.3444 2.89301 19.1477 2.53694C19.9505 2.18109 20.8059 2 21.6659 2C22.526 2 23.3812 2.18108 24.1841 2.53694C24.9871 2.89289 25.726 3.41857 26.3546 4.09104C26.4958 4.24246 26.6286 4.3972 26.7529 4.55515L26.7576 4.56117L26.7624 4.56717C28.5785 6.83892 30.4904 9.06529 32.5048 11.2207L32.5054 11.2213C34.4009 13.2478 36.3476 15.1837 38.3454 17.0288C38.4301 17.11 38.5192 17.2027 38.6326 17.3241Z" stroke="#202028" stroke-width="4"/>
<path d="M65.4309 7.22872H69.314L75.7613 23.5591H72.1019L70.7982 19.7853H63.8096L62.5059 23.5591H58.666L65.4309 7.22872ZM69.9062 16.972L67.281 11.1169L64.6787 16.972H69.9062Z" fill="#202028"/>
<path d="M77.9791 21.0661L88.0503 10.1563H78.1392V7.22872H93.0744V9.7446L83.0261 20.6315H93.1227L93.0973 23.5591H77.9791V21.0661Z" fill="#202028"/>
<path d="M95.1868 15.4625C95.1868 20.6773 99.1207 23.9022 103.512 23.9022C105.022 23.9022 106.485 23.5133 107.743 22.8043L109.733 25L111.814 23.216L109.87 21.0661C111.105 19.648 111.86 17.7497 111.86 15.4625C111.86 10.2249 107.926 7 103.512 7C99.1207 7 95.1868 10.2249 95.1868 15.4625ZM98.4574 15.4396C98.4574 11.7802 101.019 10.0419 103.512 10.0419C106.028 10.0419 108.59 11.7802 108.59 15.4396C108.59 16.7662 108.247 17.8412 107.698 18.6645L105.159 15.8285L103.055 17.6353L105.593 20.4257C104.953 20.7001 104.221 20.8374 103.512 20.8374C101.019 20.8374 98.4574 19.0991 98.4574 15.4396Z" fill="#202028"/>
<path d="M116.243 7.22872H119.651V23.5591H116.243V7.22872Z" fill="#202028"/>
<path d="M124.818 7.22872H133.146C134.427 7.22872 135.479 7.38119 136.303 7.68615C137.141 7.97586 137.797 8.36468 138.27 8.85261C138.742 9.32529 139.07 9.85896 139.253 10.4536C139.436 11.033 139.527 11.6048 139.527 12.169C139.527 13.2211 139.337 14.1055 138.956 14.8221C138.574 15.5388 137.934 16.141 137.034 16.629L140.351 23.5591H136.669L133.924 17.4295H128.181V23.5591H124.818V7.22872ZM133.375 14.5934C133.909 14.5934 134.351 14.54 134.702 14.4333C135.052 14.3113 135.327 14.1512 135.525 13.953C135.738 13.7395 135.883 13.4879 135.959 13.1982C136.036 12.9085 136.074 12.5883 136.074 12.2376C136.074 11.9479 136.028 11.6734 135.937 11.4142C135.845 11.1398 135.685 10.9034 135.456 10.7052C135.243 10.4917 134.938 10.3316 134.541 10.2249C134.16 10.1029 133.672 10.0419 133.078 10.0419H128.181V14.5934H133.375Z" fill="#202028"/>
<path d="M149.267 7.22872H153.151L159.598 23.5591H155.938L154.635 19.7853H147.646L146.342 23.5591H142.82L149.267 7.22872ZM153.743 16.972L151.117 11.1169L148.515 16.972H153.743Z" fill="#202028"/>
</svg>
