<svg width="43" height="33" viewBox="0 0 43 33" fill="none" xmlns="http://www.w3.org/2000/svg">
    <path d="M38.6326 17.91L38.6332 17.9107C39.8103 19.1705 40.5385 20.8683 40.6508 22.6946L40.6508 22.6947C40.7632 24.5212 40.2494 26.3146 39.2289 27.7399C38.2103 29.1622 36.7671 30.1096 35.1879 30.4477C33.6116 30.785 31.9674 30.5018 30.5526 29.631L30.5518 29.6305C30.2916 29.4705 30.031 29.319 29.7651 29.1731L29.7613 29.171C27.2619 27.807 24.4871 27.0915 21.666 27.0915C18.8449 27.0915 16.0702 27.807 13.5706 29.171L13.5666 29.1733C13.3008 29.3191 13.0403 29.4705 12.7802 29.6305L12.7794 29.631C11.3646 30.5018 9.72042 30.785 8.1441 30.4476L8.14397 30.4475C6.56496 30.1096 5.12179 29.1621 4.10324 27.7399C3.08266 26.3147 2.56886 24.5212 2.68121 22.6946C2.79356 20.8683 3.52169 19.1705 4.69878 17.9107C4.81373 17.7877 4.90217 17.6957 4.98617 17.6152C6.98592 15.7698 8.93287 13.8335 10.8271 11.8067C12.8415 9.65123 14.7534 7.42484 16.5694 5.15303L16.5743 5.14688L16.5792 5.14069C16.7039 4.98213 16.8361 4.828 16.9762 4.67822L16.9768 4.67752C17.6053 4.00485 18.3444 3.47895 19.1477 3.12288C19.9505 2.76702 20.8059 2.58594 21.6659 2.58594C22.526 2.58594 23.3812 2.76702 24.1841 3.12288C24.9871 3.47883 25.726 4.00451 26.3546 4.67697C26.4958 4.8284 26.6286 4.98313 26.7529 5.14109L26.7576 5.14711L26.7624 5.1531C28.5785 7.42486 30.4904 9.65123 32.5048 11.8067L32.5054 11.8073C34.4009 13.8337 36.3476 15.7697 38.3454 17.6148C38.4301 17.6959 38.5192 17.7886 38.6326 17.91Z" stroke="#FDFDFD" stroke-width="4"/>
</svg>                    