<svg width="133" height="18" viewBox="0 0 133 18" fill="none" xmlns="http://www.w3.org/2000/svg">
<path d="M65.9548 15.2383H61.5085V2.99112H65.9548V15.2383ZM61.9427 14.7909H65.5206V3.43849H61.9427V14.7909ZM72.1415 15.2383H67.7846V2.99112H76.8874C78.1914 2.88232 79.49 3.25952 80.5469 4.05407C81.0019 4.48293 81.3545 5.01429 81.5773 5.6067C81.8001 6.19911 81.887 6.83655 81.8313 7.46928C81.8963 8.56262 81.5585 9.64099 80.8856 10.489C80.0892 11.4303 78.764 11.9152 76.9473 11.9322C76.4896 11.9448 73.0602 11.9322 72.1441 11.9322L72.1415 15.2383ZM68.2162 14.7909H71.7072V11.4804H71.9252C71.9695 11.4804 76.4219 11.4947 76.9369 11.4804C78.6294 11.4652 79.8461 11.033 80.5573 10.1893C81.1564 9.422 81.4539 8.45094 81.391 7.46838C81.4444 6.90145 81.3703 6.32947 81.1746 5.79678C80.9788 5.2641 80.6666 4.78504 80.2621 4.39675C79.2821 3.67211 78.0832 3.33195 76.8813 3.4376H68.2188L68.2162 14.7909ZM75.9651 9.18091H71.6777V5.84712H75.9938C76.2997 5.80357 76.6114 5.84036 76.8998 5.95407C77.1883 6.06779 77.4442 6.25475 77.6438 6.4976C77.8248 6.80802 77.9102 7.16774 77.8887 7.52923C77.9049 7.86484 77.8346 8.19891 77.6846 8.49733C77.4787 8.75312 77.2123 8.95002 76.9112 9.06911C76.6101 9.1882 76.2843 9.22547 75.9651 9.17733V9.18091ZM72.1119 8.73354H75.9651C76.6772 8.73354 77.1184 8.58054 77.3138 8.2656C77.4214 8.03668 77.4701 7.78312 77.4553 7.52923C77.4743 7.26265 77.4182 6.99609 77.2938 6.76154L77.2886 6.75349C77.0819 6.44033 76.6711 6.29449 75.9938 6.29449H72.1119V8.73354ZM89.7556 15.419C85.8564 15.419 83.5291 14.4214 82.6424 12.3698C82.4973 11.9735 82.3988 11.5607 82.3489 11.1404L82.3107 10.8827H86.9498L86.9802 11.0706C87.0159 11.2614 87.0948 11.4409 87.2094 11.5949C87.3927 11.8231 88.004 12.206 90.0327 12.206C92.4712 12.206 92.4712 11.7649 92.4712 11.5278C92.4712 11.1279 92.189 10.991 90.2003 10.7726L89.8225 10.736C89.0739 10.6635 88.1273 10.5713 87.6949 10.5329C84.0475 10.1929 82.4192 9.02523 82.4192 6.74812C82.4192 4.35649 85.1903 2.81128 89.4795 2.81128C92.9783 2.81128 95.2328 3.76149 96.1785 5.63775C96.4025 6.07419 96.5536 6.5468 96.624 7.03533L96.6544 7.28675H92.0101L91.991 7.08454C91.9727 6.92651 91.9076 6.77827 91.8034 6.66044C91.6297 6.42065 91.0808 6.02428 89.377 6.02428C87.285 6.02428 86.9967 6.29986 86.9967 6.59691C86.9967 6.99328 87.6575 7.13375 89.7756 7.36728C90.6588 7.44154 92.0787 7.59186 92.565 7.6527C95.6227 7.99449 96.987 9.13349 96.987 11.3471C96.9879 13.2036 95.733 15.419 89.7556 15.419ZM82.8178 11.3301C82.8613 11.6252 82.9362 11.9143 83.041 12.1926C83.8486 14.0617 86.0457 14.9716 89.7556 14.9716C92.8576 14.9716 96.5562 14.3453 96.5562 11.3471C96.5562 9.38491 95.3491 8.41323 92.519 8.09738C92.0326 8.03654 90.6215 7.88712 89.74 7.81196C87.4821 7.55965 86.5642 7.42544 86.5642 6.59691C86.5642 5.73975 87.5533 5.57691 89.3787 5.57691C90.8212 5.57691 91.753 5.84533 92.1481 6.38665C92.2558 6.52001 92.3374 6.67381 92.3878 6.83938H96.1516C96.076 6.49335 95.9562 6.15911 95.7955 5.84533C94.9271 4.12833 92.8055 3.25865 89.4812 3.25865C85.4561 3.25865 82.8552 4.62849 82.8552 6.74812C82.8552 8.77023 84.315 9.76875 87.7348 10.0873C88.169 10.1258 89.1147 10.2179 89.8651 10.2913L90.2454 10.328C92.0926 10.5284 92.9071 10.6536 92.9071 11.5278C92.9071 12.4691 91.8537 12.6534 90.0344 12.6534C88.3514 12.6534 87.2885 12.393 86.8777 11.8803C86.7511 11.7169 86.6555 11.5301 86.5963 11.3301H82.8178ZM105.237 15.4038C100.704 15.4038 98.2028 13.515 98.2028 10.0846V2.99112H102.59V10.0846C102.59 11.2612 103.612 11.9358 105.393 11.9358C107.095 11.9358 108.152 11.2316 108.152 10.0998V2.99112H112.494V10.4604C112.499 13.6018 109.851 15.4038 105.234 15.4038H105.237ZM98.637 3.43849V10.0846C98.637 14.3239 102.769 14.9564 105.237 14.9564C107.788 14.9564 112.067 14.3722 112.067 10.4604V3.43849H108.593V10.0998C108.593 11.4866 107.339 12.3832 105.4 12.3832C103.373 12.3832 102.163 11.5242 102.163 10.0846V3.43849H98.637ZM130.894 15.2383H126.754V9.70881L124.406 15.2383H120.794L118.47 9.71954V15.2383H114.315V2.99112H119.78L122.62 9.7437L125.597 2.99112H130.9L130.894 15.2383ZM127.188 14.7909H130.46V3.43849H125.873L122.606 10.846L119.492 3.43849H114.745V14.7909H118.032V7.56681L121.072 14.7936H124.111L127.183 7.57754L127.188 14.7909ZM5.47885 3.21481H1.52406V15.0146H12.4523V11.8732H5.47885V3.21481ZM20.4348 2.94638C15.3867 2.94638 12.7319 5.41138 12.7319 9.0306C12.7319 13.1195 15.5187 15.1935 20.4348 15.1935C25.8468 15.1935 28.1229 12.7885 28.1229 9.0306C28.1229 5.21454 25.555 2.9446 20.4348 2.9446V2.94638ZM20.42 6.01265C20.7637 6.01098 21.1071 6.0316 21.4482 6.07438L17.0271 10.6295C16.8179 10.1419 16.7159 9.61271 16.7284 9.07981C16.7284 7.2286 17.6333 6.01086 20.42 6.01086V6.01265ZM20.4348 12.1756C20.1037 12.1771 19.7728 12.158 19.4439 12.1183L23.8729 7.55517C24.0743 8.03466 24.1707 8.554 24.1551 9.07623C24.1551 10.8773 23.3214 12.1738 20.4348 12.1738V12.1756ZM35.9587 10.5651H40.029C39.9691 10.8561 39.8442 11.1288 39.6642 11.3614C38.8204 12.0697 37.7435 12.4143 36.6586 12.3232C36.1126 12.3834 35.5604 12.322 35.0395 12.143C34.5185 11.9642 34.0409 11.6719 33.6391 11.2862C33.2276 10.6643 33.0321 9.91737 33.0842 9.1666C33.0176 8.37989 33.2302 7.59501 33.6826 6.95749C34.2514 6.29538 35.2145 6.00996 36.63 6.00996C37.5306 5.93313 38.4301 6.17145 39.1831 6.68639C39.4205 6.88061 39.5979 7.14173 39.6938 7.43796H43.4688C43.4414 6.94986 43.3274 6.47105 43.1327 6.02517C42.2287 4.13102 40.1271 3.00365 36.5536 3.00365C33.4455 3.00365 31.3595 3.9807 30.2071 5.45433C29.4461 6.5185 29.0554 7.81594 29.0982 9.13707C29.0489 10.4881 29.4296 11.8187 30.182 12.9263C31.3205 14.4473 33.3482 15.1953 35.785 15.1953C37.405 15.3117 39.0141 14.8442 40.3364 13.8729L40.4389 15.0146H43.5747V8.02491H35.9587V10.5651ZM52.4752 2.9437C47.4279 2.9437 44.7723 5.4087 44.7723 9.02791C44.7723 13.1169 47.5582 15.1909 52.4752 15.1909C57.8881 15.1909 60.1642 12.7858 60.1642 9.02791C60.1642 5.21454 57.5963 2.9446 52.4752 2.9446V2.9437ZM52.4613 6.00996C52.7959 6.00894 53.1302 6.02866 53.4626 6.06902L49.0588 10.6089C48.8561 10.1267 48.7575 9.60511 48.7696 9.07981C48.7662 7.2286 49.6745 6.01086 52.4613 6.01086V6.00996ZM52.4752 12.1729C52.1353 12.1744 51.7957 12.154 51.4583 12.1121L55.902 7.53281C56.111 8.01868 56.2111 8.54683 56.1946 9.07802C56.1964 10.8773 55.3662 12.1738 52.4752 12.1738V12.1729Z" fill="white"/>
</svg>
