<svg width="581" height="482" viewBox="0 0 581 482" fill="none" xmlns="http://www.w3.org/2000/svg"><g clip-path="url(#a)"><rect width="581" height="482" rx="15" fill="#F8F9FA"/><g filter="url(#b)"><path d="M389.205 42.85H92.795C78.272 42.85 66.5 54.621 66.5 69.143v263.501c0 14.523 11.772 26.295 26.295 26.295h296.41c14.522 0 26.295-11.772 26.295-26.295V69.144c0-14.522-11.773-26.295-26.295-26.295Z" fill="#F6F9FC"/></g><path d="M102.419 88.618h-3.165v-1.47h8.009v1.47h-3.15v8.526h-1.694v-8.526Zm7.631 5.125a6.53 6.53 0 0 0-1.162.154c-.289.074-.513.172-.672.293a.836.836 0 0 0-.322.407c-.047.149-.07.312-.07.49 0 .317.098.564.294.742.205.177.504.266.896.266.7 0 1.218-.178 1.554-.532.336-.355.504-.836.504-1.442v-.42l-1.022.042Zm1.05 2.45a3.391 3.391 0 0 1-.994.811c-.392.215-.868.322-1.428.322-.345 0-.667-.046-.966-.14a2.208 2.208 0 0 1-.784-.392 1.965 1.965 0 0 1-.518-.671 2.454 2.454 0 0 1-.182-.98c0-.505.112-.91.336-1.219.224-.317.513-.564.868-.742.364-.177.77-.298 1.218-.364.448-.074.896-.12 1.344-.14l1.078-.055v-.309c0-.55-.135-.928-.406-1.133-.261-.215-.607-.322-1.036-.322-.495 0-.863.084-1.106.252-.233.167-.387.41-.462.727l-1.456-.153c.131-.71.453-1.228.966-1.555.513-.326 1.218-.49 2.114-.49.579 0 1.055.075 1.428.225.383.149.686.354.91.616.224.26.378.574.462.938.093.354.14.746.14 1.175v4.55H111.1v-.952Zm4.674-6.328v1.078c.252-.383.555-.677.91-.882a2.224 2.224 0 0 1 1.134-.309c.158 0 .289.005.392.014.112.01.219.024.322.042l-.182 1.456a1.817 1.817 0 0 0-.336-.055 4.974 4.974 0 0 0-.378-.014c-.299 0-.56.05-.784.154-.224.093-.416.219-.574.377-.15.16-.266.341-.35.546a1.67 1.67 0 0 0-.112.602v4.27h-1.582v-7.28h1.54Zm8.571 3.374c0-.449-.056-.822-.168-1.12-.103-.3-.243-.532-.42-.7a1.3 1.3 0 0 0-.602-.364 2.16 2.16 0 0 0-.686-.113c-.588 0-1.045.201-1.372.603-.317.4-.476.989-.476 1.763 0 .44.047.813.14 1.12.103.3.233.542.392.728.159.187.345.322.56.406.215.085.443.127.686.127.681 0 1.176-.206 1.484-.616.308-.411.462-.994.462-1.75v-.084Zm-3.5 4.465c.112.7.607 1.05 1.484 1.05h.364c.355-.009.639-.084.854-.224a1.28 1.28 0 0 0 .49-.531 2.19 2.19 0 0 0 .238-.77 7.29 7.29 0 0 0 .056-.924v-.49c-.541.765-1.311 1.148-2.31 1.148-.523 0-.98-.09-1.372-.266a2.713 2.713 0 0 1-.952-.757 3.278 3.278 0 0 1-.56-1.162 5.568 5.568 0 0 1-.182-1.456c0-.504.065-.975.196-1.413.14-.449.341-.836.602-1.163.261-.335.583-.597.966-.783a2.974 2.974 0 0 1 1.316-.308c.149-.01.317 0 .504.028.336.046.658.149.966.307.308.15.597.402.868.757v-.882h1.554v6.272a6.74 6.74 0 0 1-.182 1.651c-.121.486-.317.892-.588 1.219a2.379 2.379 0 0 1-1.036.755c-.429.168-.952.253-1.568.253-1.092 0-1.895-.192-2.408-.575-.513-.382-.812-.96-.896-1.736h1.596Zm13.221-2.715c-.13.755-.452 1.343-.966 1.763-.513.411-1.25.617-2.212.617-1.157 0-2.039-.332-2.646-.995-.597-.671-.896-1.614-.896-2.828 0-.625.084-1.18.252-1.666a3.51 3.51 0 0 1 .728-1.218 3.06 3.06 0 0 1 1.12-.756c.439-.177.92-.266 1.442-.266.56 0 1.046.09 1.456.266.411.168.752.411 1.022.728.271.308.472.682.602 1.12.131.43.196.91.196 1.442v.7h-5.222c.019.663.187 1.2.504 1.61.318.411.798.617 1.442.617.504 0 .882-.099 1.134-.294.252-.197.42-.476.504-.84h1.54Zm-1.456-2.199c0-.597-.14-1.068-.42-1.414-.28-.345-.728-.517-1.344-.517-.588 0-1.036.177-1.344.532-.308.345-.485.811-.532 1.4h3.64Zm2.255-1.666v-1.26h1.148v-1.96h1.582v1.96h1.806v1.26h-1.806v3.809c0 .373.075.643.224.811.159.168.388.252.686.252.159 0 .308-.009.448-.027.15-.02.294-.052.434-.098l.238 1.19c-.448.149-.933.223-1.456.223-.802 0-1.362-.205-1.68-.616-.317-.42-.476-1.045-.476-1.876v-3.668h-1.148Zm11.998 2.619c-.476.028-.864.079-1.162.154-.29.074-.514.172-.672.293a.836.836 0 0 0-.322.407c-.047.149-.07.312-.07.49 0 .317.098.564.294.742.205.177.504.266.896.266.7 0 1.218-.178 1.554-.532.336-.355.504-.836.504-1.442v-.42l-1.022.042Zm1.05 2.45a3.391 3.391 0 0 1-.994.811c-.392.215-.868.322-1.428.322-.346 0-.668-.046-.966-.14a2.208 2.208 0 0 1-.784-.392 1.953 1.953 0 0 1-.518-.671 2.436 2.436 0 0 1-.182-.98c0-.505.112-.91.336-1.219.224-.317.513-.564.868-.742.364-.177.77-.298 1.218-.364.448-.074.896-.12 1.344-.14l1.078-.055v-.309c0-.55-.136-.928-.406-1.133-.262-.215-.607-.322-1.036-.322-.495 0-.864.084-1.106.252-.234.167-.388.41-.462.727l-1.456-.153c.13-.71.452-1.228.966-1.555.513-.326 1.218-.49 2.114-.49.578 0 1.054.075 1.428.225.382.149.686.354.91.616.224.26.378.574.462.938.093.354.14.746.14 1.175v4.55h-1.526v-.952Zm4.673-6.328v1.05c.504-.7 1.101-1.107 1.792-1.219.177-.028.364-.041.56-.041.495.018.896.144 1.204.377.308.225.532.532.672.925.644-.878 1.437-1.316 2.38-1.316.775 0 1.344.214 1.708.643.364.43.546 1.116.546 2.058v4.802h-1.596v-4.368c0-.354-.023-.648-.07-.882a1.43 1.43 0 0 0-.21-.546.613.613 0 0 0-.336-.28 1.274 1.274 0 0 0-.476-.084c-.28 0-.527.052-.742.154a1.698 1.698 0 0 0-.546.406c-.14.169-.247.36-.322.575-.075.205-.112.42-.112.644v4.381h-1.596v-4.522c0-.625-.098-1.054-.294-1.287-.187-.234-.448-.35-.784-.35-.14 0-.308.032-.504.097a1.77 1.77 0 0 0-.574.294c-.177.14-.331.327-.462.56-.131.234-.196.518-.196.854v4.354h-1.582v-7.28h1.54Zm13.82 6.216c.672 0 1.162-.23 1.47-.687.318-.466.476-1.1.476-1.904 0-.793-.158-1.418-.476-1.875-.308-.458-.798-.686-1.47-.686-.672 0-1.166.233-1.484.7-.308.457-.462 1.078-.462 1.861 0 .794.15 1.424.448 1.89.308.467.808.7 1.498.7Zm-.014 1.287c-1.138 0-2.02-.335-2.646-1.007-.625-.672-.938-1.624-.938-2.857a5 5 0 0 1 .238-1.582c.168-.475.406-.882.714-1.218a3.167 3.167 0 0 1 1.134-.783c.448-.187.957-.28 1.526-.28.579 0 1.092.097 1.54.293.448.187.822.448 1.12.785.308.336.537.742.686 1.218.159.466.238.98.238 1.54 0 .634-.088 1.194-.266 1.68a3.44 3.44 0 0 1-.756 1.218 3.104 3.104 0 0 1-1.134.742 4.038 4.038 0 0 1-1.456.251Zm6.586-7.503v4.578c0 .606.098 1.022.294 1.246.205.224.513.336.924.336.224 0 .448-.043.672-.127a1.866 1.866 0 0 0 1.05-.938c.112-.223.168-.475.168-.755v-4.34h1.596v7.28h-1.554V96.08c-.336.447-.7.774-1.092.98a2.675 2.675 0 0 1-1.26.307c-.85 0-1.461-.219-1.834-.657-.364-.44-.546-1.111-.546-2.016v-4.83h1.582Zm7.913 0v1.064c.326-.448.69-.775 1.092-.98a2.9 2.9 0 0 1 1.316-.308c1.624 0 2.436.895 2.436 2.688v4.816h-1.596V92.58c0-.588-.108-1-.322-1.233-.215-.242-.532-.364-.952-.364-.28 0-.542.052-.784.154a1.764 1.764 0 0 0-.602.392 1.992 1.992 0 0 0-.406.588c-.094.215-.14.444-.14.687v4.34h-1.582v-7.28h1.54Zm5.74 1.26v-1.26h1.148v-1.96h1.582v1.96h1.806v1.26h-1.806v3.808c0 .373.075.643.224.811.159.168.388.252.686.252.159 0 .308-.009.448-.027.15-.02.294-.052.434-.098l.238 1.19c-.448.149-.933.223-1.456.223-.802 0-1.362-.205-1.68-.616-.317-.42-.476-1.045-.476-1.876v-3.668h-1.148Z" fill="#222"/><rect x="220.489" y="79.144" width="40" height="4" rx="2" fill="#E2E2E2"/><path d="M255.605 145.652h1.596l3.22 8.456 3.276-8.456h1.54v9.996h-1.19v-7.882l-3.136 7.882h-1.05l-3.08-7.854v7.854h-1.176v-9.996Zm11.56 2.758h1.218v7.238h-1.218v-7.238Zm-.042-2.758h1.302v1.414h-1.302v-1.414Zm3.019 2.758h1.204v1.106c.354-.476.746-.816 1.176-1.022a3.113 3.113 0 0 1 1.358-.308c.821 0 1.428.224 1.82.672.401.448.602 1.106.602 1.974v4.816h-1.218v-4.578c0-.672-.122-1.143-.364-1.414-.243-.28-.616-.42-1.12-.42-.271 0-.542.047-.812.14-.262.094-.5.243-.714.448a2.292 2.292 0 0 0-.532.658c-.122.224-.182.518-.182.882v4.284h-1.218v-7.238Zm7.872 0h1.218v7.238h-1.218v-7.238Zm-.042-2.758h1.302v1.414h-1.302v-1.414Zm3.019 2.758h1.204v1.106c.326-.448.686-.779 1.078-.994a2.398 2.398 0 0 1 1.204-.336c.541 0 .975.117 1.302.35.336.234.583.57.742 1.008.326-.448.7-.784 1.12-1.008.42-.233.868-.35 1.344-.35.709 0 1.255.196 1.638.588.392.383.588 1.004.588 1.862v5.012h-1.218v-4.732c0-.326-.028-.597-.084-.812a1.174 1.174 0 0 0-.252-.518.77.77 0 0 0-.392-.266 1.64 1.64 0 0 0-.546-.084 2.069 2.069 0 0 0-1.82 1.078 1.584 1.584 0 0 0-.182.77v4.564h-1.218v-4.718c0-.634-.112-1.073-.336-1.316-.215-.252-.528-.378-.938-.378-.476 0-.924.196-1.344.588-.159.15-.313.341-.462.574-.14.234-.21.546-.21.938v4.312h-1.218v-7.238Zm11.876 0h1.218v4.564c0 .672.108 1.148.322 1.428.224.28.584.42 1.078.42.542 0 1.032-.196 1.47-.588.234-.205.411-.42.532-.644.122-.233.182-.532.182-.896v-4.284h1.218v7.238h-1.204v-1.12c-.354.467-.737.808-1.148 1.022-.41.215-.854.322-1.33.322-.821 0-1.418-.219-1.792-.658-.364-.448-.546-1.115-.546-2.002v-4.802Zm7.75 0h1.204v1.106c.327-.448.686-.779 1.078-.994a2.398 2.398 0 0 1 1.204-.336c.541 0 .975.117 1.302.35.336.234.583.57.742 1.008.327-.448.7-.784 1.12-1.008.42-.233.868-.35 1.344-.35.709 0 1.255.196 1.638.588.392.383.588 1.004.588 1.862v5.012h-1.218v-4.732c0-.326-.028-.597-.084-.812a1.174 1.174 0 0 0-.252-.518.766.766 0 0 0-.392-.266 1.64 1.64 0 0 0-.546-.084 2.078 2.078 0 0 0-1.358.504 1.98 1.98 0 0 0-.462.574 1.596 1.596 0 0 0-.182.77v4.564h-1.218v-4.718c0-.634-.112-1.073-.336-1.316-.215-.252-.527-.378-.938-.378-.476 0-.924.196-1.344.588-.159.15-.313.341-.462.574-.14.234-.21.546-.21.938v4.312h-1.218v-7.238Zm16.086 4.76c.102.57.303.99.602 1.26.298.262.779.392 1.442.392.616 0 1.096-.182 1.442-.546.354-.364.532-.938.532-1.722 0-.634-.154-1.143-.462-1.526-.299-.392-.798-.588-1.498-.588-.439 0-.817.07-1.134.21a2.471 2.471 0 0 0-.868.616h-1.064l.434-5.292h5.264v1.106h-4.242l-.266 3.01c.298-.224.611-.387.938-.49.326-.112.714-.168 1.162-.168.522 0 .97.084 1.344.252.382.159.69.383.924.672.242.28.42.612.532.994.112.374.168.77.168 1.19 0 1.102-.29 1.937-.868 2.506-.57.57-1.34.854-2.31.854-1.018 0-1.802-.228-2.352-.686-.542-.457-.85-1.138-.924-2.044h1.204Zm10.133 2.73c-1.111 0-1.979-.406-2.604-1.218-.616-.821-.924-2.109-.924-3.864 0-.877.084-1.638.252-2.282.168-.644.406-1.176.714-1.596a2.89 2.89 0 0 1 1.134-.924 3.464 3.464 0 0 1 1.484-.308c.551 0 1.041.103 1.47.308.439.196.807.504 1.106.924.308.42.541.952.7 1.596.159.644.238 1.405.238 2.282 0 .878-.079 1.638-.238 2.282-.159.635-.392 1.162-.7 1.582a2.92 2.92 0 0 1-1.134.924c-.439.196-.938.294-1.498.294Zm.028-1.092c.42 0 .77-.088 1.05-.266a1.94 1.94 0 0 0 .686-.784c.177-.345.303-.765.378-1.26a10.09 10.09 0 0 0 .126-1.68c0-.625-.042-1.185-.126-1.68-.075-.494-.201-.914-.378-1.26a1.835 1.835 0 0 0-.686-.784c-.28-.186-.63-.28-1.05-.28-.42 0-.775.094-1.064.28a1.925 1.925 0 0 0-.7.784 4.692 4.692 0 0 0-.378 1.26 11.3 11.3 0 0 0-.112 1.68c0 .626.037 1.186.112 1.68.084.495.21.915.378 1.26.177.336.411.598.7.784.289.178.644.266 1.064.266Zm5.051-.826h1.288l-.728 3.024h-.98l.42-3.024Zm6.043 1.918c-1.11 0-1.978-.406-2.604-1.218-.616-.821-.924-2.109-.924-3.864 0-.877.084-1.638.252-2.282.168-.644.406-1.176.714-1.596.318-.42.696-.728 1.134-.924a3.468 3.468 0 0 1 1.484-.308c.551 0 1.041.103 1.47.308.439.196.808.504 1.106.924.308.42.542.952.7 1.596.159.644.238 1.405.238 2.282 0 .878-.079 1.638-.238 2.282-.158.635-.392 1.162-.7 1.582a2.92 2.92 0 0 1-1.134.924c-.438.196-.938.294-1.498.294Zm.028-1.092c.42 0 .77-.088 1.05-.266.29-.186.518-.448.686-.784.178-.345.304-.765.378-1.26a10.09 10.09 0 0 0 .126-1.68c0-.625-.042-1.185-.126-1.68-.074-.494-.2-.914-.378-1.26a1.829 1.829 0 0 0-.686-.784c-.28-.186-.63-.28-1.05-.28-.42 0-.774.094-1.064.28a1.932 1.932 0 0 0-.7.784 4.692 4.692 0 0 0-.378 1.26 11.437 11.437 0 0 0-.112 1.68c0 .626.038 1.186.112 1.68.084.495.21.915.378 1.26.178.336.411.598.7.784.29.178.644.266 1.064.266Zm8.117 1.092c-1.11 0-1.978-.406-2.604-1.218-.616-.821-.924-2.109-.924-3.864 0-.877.084-1.638.252-2.282.168-.644.406-1.176.714-1.596.318-.42.696-.728 1.134-.924a3.468 3.468 0 0 1 1.484-.308c.551 0 1.041.103 1.47.308.439.196.808.504 1.106.924.308.42.542.952.7 1.596.159.644.238 1.405.238 2.282 0 .878-.079 1.638-.238 2.282-.158.635-.392 1.162-.7 1.582a2.92 2.92 0 0 1-1.134.924c-.438.196-.938.294-1.498.294Zm.028-1.092c.42 0 .77-.088 1.05-.266.29-.186.518-.448.686-.784.178-.345.304-.765.378-1.26a10.09 10.09 0 0 0 .126-1.68c0-.625-.042-1.185-.126-1.68-.074-.494-.2-.914-.378-1.26a1.829 1.829 0 0 0-.686-.784c-.28-.186-.63-.28-1.05-.28-.42 0-.774.094-1.064.28a1.932 1.932 0 0 0-.7.784 4.692 4.692 0 0 0-.378 1.26 11.437 11.437 0 0 0-.112 1.68c0 .626.038 1.186.112 1.68.084.495.21.915.378 1.26.178.336.411.598.7.784.29.178.644.266 1.064.266Zm8.085-9.156h6.468v1.134h-5.18v3.136h4.9v1.148h-4.9v3.444h5.446l-.21 1.134h-6.524v-9.996Zm7.962 2.758h1.218v4.564c0 .672.108 1.148.322 1.428.224.28.584.42 1.078.42.542 0 1.032-.196 1.47-.588.234-.205.411-.42.532-.644.122-.233.182-.532.182-.896v-4.284h1.218v7.238h-1.204v-1.12c-.354.467-.737.808-1.148 1.022-.41.215-.854.322-1.33.322-.821 0-1.418-.219-1.792-.658-.364-.448-.546-1.115-.546-2.002v-4.802Zm7.75 0h1.204v1.12c.271-.401.588-.709.952-.924a2.256 2.256 0 0 1 1.162-.322c.252 0 .467.019.644.056l-.154 1.134a3.379 3.379 0 0 0-.28-.042 1.624 1.624 0 0 0-.308-.028c-.224 0-.453.042-.686.126a1.801 1.801 0 0 0-.658.392 2.084 2.084 0 0 0-.49.616 1.858 1.858 0 0 0-.168.812v4.298h-1.218v-7.238Zm7.838 7.462c-.55 0-1.04-.088-1.47-.266a3.016 3.016 0 0 1-1.092-.756 3.315 3.315 0 0 1-.686-1.204 5.047 5.047 0 0 1-.238-1.596c0-.588.084-1.12.252-1.596.168-.476.406-.882.714-1.218a3.082 3.082 0 0 1 1.106-.77c.439-.186.924-.28 1.456-.28.542 0 1.027.089 1.456.266.43.178.794.434 1.092.77.308.327.542.724.7 1.19.159.467.238.994.238 1.582 0 .598-.084 1.134-.252 1.61a3.328 3.328 0 0 1-.7 1.218 3.042 3.042 0 0 1-1.106.784 3.872 3.872 0 0 1-1.47.266Zm.014-1.008c.392 0 .728-.07 1.008-.21.28-.14.509-.336.686-.588.187-.252.322-.55.406-.896.084-.354.126-.742.126-1.162 0-.41-.042-.788-.126-1.134a2.33 2.33 0 0 0-.406-.882 1.818 1.818 0 0 0-.686-.588c-.28-.14-.616-.21-1.008-.21s-.728.07-1.008.21c-.27.14-.499.336-.686.588a2.476 2.476 0 0 0-.392.882 4.864 4.864 0 0 0-.126 1.148c0 .42.042.803.126 1.148.084.346.215.644.392.896.178.252.406.448.686.588.28.14.616.21 1.008.21Z" fill="#747474"/><path stroke="#222" stroke-width="2" d="M350.989 89.648v40"/><path d="m285.515 101.728-2-3.36 8.56-5.36h4v27.64h-4.64v-22.48l-5.92 3.56Zm19.992 15.36a184.373 184.373 0 0 1 5.6-4.76c1.733-1.413 3.213-2.733 4.44-3.96 1.253-1.253 2.226-2.466 2.92-3.64a7.48 7.48 0 0 0 1.08-3.92c0-1.413-.4-2.52-1.2-3.32-.774-.826-1.84-1.24-3.2-1.24-1.654 0-2.894.36-3.72 1.08-.827.694-1.44 1.88-1.84 3.56l-4.36-.6c.24-1.066.573-2.08 1-3.04a8.037 8.037 0 0 1 1.84-2.56c.8-.746 1.773-1.333 2.92-1.76 1.173-.453 2.586-.68 4.24-.68 2.96 0 5.213.76 6.76 2.28 1.546 1.494 2.32 3.494 2.32 6 0 1.574-.294 2.987-.88 4.24-.56 1.227-1.374 2.44-2.44 3.64-1.04 1.2-2.307 2.454-3.8 3.76-1.467 1.28-3.12 2.76-4.96 4.44h12.44l-.56 4.04h-18.6V117.088Zm32.832.28c1.04 0 1.906-.24 2.6-.72.72-.506 1.293-1.213 1.72-2.12.453-.906.773-2.013.96-3.32.213-1.306.32-2.773.32-4.4 0-1.6-.107-3.053-.32-4.36-.187-1.306-.507-2.413-.96-3.32-.427-.933-1-1.64-1.72-2.12-.694-.506-1.56-.76-2.6-.76s-1.92.254-2.64.76c-.694.507-1.254 1.227-1.68 2.16-.427.907-.734 2.014-.92 3.32-.187 1.28-.28 2.72-.28 4.32 0 3.414.413 6.027 1.24 7.84.853 1.814 2.28 2.72 4.28 2.72Zm-.04 4c-1.6 0-3.04-.28-4.32-.84-1.254-.56-2.32-1.426-3.2-2.6-.88-1.2-1.56-2.72-2.04-4.56-.454-1.84-.68-4.026-.68-6.56 0-4.88.893-8.52 2.68-10.92 1.813-2.426 4.386-3.64 7.72-3.64 3.226 0 5.733 1.187 7.52 3.56 1.813 2.347 2.72 6.014 2.72 11 0 2.534-.24 4.72-.72 6.56-.454 1.814-1.134 3.32-2.04 4.52a8.285 8.285 0 0 1-3.28 2.64c-1.28.56-2.734.84-4.36.84Zm23.338-12.92c0-.213-.014-.44-.04-.68v-1.56a9.53 9.53 0 0 0 .04-.84h-2.64l.52-3.12h2.48c.24-1.386.613-2.68 1.12-3.88.533-1.226 1.213-2.293 2.04-3.2a9.157 9.157 0 0 1 3-2.12c1.173-.533 2.52-.8 4.04-.8 2.826 0 4.92.654 6.28 1.96 1.386 1.307 2.28 3.254 2.68 5.84l-4.08.68c-.374-1.653-.934-2.813-1.68-3.48-.72-.693-1.84-1.04-3.36-1.04-.8 0-1.507.16-2.12.48a4.715 4.715 0 0 0-1.56 1.28c-.454.534-.827 1.174-1.12 1.92-.294.72-.52 1.507-.68 2.36h7.88l-.56 3.12h-7.68a7.95 7.95 0 0 0-.04.8v1.56c0 .24.013.48.04.72h7.28l-.56 3.12h-6.36c.293 1.76.88 3.187 1.76 4.28.88 1.067 2.106 1.6 3.68 1.6 1.76 0 3.013-.4 3.76-1.2.773-.826 1.266-2.08 1.48-3.76h4.28c-.294 2.934-1.2 5.147-2.72 6.64-1.52 1.494-3.814 2.24-6.88 2.24-2.907 0-5.187-.84-6.84-2.52-1.627-1.706-2.68-4.133-3.16-7.28h-2.92l.52-3.12h2.12ZM107.672 189.931h6.65v1.456h-4.956v2.66h4.676v1.47h-4.676v2.954h5.222l-.196 1.456h-6.72v-9.996Zm9.627 2.716v1.064c.326-.448.69-.775 1.092-.98.41-.206.849-.308 1.316-.308 1.624 0 2.436.896 2.436 2.688v4.816h-1.596v-4.564c0-.588-.108-.999-.322-1.232-.215-.243-.532-.364-.952-.364-.28 0-.542.051-.784.154a1.758 1.758 0 0 0-.602.392 1.992 1.992 0 0 0-.406.588c-.094.214-.14.443-.14.686v4.34h-1.582v-7.28h1.54Zm5.74 1.26v-1.26h1.148v-1.96h1.582v1.96h1.806v1.26h-1.806v3.808c0 .373.075.644.224.812.159.168.388.252.686.252.159 0 .308-.01.448-.028.15-.019.294-.052.434-.098l.238 1.19a4.586 4.586 0 0 1-1.456.224c-.802 0-1.362-.206-1.68-.616-.317-.42-.476-1.046-.476-1.876v-3.668h-1.148Zm11.978 3.864c-.131.756-.453 1.344-.966 1.764-.513.41-1.251.616-2.212.616-1.157 0-2.039-.332-2.646-.994-.597-.672-.896-1.615-.896-2.828 0-.626.084-1.181.252-1.666.177-.486.42-.892.728-1.218a3.052 3.052 0 0 1 1.12-.756 3.8 3.8 0 0 1 1.442-.266c.56 0 1.045.088 1.456.266.411.168.751.41 1.022.728.271.308.471.681.602 1.12.131.429.196.91.196 1.442v.7h-5.222c.019.662.187 1.199.504 1.61.317.41.798.616 1.442.616.504 0 .882-.098 1.134-.294.252-.196.42-.476.504-.84h1.54Zm-1.456-2.198c0-.598-.14-1.069-.42-1.414-.28-.346-.728-.518-1.344-.518-.588 0-1.036.177-1.344.532-.308.345-.485.812-.532 1.4h3.64Zm4.509-2.926v1.078c.252-.383.555-.677.91-.882a2.222 2.222 0 0 1 1.134-.308c.159 0 .289.004.392.014.112.009.219.023.322.042l-.182 1.456a1.785 1.785 0 0 0-.336-.056 4.602 4.602 0 0 0-.378-.014c-.299 0-.56.051-.784.154a1.75 1.75 0 0 0-.574.378c-.149.158-.266.34-.35.546a1.668 1.668 0 0 0-.112.602v4.27h-1.582v-7.28h1.54Zm8.333 0v1.064c.327-.448.691-.775 1.092-.98.411-.206.85-.308 1.316-.308 1.624 0 2.436.896 2.436 2.688v4.816h-1.596v-4.564c0-.588-.107-.999-.322-1.232-.214-.243-.532-.364-.952-.364-.28 0-.541.051-.784.154a1.768 1.768 0 0 0-.602.392 2.01 2.01 0 0 0-.406.588c-.093.214-.14.443-.14.686v4.34h-1.582v-7.28h1.54Zm7.981 0v4.578c0 .606.098 1.022.294 1.246.205.224.513.336.924.336.224 0 .448-.042.672-.126.233-.084.439-.206.616-.364.177-.159.322-.35.434-.574.112-.224.168-.476.168-.756v-4.34h1.596v7.28h-1.554v-1.064c-.336.448-.7.774-1.092.98a2.68 2.68 0 0 1-1.26.308c-.849 0-1.461-.22-1.834-.658-.364-.439-.546-1.111-.546-2.016v-4.83h1.582Zm7.913 0v1.05c.504-.7 1.101-1.106 1.792-1.218.177-.028.364-.042.56-.042.495.018.896.144 1.204.378.308.224.532.532.672.924.644-.878 1.437-1.316 2.38-1.316.775 0 1.344.214 1.708.644.364.429.546 1.115.546 2.058v4.802h-1.596v-4.368c0-.355-.023-.649-.07-.882a1.421 1.421 0 0 0-.21-.546.61.61 0 0 0-.336-.28 1.274 1.274 0 0 0-.476-.084c-.28 0-.527.051-.742.154a1.688 1.688 0 0 0-.546.406c-.14.168-.247.359-.322.574a1.86 1.86 0 0 0-.112.644v4.382h-1.596v-4.522c0-.626-.098-1.055-.294-1.288-.187-.234-.448-.35-.784-.35-.14 0-.308.032-.504.098a1.77 1.77 0 0 0-.574.294c-.177.14-.331.326-.462.56-.131.233-.196.518-.196.854v4.354h-1.582v-7.28h1.54Zm12.042 3.878c.01.466.066.849.168 1.148.112.298.252.536.42.714.178.177.378.298.602.364.224.065.458.098.7.098.262 0 .504-.047.728-.14.224-.094.42-.238.588-.434.168-.206.299-.472.392-.798.094-.327.14-.728.14-1.204 0-.458-.051-.845-.154-1.162-.093-.327-.219-.588-.378-.784a1.387 1.387 0 0 0-.574-.448 1.652 1.652 0 0 0-.672-.14c-.345 0-.644.056-.896.168-.242.112-.443.27-.602.476a2.033 2.033 0 0 0-.35.742c-.074.28-.112.592-.112.938V196.525Zm.014-6.594v3.668c.29-.383.621-.672.994-.868.383-.206.826-.308 1.33-.308.523 0 .976.093 1.358.28.383.186.7.448.952.784s.439.742.56 1.218c.131.466.196.984.196 1.554 0 .597-.074 1.138-.224 1.624a3.521 3.521 0 0 1-.644 1.218c-.28.336-.616.597-1.008.784a3.16 3.16 0 0 1-1.316.266c-.438 0-.844-.084-1.218-.252-.373-.168-.714-.448-1.022-.84v.868h-1.54v-9.996h1.582Zm13.291 7.84c-.13.756-.452 1.344-.966 1.764-.513.41-1.25.616-2.212.616-1.157 0-2.039-.332-2.646-.994-.597-.672-.896-1.615-.896-2.828 0-.626.084-1.181.252-1.666.178-.486.42-.892.728-1.218a3.06 3.06 0 0 1 1.12-.756c.439-.178.92-.266 1.442-.266.56 0 1.046.088 1.456.266.411.168.752.41 1.022.728.271.308.472.681.602 1.12.131.429.196.91.196 1.442v.7h-5.222c.019.662.187 1.199.504 1.61.318.41.798.616 1.442.616.504 0 .882-.098 1.134-.294.252-.196.42-.476.504-.84h1.54Zm-1.456-2.198c0-.598-.14-1.069-.42-1.414-.28-.346-.728-.518-1.344-.518-.588 0-1.036.177-1.344.532-.308.345-.485.812-.532 1.4h3.64Zm4.509-2.926v1.078c.252-.383.556-.677.91-.882a2.222 2.222 0 0 1 1.134-.308c.159 0 .29.004.392.014.112.009.22.023.322.042l-.182 1.456a1.758 1.758 0 0 0-.336-.056 4.602 4.602 0 0 0-.378-.014c-.298 0-.56.051-.784.154a1.75 1.75 0 0 0-.574.378c-.149.158-.266.34-.35.546a1.69 1.69 0 0 0-.112.602v4.27h-1.582v-7.28h1.54Zm10.14 6.216c.672 0 1.162-.229 1.47-.686.317-.467.476-1.102.476-1.904 0-.794-.159-1.419-.476-1.876-.308-.458-.798-.686-1.47-.686-.672 0-1.167.233-1.484.7-.308.457-.462 1.078-.462 1.862 0 .793.149 1.423.448 1.89.308.466.807.7 1.498.7Zm-.014 1.288c-1.139 0-2.021-.336-2.646-1.008-.626-.672-.938-1.624-.938-2.856 0-.579.079-1.106.238-1.582.168-.476.406-.882.714-1.218a3.158 3.158 0 0 1 1.134-.784c.448-.187.956-.28 1.526-.28.578 0 1.092.098 1.54.294.448.186.821.448 1.12.784.308.336.536.742.686 1.218.158.466.238.98.238 1.54 0 .634-.089 1.194-.266 1.68-.178.476-.43.882-.756 1.218a3.13 3.13 0 0 1-1.134.742 4.042 4.042 0 0 1-1.456.252Zm4.373-6.244v-1.26h1.134v-.42c0-.392.056-.733.168-1.022.112-.299.266-.546.462-.742a1.98 1.98 0 0 1 .714-.462c.28-.103.583-.159.91-.168a.474.474 0 0 1 .168 0h.196c.196.018.383.037.56.056.177.018.369.06.574.126l-.238 1.19a3.114 3.114 0 0 0-.84-.126c-.299 0-.555.084-.77.252-.205.168-.308.452-.308.854v.462h1.764v1.26h-1.764v6.02h-1.596v-6.02h-1.134Zm9.605 3.794c.028.242.094.443.196.602.103.149.229.27.378.364.159.093.341.158.546.196.206.028.425.042.658.042.532 0 .915-.08 1.148-.238.234-.159.35-.392.35-.7a.89.89 0 0 0-.224-.616c-.14-.168-.434-.29-.882-.364a48.644 48.644 0 0 1-1.526-.294 4.314 4.314 0 0 1-1.106-.378 1.768 1.768 0 0 1-.672-.63c-.149-.262-.224-.612-.224-1.05 0-.336.075-.64.224-.91.15-.28.355-.514.616-.7a2.98 2.98 0 0 1 .952-.448c.374-.103.78-.154 1.218-.154.56 0 1.027.056 1.4.168.374.112.677.266.91.462.234.196.411.42.532.672.122.252.215.518.28.798l-1.428.196c-.112-.364-.284-.635-.518-.812-.224-.178-.602-.266-1.134-.266-.308 0-.56.028-.756.084a1.626 1.626 0 0 0-.476.21.737.737 0 0 0-.238.28.9.9 0 0 0-.056.308c0 .158.019.289.056.392a.53.53 0 0 0 .196.252c.103.065.238.121.406.168.168.046.378.093.63.14l.91.154c.486.084.887.191 1.204.322.327.13.584.294.77.49.196.186.332.406.406.658.075.252.112.532.112.84 0 .662-.252 1.199-.756 1.61-.504.401-1.269.602-2.296.602-.42 0-.826-.042-1.218-.126a3.169 3.169 0 0 1-1.036-.392 2.3 2.3 0 0 1-.756-.742c-.186-.318-.294-.714-.322-1.19h1.526Zm7.774-7.77v3.724c.308-.42.663-.728 1.064-.924a2.867 2.867 0 0 1 1.302-.308c1.624 0 2.436.896 2.436 2.688v4.816h-1.596v-4.564c0-.588-.107-.999-.322-1.232-.215-.243-.532-.364-.952-.364-.289 0-.555.051-.798.154a1.946 1.946 0 0 0-.602.406 1.799 1.799 0 0 0-.392.588c-.093.214-.14.438-.14.672v4.34h-1.582v-9.996h1.582Zm9.773 6.594a6.493 6.493 0 0 0-1.162.154c-.289.074-.513.172-.672.294a.834.834 0 0 0-.322.406 1.62 1.62 0 0 0-.07.49c0 .317.098.564.294.742.205.177.504.266.896.266.7 0 1.218-.178 1.554-.532.336-.355.504-.836.504-1.442v-.42l-1.022.042Zm1.05 2.45a3.409 3.409 0 0 1-.994.812c-.392.214-.868.322-1.428.322-.345 0-.667-.047-.966-.14a2.215 2.215 0 0 1-.784-.392 1.978 1.978 0 0 1-.518-.672 2.455 2.455 0 0 1-.182-.98c0-.504.112-.91.336-1.218.224-.318.513-.565.868-.742.364-.178.77-.299 1.218-.364.448-.075.896-.122 1.344-.14l1.078-.056v-.308c0-.551-.135-.929-.406-1.134-.261-.215-.607-.322-1.036-.322-.495 0-.863.084-1.106.252-.233.168-.387.41-.462.728l-1.456-.154c.131-.71.453-1.228.966-1.554.513-.327 1.218-.49 2.114-.49.579 0 1.055.074 1.428.224.383.149.686.354.91.616.224.261.378.574.462.938.093.354.14.746.14 1.176v4.55h-1.526v-.952Zm4.673-6.328v1.078c.252-.383.556-.677.91-.882a2.222 2.222 0 0 1 1.134-.308c.159 0 .29.004.392.014.112.009.22.023.322.042l-.182 1.456a1.758 1.758 0 0 0-.336-.056 4.602 4.602 0 0 0-.378-.014c-.298 0-.56.051-.784.154a1.75 1.75 0 0 0-.574.378c-.149.158-.266.34-.35.546a1.69 1.69 0 0 0-.112.602v4.27h-1.582v-7.28h1.54Zm9.902 5.124c-.131.756-.453 1.344-.966 1.764-.514.41-1.251.616-2.212.616-1.158 0-2.04-.332-2.646-.994-.598-.672-.896-1.615-.896-2.828 0-.626.084-1.181.252-1.666.177-.486.42-.892.728-1.218.317-.336.69-.588 1.12-.756a3.796 3.796 0 0 1 1.442-.266c.56 0 1.045.088 1.456.266.41.168.751.41 1.022.728.27.308.471.681.602 1.12.13.429.196.91.196 1.442v.7h-5.222c.018.662.186 1.199.504 1.61.317.41.798.616 1.442.616.504 0 .882-.098 1.134-.294.252-.196.42-.476.504-.84h1.54Zm-1.456-2.198c0-.598-.14-1.069-.42-1.414-.28-.346-.728-.518-1.344-.518-.588 0-1.036.177-1.344.532-.308.345-.486.812-.532 1.4h3.64Zm4.061 2.128c.028.242.093.443.196.602.103.149.229.27.378.364.159.093.341.158.546.196.205.028.425.042.658.042.532 0 .915-.08 1.148-.238.233-.159.35-.392.35-.7a.895.895 0 0 0-.224-.616c-.14-.168-.434-.29-.882-.364a48.089 48.089 0 0 1-1.526-.294 4.3 4.3 0 0 1-1.106-.378 1.754 1.754 0 0 1-.672-.63c-.149-.262-.224-.612-.224-1.05 0-.336.075-.64.224-.91a2.01 2.01 0 0 1 .616-.7 2.98 2.98 0 0 1 .952-.448 4.564 4.564 0 0 1 1.218-.154c.56 0 1.027.056 1.4.168.373.112.677.266.91.462.233.196.411.42.532.672.121.252.215.518.28.798l-1.428.196c-.112-.364-.285-.635-.518-.812-.224-.178-.602-.266-1.134-.266-.308 0-.56.028-.756.084a1.614 1.614 0 0 0-.476.21.737.737 0 0 0-.238.28.9.9 0 0 0-.056.308c0 .158.019.289.056.392a.525.525 0 0 0 .196.252c.103.065.238.121.406.168.168.046.378.093.63.14l.91.154a5.8 5.8 0 0 1 1.204.322c.327.13.583.294.77.49.196.186.331.406.406.658.075.252.112.532.112.84 0 .662-.252 1.199-.756 1.61-.504.401-1.269.602-2.296.602-.42 0-.826-.042-1.218-.126a3.16 3.16 0 0 1-1.036-.392 2.3 2.3 0 0 1-.756-.742c-.187-.318-.294-.714-.322-1.19h1.526Z" fill="#222"/><path d="m369.219 189.926 6 6-6 6" stroke="#222" stroke-width="2"/><path stroke="#E2E2E2" d="M98.989 173.867h283"/><g clip-path="url(#c)"><rect x="106.608" y="220.645" width="267" height="53" rx="4" fill="#F6F9FC"/><path d="M106.608 220.645h88v56h-88v-56Z" fill="#F5F5F5"/><path d="m219.818 234.023-.7-1.176 2.996-1.876h1.4v9.674h-1.624v-7.868l-2.072 1.246Zm10.413 5.474c.364 0 .667-.084.91-.252.252-.178.453-.425.602-.742a3.79 3.79 0 0 0 .336-1.162c.075-.458.112-.971.112-1.54 0-.56-.037-1.069-.112-1.526-.065-.458-.177-.845-.336-1.162-.149-.327-.35-.574-.602-.742-.243-.178-.546-.266-.91-.266s-.672.088-.924.266a1.866 1.866 0 0 0-.588.756 4.088 4.088 0 0 0-.322 1.162c-.065.448-.098.952-.098 1.512 0 1.194.145 2.109.434 2.744.299.634.798.952 1.498.952Zm-.014 1.4c-.56 0-1.064-.098-1.512-.294a2.837 2.837 0 0 1-1.12-.91c-.308-.42-.546-.952-.714-1.596-.159-.644-.238-1.41-.238-2.296 0-1.708.313-2.982.938-3.822.635-.85 1.535-1.274 2.702-1.274 1.129 0 2.007.415 2.632 1.246.635.821.952 2.104.952 3.85 0 .886-.084 1.652-.252 2.296-.159.634-.397 1.162-.714 1.582-.308.41-.691.718-1.148.924-.448.196-.957.294-1.526.294Zm8.229-1.4c.364 0 .667-.084.91-.252.252-.178.453-.425.602-.742a3.79 3.79 0 0 0 .336-1.162c.075-.458.112-.971.112-1.54 0-.56-.037-1.069-.112-1.526-.065-.458-.177-.845-.336-1.162-.149-.327-.35-.574-.602-.742-.243-.178-.546-.266-.91-.266s-.672.088-.924.266a1.866 1.866 0 0 0-.588.756 4.088 4.088 0 0 0-.322 1.162c-.065.448-.098.952-.098 1.512 0 1.194.145 2.109.434 2.744.299.634.798.952 1.498.952Zm-.014 1.4c-.56 0-1.064-.098-1.512-.294a2.837 2.837 0 0 1-1.12-.91c-.308-.42-.546-.952-.714-1.596-.159-.644-.238-1.41-.238-2.296 0-1.708.313-2.982.938-3.822.635-.85 1.535-1.274 2.702-1.274 1.129 0 2.007.415 2.632 1.246.635.821.952 2.104.952 3.85 0 .886-.084 1.652-.252 2.296-.159.634-.397 1.162-.714 1.582-.308.41-.691.718-1.148.924-.448.196-.957.294-1.526.294Zm6.647-2.212-.812 3.29h-1.232l.448-3.29h1.596Zm4.752.812c.364 0 .668-.084.91-.252.252-.178.453-.425.602-.742a3.79 3.79 0 0 0 .336-1.162c.075-.458.112-.971.112-1.54 0-.56-.037-1.069-.112-1.526-.065-.458-.177-.845-.336-1.162-.149-.327-.35-.574-.602-.742-.242-.178-.546-.266-.91-.266s-.672.088-.924.266a1.883 1.883 0 0 0-.588.756 4.121 4.121 0 0 0-.322 1.162c-.065.448-.098.952-.098 1.512 0 1.194.145 2.109.434 2.744.299.634.798.952 1.498.952Zm-.014 1.4c-.56 0-1.064-.098-1.512-.294a2.844 2.844 0 0 1-1.12-.91c-.308-.42-.546-.952-.714-1.596-.158-.644-.238-1.41-.238-2.296 0-1.708.313-2.982.938-3.822.635-.85 1.536-1.274 2.702-1.274 1.13 0 2.007.415 2.632 1.246.635.821.952 2.104.952 3.85 0 .886-.084 1.652-.252 2.296-.158.634-.396 1.162-.714 1.582-.308.41-.69.718-1.148.924-.448.196-.956.294-1.526.294Zm8.23-1.4c.364 0 .667-.084.91-.252.252-.178.452-.425.602-.742.158-.318.27-.705.336-1.162.074-.458.112-.971.112-1.54 0-.56-.038-1.069-.112-1.526-.066-.458-.178-.845-.336-1.162-.15-.327-.35-.574-.602-.742-.243-.178-.546-.266-.91-.266s-.672.088-.924.266a1.866 1.866 0 0 0-.588.756c-.15.317-.257.704-.322 1.162-.066.448-.098.952-.098 1.512 0 1.194.144 2.109.434 2.744.298.634.798.952 1.498.952Zm-.014 1.4c-.56 0-1.064-.098-1.512-.294a2.837 2.837 0 0 1-1.12-.91c-.308-.42-.546-.952-.714-1.596-.159-.644-.238-1.41-.238-2.296 0-1.708.312-2.982.938-3.822.634-.85 1.535-1.274 2.702-1.274 1.129 0 2.006.415 2.632 1.246.634.821.952 2.104.952 3.85 0 .886-.084 1.652-.252 2.296-.159.634-.397 1.162-.714 1.582-.308.41-.691.718-1.148.924-.448.196-.957.294-1.526.294Zm8.21-10.248h6.65v1.456h-4.956v2.66h4.676v1.47h-4.676v2.954h5.222l-.196 1.456h-6.72v-9.996Zm9.683 2.716v4.578c0 .606.098 1.022.294 1.246.205.224.513.336.924.336.224 0 .448-.042.672-.126.233-.084.438-.206.616-.364.177-.159.322-.35.434-.574.112-.224.168-.476.168-.756v-4.34h1.596v7.28h-1.554v-1.064c-.336.448-.7.774-1.092.98a2.68 2.68 0 0 1-1.26.308c-.85 0-1.461-.22-1.834-.658-.364-.439-.546-1.111-.546-2.016v-4.83h1.582Zm7.983 0v1.078c.252-.383.555-.677.91-.882a2.222 2.222 0 0 1 1.134-.308c.159 0 .289.004.392.014.112.009.219.023.322.042l-.182 1.456a1.785 1.785 0 0 0-.336-.056 4.602 4.602 0 0 0-.378-.014c-.299 0-.56.051-.784.154a1.75 1.75 0 0 0-.574.378c-.149.158-.266.34-.35.546a1.668 1.668 0 0 0-.112.602v4.27h-1.582v-7.28h1.54Zm6.849 6.216c.672 0 1.162-.229 1.47-.686.317-.467.476-1.102.476-1.904 0-.794-.159-1.419-.476-1.876-.308-.458-.798-.686-1.47-.686-.672 0-1.167.233-1.484.7-.308.457-.462 1.078-.462 1.862 0 .793.149 1.423.448 1.89.308.466.807.7 1.498.7Zm-.014 1.288c-1.139 0-2.021-.336-2.646-1.008-.625-.672-.938-1.624-.938-2.856 0-.579.079-1.106.238-1.582.168-.476.406-.882.714-1.218a3.158 3.158 0 0 1 1.134-.784c.448-.187.957-.28 1.526-.28.579 0 1.092.098 1.54.294.448.186.821.448 1.12.784.308.336.537.742.686 1.218.159.466.238.98.238 1.54 0 .634-.089 1.194-.266 1.68a3.44 3.44 0 0 1-.756 1.218 3.113 3.113 0 0 1-1.134.742 4.042 4.042 0 0 1-1.456.252Z" fill="#000"/><path d="M218.913 251.363h6.006v1.053h-4.81v2.912h4.55v1.066h-4.55v3.198h5.057l-.195 1.053h-6.058v-9.282Zm8.225 7.319c.078.468.273.797.585.988.321.182.754.273 1.3.273.572 0 .975-.096 1.209-.286.243-.2.364-.46.364-.78 0-.13-.017-.252-.052-.364a.606.606 0 0 0-.169-.312 1.052 1.052 0 0 0-.364-.247 2.579 2.579 0 0 0-.611-.169l-.858-.13a6.422 6.422 0 0 1-1.001-.234 2.636 2.636 0 0 1-.728-.364 1.573 1.573 0 0 1-.455-.559 2.07 2.07 0 0 1-.143-.806c0-.312.065-.59.195-.832.139-.243.325-.447.559-.611.243-.174.525-.304.845-.39a3.8 3.8 0 0 1 1.066-.143c.486 0 .889.047 1.209.143.33.095.598.225.806.39.208.164.369.359.481.585.113.225.2.463.26.715l-1.027.169a2.694 2.694 0 0 0-.208-.481.965.965 0 0 0-.312-.338 1.267 1.267 0 0 0-.481-.208 2.553 2.553 0 0 0-.689-.078c-.312 0-.572.03-.78.091a1.432 1.432 0 0 0-.507.221.856.856 0 0 0-.338.689c0 .138.018.264.052.377.035.104.1.199.195.286.096.078.226.147.39.208.165.06.377.112.637.156l.975.156c.789.13 1.352.355 1.69.676.347.32.52.788.52 1.404 0 .286-.056.55-.169.793a1.798 1.798 0 0 1-.507.624 2.488 2.488 0 0 1-.845.403 4.033 4.033 0 0 1-1.183.156c-.407 0-.788-.039-1.144-.117a3.049 3.049 0 0 1-.923-.364 2.04 2.04 0 0 1-.65-.676c-.164-.278-.26-.616-.286-1.014h1.092Zm6.389-3.861h-1.04v-.897h1.04v-1.833h1.131v1.833h1.781v.897h-1.781v3.939c0 .329.074.593.221.793.148.199.373.299.676.299a2.71 2.71 0 0 0 .897-.143l.195.871a3.54 3.54 0 0 1-.572.143 3.427 3.427 0 0 1-.715.065c-.381 0-.689-.057-.923-.169a1.378 1.378 0 0 1-.559-.481 1.959 1.959 0 0 1-.286-.741 6.31 6.31 0 0 1-.065-.936v-3.64Zm4.078-.897h1.131v6.721h-1.131v-6.721Zm-.039-2.561h1.209v1.313h-1.209v-1.313Zm2.868 2.561h1.118v1.027c.304-.416.637-.724 1.001-.923a2.229 2.229 0 0 1 1.118-.312c.503 0 .906.108 1.209.325.312.216.542.528.689.936.304-.416.65-.728 1.04-.936.39-.217.806-.325 1.248-.325.659 0 1.166.182 1.521.546.364.355.546.931.546 1.729v4.654h-1.131v-4.394c0-.304-.026-.555-.078-.754a1.083 1.083 0 0 0-.234-.481.696.696 0 0 0-.364-.247 1.517 1.517 0 0 0-.507-.078c-.199 0-.407.034-.624.104a1.9 1.9 0 0 0-1.066.897 1.484 1.484 0 0 0-.169.715v4.238h-1.131v-4.381c0-.59-.104-.997-.312-1.222-.199-.234-.489-.351-.871-.351-.442 0-.858.182-1.248.546-.147.138-.29.316-.429.533-.13.216-.195.507-.195.871v4.004h-1.131v-6.721Zm15.319 5.798c-.243.294-.551.55-.923.767-.373.208-.837.312-1.391.312-.338 0-.65-.044-.936-.13a2.06 2.06 0 0 1-.728-.364 1.81 1.81 0 0 1-.468-.637 2.142 2.142 0 0 1-.169-.884c0-.46.095-.832.286-1.118.199-.286.459-.512.78-.676a3.9 3.9 0 0 1 1.105-.351c.407-.07.827-.113 1.261-.13l1.157-.039v-.26c0-.572-.122-.984-.364-1.235-.243-.252-.637-.377-1.183-.377-.538 0-.932.091-1.183.273a1.203 1.203 0 0 0-.494.728l-1.027-.117c.121-.616.411-1.062.871-1.339.459-.286 1.083-.429 1.872-.429.485 0 .892.06 1.222.182.338.112.611.277.819.494.208.216.355.485.442.806.095.32.143.68.143 1.079v4.368h-1.092v-.923Zm-.026-2.444-1.079.039c-.46.017-.841.06-1.144.13-.304.069-.546.164-.728.286a.983.983 0 0 0-.377.429c-.07.173-.104.372-.104.598 0 .338.099.611.299.819.208.199.546.299 1.014.299.667 0 1.187-.165 1.56-.494.372-.33.559-.78.559-1.352v-.754Zm3.16-2.457h-1.04v-.897h1.04v-1.833h1.131v1.833h1.781v.897h-1.781v3.939c0 .329.073.593.221.793.147.199.372.299.676.299.19 0 .355-.013.494-.039.147-.026.281-.061.403-.104l.195.871c-.174.06-.364.108-.572.143a3.44 3.44 0 0 1-.715.065c-.382 0-.689-.057-.923-.169a1.372 1.372 0 0 1-.559-.481 1.942 1.942 0 0 1-.286-.741 6.178 6.178 0 0 1-.065-.936v-3.64Zm9.634 3.939c-.113.65-.403 1.161-.871 1.534-.459.372-1.122.559-1.989.559-1.023 0-1.807-.308-2.353-.923-.546-.624-.819-1.491-.819-2.6 0-.581.078-1.097.234-1.547.156-.451.373-.828.65-1.131a2.804 2.804 0 0 1 1.014-.689c.39-.165.815-.247 1.274-.247.52 0 .966.082 1.339.247.373.164.676.394.91.689.243.286.42.628.533 1.027a4.5 4.5 0 0 1 .182 1.313v.572h-4.992c0 .338.043.654.13.949.095.286.225.537.39.754.173.208.386.372.637.494.251.121.542.182.871.182.563 0 .975-.104 1.235-.312.26-.217.438-.507.533-.871h1.092Zm-1.027-2.041c0-.321-.035-.611-.104-.871a1.759 1.759 0 0 0-.325-.663 1.45 1.45 0 0 0-.572-.442 2.073 2.073 0 0 0-.845-.156c-.598 0-1.066.182-1.404.546-.329.364-.524.892-.585 1.586h3.835Zm7.453 2.964a3.15 3.15 0 0 1-.962.871c-.364.199-.793.299-1.287.299-.494 0-.923-.091-1.287-.273a2.534 2.534 0 0 1-.884-.741 3.322 3.322 0 0 1-.52-1.131 5.5 5.5 0 0 1-.169-1.391c0-.555.069-1.053.208-1.495a3.4 3.4 0 0 1 .585-1.144c.26-.312.572-.551.936-.715a3.084 3.084 0 0 1 1.261-.247c.355 0 .715.073 1.079.221.364.138.702.407 1.014.806v-3.38h1.131v9.282h-1.105v-.962Zm.013-2.6c0-.538-.061-.954-.182-1.248a1.707 1.707 0 0 0-.572-.767 1.713 1.713 0 0 0-.585-.325 2.086 2.086 0 0 0-.637-.091c-.277 0-.537.047-.78.143a1.597 1.597 0 0 0-.624.468 2.348 2.348 0 0 0-.416.819c-.095.329-.143.732-.143 1.209 0 .494.052.91.156 1.248.113.338.256.606.429.806.182.199.381.342.598.429.225.086.455.13.689.13.251 0 .477-.031.676-.091a2 2 0 0 0 .598-.312c.26-.208.455-.468.585-.78.139-.312.208-.707.208-1.183v-.455Zm8.624 3.77c-.512 0-.967-.083-1.365-.247a2.806 2.806 0 0 1-1.014-.702 3.061 3.061 0 0 1-.637-1.118 4.65 4.65 0 0 1-.221-1.482c0-.546.078-1.04.234-1.482.156-.442.377-.819.663-1.131a2.84 2.84 0 0 1 1.027-.715c.407-.174.858-.26 1.352-.26.502 0 .953.082 1.352.247.398.164.736.403 1.014.715.286.303.502.671.65 1.105.147.433.221.923.221 1.469 0 .554-.078 1.053-.234 1.495a3.108 3.108 0 0 1-.65 1.131c-.278.312-.62.554-1.027.728a3.63 3.63 0 0 1-1.365.247Zm.013-.936c.364 0 .676-.065.936-.195s.472-.312.637-.546a2.3 2.3 0 0 0 .377-.832c.078-.33.117-.689.117-1.079 0-.382-.039-.733-.117-1.053a2.163 2.163 0 0 0-.377-.819 1.693 1.693 0 0 0-.637-.546c-.26-.13-.572-.195-.936-.195-.364 0-.676.065-.936.195-.252.13-.464.312-.637.546a2.278 2.278 0 0 0-.364.819c-.078.32-.117.676-.117 1.066s.039.745.117 1.066c.078.32.199.598.364.832.164.234.377.416.637.546.26.13.572.195.936.195Zm4.713-5.993h1.118v1.04a2.77 2.77 0 0 1 .884-.858c.338-.2.698-.299 1.079-.299.234 0 .434.017.598.052l-.143 1.053a2.297 2.297 0 0 0-.26-.039 1.407 1.407 0 0 0-.286-.026c-.208 0-.42.039-.637.117-.216.069-.42.19-.611.364-.19.164-.342.355-.455.572a1.721 1.721 0 0 0-.156.754v3.991h-1.131v-6.721Zm9.216 5.759a3.15 3.15 0 0 1-.962.871c-.364.199-.793.299-1.287.299-.494 0-.923-.091-1.287-.273a2.534 2.534 0 0 1-.884-.741 3.322 3.322 0 0 1-.52-1.131 5.5 5.5 0 0 1-.169-1.391c0-.555.069-1.053.208-1.495a3.4 3.4 0 0 1 .585-1.144c.26-.312.572-.551.936-.715a3.084 3.084 0 0 1 1.261-.247c.355 0 .715.073 1.079.221.364.138.702.407 1.014.806v-3.38h1.131v9.282h-1.105v-.962Zm.013-2.6c0-.538-.061-.954-.182-1.248a1.707 1.707 0 0 0-.572-.767 1.713 1.713 0 0 0-.585-.325 2.086 2.086 0 0 0-.637-.091c-.277 0-.537.047-.78.143a1.597 1.597 0 0 0-.624.468 2.348 2.348 0 0 0-.416.819c-.095.329-.143.732-.143 1.209 0 .494.052.91.156 1.248.113.338.256.606.429.806.182.199.381.342.598.429.225.086.455.13.689.13.251 0 .477-.031.676-.091a2 2 0 0 0 .598-.312c.26-.208.455-.468.585-.78.139-.312.208-.707.208-1.183v-.455Zm8.589 1.677c-.113.65-.403 1.161-.871 1.534-.459.372-1.122.559-1.989.559-1.023 0-1.807-.308-2.353-.923-.546-.624-.819-1.491-.819-2.6 0-.581.078-1.097.234-1.547.156-.451.373-.828.65-1.131a2.804 2.804 0 0 1 1.014-.689c.39-.165.815-.247 1.274-.247.52 0 .966.082 1.339.247.373.164.676.394.91.689.243.286.42.628.533 1.027a4.5 4.5 0 0 1 .182 1.313v.572h-4.992c0 .338.043.654.13.949.095.286.225.537.39.754.173.208.386.372.637.494.251.121.542.182.871.182.563 0 .975-.104 1.235-.312.26-.217.438-.507.533-.871h1.092Zm-1.027-2.041c0-.321-.035-.611-.104-.871a1.759 1.759 0 0 0-.325-.663 1.45 1.45 0 0 0-.572-.442 2.073 2.073 0 0 0-.845-.156c-.598 0-1.066.182-1.404.546-.329.364-.524.892-.585 1.586h3.835Zm2.565-2.795h1.118v1.04a2.76 2.76 0 0 1 .884-.858c.338-.2.698-.299 1.079-.299.234 0 .433.017.598.052l-.143 1.053a2.332 2.332 0 0 0-.26-.039 1.414 1.414 0 0 0-.286-.026c-.208 0-.42.039-.637.117-.217.069-.42.19-.611.364a1.911 1.911 0 0 0-.455.572 1.721 1.721 0 0 0-.156.754v3.991h-1.131v-6.721Zm6.58 0h1.313l2.002 5.46 2.041-5.46h1.248l-2.704 6.721h-1.209l-2.691-6.721Zm10.384 6.929c-.512 0-.967-.083-1.365-.247a2.806 2.806 0 0 1-1.014-.702 3.061 3.061 0 0 1-.637-1.118 4.65 4.65 0 0 1-.221-1.482c0-.546.078-1.04.234-1.482.156-.442.377-.819.663-1.131a2.84 2.84 0 0 1 1.027-.715c.407-.174.858-.26 1.352-.26.502 0 .953.082 1.352.247.398.164.736.403 1.014.715.286.303.502.671.65 1.105.147.433.221.923.221 1.469 0 .554-.078 1.053-.234 1.495a3.108 3.108 0 0 1-.65 1.131c-.278.312-.62.554-1.027.728a3.63 3.63 0 0 1-1.365.247Zm.013-.936c.364 0 .676-.065.936-.195s.472-.312.637-.546a2.3 2.3 0 0 0 .377-.832c.078-.33.117-.689.117-1.079 0-.382-.039-.733-.117-1.053a2.163 2.163 0 0 0-.377-.819 1.693 1.693 0 0 0-.637-.546c-.26-.13-.572-.195-.936-.195-.364 0-.676.065-.936.195-.252.13-.464.312-.637.546a2.278 2.278 0 0 0-.364.819c-.078.32-.117.676-.117 1.066s.039.745.117 1.066c.078.32.199.598.364.832.164.234.377.416.637.546.26.13.572.195.936.195Zm4.739-8.554h1.131v9.282h-1.131v-9.282Zm2.79 2.561h1.131v4.238c0 .624.1 1.066.299 1.326.208.26.542.39 1.001.39.503 0 .958-.182 1.365-.546.217-.191.382-.39.494-.598.113-.217.169-.494.169-.832v-3.978h1.131v6.721h-1.118v-1.04c-.329.433-.684.749-1.066.949a2.63 2.63 0 0 1-1.235.299c-.762 0-1.317-.204-1.664-.611-.338-.416-.507-1.036-.507-1.859v-4.459Zm7.261 0h1.118v1.027c.304-.416.637-.724 1.001-.923a2.229 2.229 0 0 1 1.118-.312c.503 0 .906.108 1.209.325.312.216.542.528.689.936.304-.416.65-.728 1.04-.936.39-.217.806-.325 1.248-.325.659 0 1.166.182 1.521.546.364.355.546.931.546 1.729v4.654h-1.131v-4.394c0-.304-.026-.555-.078-.754a1.083 1.083 0 0 0-.234-.481.696.696 0 0 0-.364-.247 1.517 1.517 0 0 0-.507-.078c-.199 0-.407.034-.624.104a1.9 1.9 0 0 0-1.066.897 1.484 1.484 0 0 0-.169.715v4.238h-1.131v-4.381c0-.59-.104-.997-.312-1.222-.199-.234-.489-.351-.871-.351-.442 0-.858.182-1.248.546-.147.138-.29.316-.429.533-.13.216-.195.507-.195.871v4.004h-1.131v-6.721Zm16.944 4.836c-.113.65-.403 1.161-.871 1.534-.46.372-1.123.559-1.989.559-1.023 0-1.807-.308-2.353-.923-.546-.624-.819-1.491-.819-2.6 0-.581.078-1.097.234-1.547.156-.451.372-.828.65-1.131a2.804 2.804 0 0 1 1.014-.689c.39-.165.814-.247 1.274-.247.52 0 .966.082 1.339.247.372.164.676.394.91.689.242.286.42.628.533 1.027a4.5 4.5 0 0 1 .182 1.313v.572h-4.992c0 .338.043.654.13.949.095.286.225.537.39.754.173.208.385.372.637.494.251.121.541.182.871.182.563 0 .975-.104 1.235-.312.26-.217.437-.507.533-.871h1.092Zm-1.027-2.041c0-.321-.035-.611-.104-.871a1.773 1.773 0 0 0-.325-.663 1.457 1.457 0 0 0-.572-.442 2.073 2.073 0 0 0-.845-.156c-.598 0-1.066.182-1.404.546-.33.364-.525.892-.585 1.586h3.835Z" fill="#747474"/><path d="M123.518 241.637c.354-.318.737-.654 1.148-1.008.41-.355.826-.719 1.246-1.092.448-.392.84-.747 1.176-1.064.336-.327.616-.64.84-.938a3.54 3.54 0 0 0 .504-.91 2.89 2.89 0 0 0 .168-.994c0-.588-.159-1.036-.476-1.344-.318-.318-.761-.476-1.33-.476-.346 0-.64.037-.882.112a1.617 1.617 0 0 0-.616.336 1.71 1.71 0 0 0-.42.532 4.89 4.89 0 0 0-.28.756l-1.162-.182c.084-.336.2-.663.35-.98.149-.318.354-.598.616-.84.261-.252.588-.453.98-.602.392-.159.872-.238 1.442-.238.494 0 .933.07 1.316.21.382.14.7.336.952.588.261.242.457.536.588.882.14.345.21.728.21 1.148 0 .42-.061.812-.182 1.176-.112.364-.29.723-.532 1.078a7.897 7.897 0 0 1-.924 1.092c-.374.373-.817.779-1.33 1.218-.271.233-.551.471-.84.714-.28.233-.556.471-.826.714h4.732l-.182 1.12h-6.286v-1.008Z" fill="#000"/><path d="M124.311 258.006c.104.65.359 1.122.767 1.417.416.286 1.031.429 1.846.429.407 0 .745-.044 1.014-.13.277-.096.498-.217.663-.364.164-.156.281-.334.351-.533.069-.208.104-.425.104-.65 0-.182-.022-.356-.065-.52a1.048 1.048 0 0 0-.26-.468 1.538 1.538 0 0 0-.52-.364 3.28 3.28 0 0 0-.845-.247l-1.17-.208a6.939 6.939 0 0 1-1.222-.312 3.242 3.242 0 0 1-.91-.494 2.066 2.066 0 0 1-.559-.767c-.122-.304-.182-.672-.182-1.105 0-.425.086-.798.26-1.118.182-.321.424-.59.728-.806a3.142 3.142 0 0 1 1.079-.481 5.56 5.56 0 0 1 1.352-.156c.615 0 1.126.069 1.534.208.416.13.754.307 1.014.533.26.225.455.485.585.78.138.286.242.58.312.884l-1.118.221c-.07-.26-.161-.49-.273-.689a1.358 1.358 0 0 0-.429-.507 1.742 1.742 0 0 0-.65-.312 3.706 3.706 0 0 0-.949-.104c-.425 0-.78.039-1.066.117a1.88 1.88 0 0 0-.689.325 1.12 1.12 0 0 0-.377.481c-.07.182-.104.377-.104.585 0 .225.026.424.078.598.06.164.156.312.286.442.138.121.316.225.533.312.216.078.485.147.806.208l1.3.234c.962.182 1.668.485 2.119.91.45.416.676 1.031.676 1.846 0 .372-.074.723-.221 1.053a2.31 2.31 0 0 1-.637.845 3.01 3.01 0 0 1-1.053.572c-.425.138-.923.208-1.495.208a6.193 6.193 0 0 1-1.495-.169 3.263 3.263 0 0 1-1.157-.507 2.628 2.628 0 0 1-.793-.897c-.2-.364-.321-.798-.364-1.3h1.196Zm7.456-6.643h1.131v3.562c.33-.425.689-.733 1.079-.923a2.883 2.883 0 0 1 1.261-.286c.763 0 1.326.208 1.69.624.373.416.559 1.027.559 1.833v4.472h-1.144v-4.251c0-.624-.112-1.062-.338-1.313-.216-.26-.559-.39-1.027-.39-.251 0-.502.043-.754.13a1.856 1.856 0 0 0-.663.416c-.216.19-.381.394-.494.611-.112.208-.169.481-.169.819v3.978h-1.131v-9.282Zm11.535 8.359c-.242.294-.55.55-.923.767-.372.208-.836.312-1.391.312-.338 0-.65-.044-.936-.13-.277-.078-.52-.2-.728-.364a1.834 1.834 0 0 1-.468-.637 2.158 2.158 0 0 1-.169-.884c0-.46.096-.832.286-1.118.2-.286.46-.512.78-.676.33-.165.698-.282 1.105-.351.408-.07.828-.113 1.261-.13l1.157-.039v-.26c0-.572-.121-.984-.364-1.235-.242-.252-.637-.377-1.183-.377-.537 0-.931.091-1.183.273a1.208 1.208 0 0 0-.494.728l-1.027-.117c.122-.616.412-1.062.871-1.339.46-.286 1.084-.429 1.872-.429.486 0 .893.06 1.222.182.338.112.611.277.819.494.208.216.356.485.442.806.096.32.143.68.143 1.079v4.368h-1.092v-.923Zm-.026-2.444-1.079.039c-.459.017-.84.06-1.144.13-.303.069-.546.164-.728.286a.989.989 0 0 0-.377.429 1.604 1.604 0 0 0-.104.598c0 .338.1.611.299.819.208.199.546.299 1.014.299.668 0 1.188-.165 1.56-.494.373-.33.559-.78.559-1.352v-.754Zm2.77-3.354h1.118v1.04a2.77 2.77 0 0 1 .884-.858c.338-.2.698-.299 1.079-.299.234 0 .434.017.598.052l-.143 1.053a2.297 2.297 0 0 0-.26-.039 1.407 1.407 0 0 0-.286-.026c-.208 0-.42.039-.637.117-.216.069-.42.19-.611.364-.19.164-.342.355-.455.572a1.721 1.721 0 0 0-.156.754v3.991h-1.131v-6.721Zm10.139 4.836c-.113.65-.403 1.161-.871 1.534-.459.372-1.122.559-1.989.559-1.023 0-1.807-.308-2.353-.923-.546-.624-.819-1.491-.819-2.6 0-.581.078-1.097.234-1.547.156-.451.373-.828.65-1.131a2.804 2.804 0 0 1 1.014-.689c.39-.165.815-.247 1.274-.247.52 0 .966.082 1.339.247.373.164.676.394.91.689.243.286.42.628.533 1.027a4.5 4.5 0 0 1 .182 1.313v.572h-4.992c0 .338.043.654.13.949.095.286.225.537.39.754.173.208.386.372.637.494.251.121.542.182.871.182.563 0 .975-.104 1.235-.312.26-.217.438-.507.533-.871h1.092Zm-1.027-2.041c0-.321-.035-.611-.104-.871a1.759 1.759 0 0 0-.325-.663 1.45 1.45 0 0 0-.572-.442 2.073 2.073 0 0 0-.845-.156c-.598 0-1.066.182-1.404.546-.329.364-.524.892-.585 1.586h3.835Zm3.293 1.963c.078.468.273.797.585.988.321.182.754.273 1.3.273.572 0 .975-.096 1.209-.286.243-.2.364-.46.364-.78 0-.13-.017-.252-.052-.364a.606.606 0 0 0-.169-.312 1.062 1.062 0 0 0-.364-.247 2.593 2.593 0 0 0-.611-.169l-.858-.13a6.422 6.422 0 0 1-1.001-.234 2.622 2.622 0 0 1-.728-.364 1.573 1.573 0 0 1-.455-.559 2.07 2.07 0 0 1-.143-.806c0-.312.065-.59.195-.832.139-.243.325-.447.559-.611.243-.174.524-.304.845-.39a3.795 3.795 0 0 1 1.066-.143c.485 0 .888.047 1.209.143.329.095.598.225.806.39.208.164.368.359.481.585.113.225.199.463.26.715l-1.027.169a2.768 2.768 0 0 0-.208-.481.965.965 0 0 0-.312-.338 1.267 1.267 0 0 0-.481-.208 2.559 2.559 0 0 0-.689-.078c-.312 0-.572.03-.78.091a1.432 1.432 0 0 0-.507.221.856.856 0 0 0-.338.689c0 .138.017.264.052.377.035.104.1.199.195.286.095.078.225.147.39.208.165.06.377.112.637.156l.975.156c.789.13 1.352.355 1.69.676.347.32.52.788.52 1.404 0 .286-.056.55-.169.793a1.82 1.82 0 0 1-.507.624 2.488 2.488 0 0 1-.845.403 4.033 4.033 0 0 1-1.183.156 5.33 5.33 0 0 1-1.144-.117 3.039 3.039 0 0 1-.923-.364 2.03 2.03 0 0 1-.65-.676c-.165-.278-.26-.616-.286-1.014h1.092Z" fill="#747474"/></g><rect x="107.108" y="221.145" width="266" height="52" rx="3.5" stroke="#E2E2E2"/><rect x="106.608" y="286.64" width="267" height="36" rx="18" fill="#222"/><path d="M218.991 297.644h3.276c.747 0 1.358.084 1.834.252.476.168.85.387 1.12.658.28.261.472.56.574.896.103.336.154.677.154 1.022 0 .635-.135 1.176-.406 1.624-.261.448-.695.798-1.302 1.05l2.1 4.494h-1.442l-1.89-4.186a4.327 4.327 0 0 1-.392.042h-2.352v4.144h-1.274v-9.996Zm3.402 4.746c.448 0 .817-.042 1.106-.126.29-.093.518-.219.686-.378a1.35 1.35 0 0 0 .35-.602 2.88 2.88 0 0 0 .098-.784c0-.28-.037-.527-.112-.742a1.18 1.18 0 0 0-.392-.546c-.177-.159-.42-.275-.728-.35-.308-.084-.7-.126-1.176-.126h-1.96v3.654h2.128Zm11.011 3.22c-.121.7-.434 1.251-.938 1.652-.494.401-1.208.602-2.142.602-1.101 0-1.946-.331-2.534-.994-.588-.672-.882-1.605-.882-2.8 0-.625.084-1.181.252-1.666.168-.485.402-.891.7-1.218a3.024 3.024 0 0 1 1.092-.742 3.5 3.5 0 0 1 1.372-.266c.56 0 1.041.089 1.442.266.402.177.728.425.98.742.262.308.453.677.574 1.106.131.429.196.901.196 1.414v.616h-5.376c0 .364.047.705.14 1.022.103.308.243.579.42.812.187.224.416.401.686.532.271.131.584.196.938.196.607 0 1.05-.112 1.33-.336a1.76 1.76 0 0 0 .574-.938h1.176Zm-1.106-2.198c0-.345-.037-.658-.112-.938a1.88 1.88 0 0 0-.35-.714 1.565 1.565 0 0 0-.616-.476 2.23 2.23 0 0 0-.91-.168c-.644 0-1.148.196-1.512.588-.354.392-.564.961-.63 1.708h4.13Zm1.853-3.01h1.414l2.156 5.88 2.198-5.88h1.344l-2.912 7.238h-1.302l-2.898-7.238Zm8.028 0h1.218v7.238h-1.218v-7.238Zm-.042-2.758h1.302v1.414h-1.302v-1.414Zm9.277 7.966c-.121.7-.434 1.251-.938 1.652-.495.401-1.209.602-2.142.602-1.101 0-1.946-.331-2.534-.994-.588-.672-.882-1.605-.882-2.8 0-.625.084-1.181.252-1.666.168-.485.401-.891.7-1.218a3.024 3.024 0 0 1 1.092-.742c.42-.177.877-.266 1.372-.266.56 0 1.041.089 1.442.266.401.177.728.425.98.742.261.308.453.677.574 1.106.131.429.196.901.196 1.414v.616h-5.376c0 .364.047.705.14 1.022.103.308.243.579.42.812.187.224.415.401.686.532.271.131.583.196.938.196.607 0 1.05-.112 1.33-.336.28-.233.471-.546.574-.938h1.176Zm-1.106-2.198c0-.345-.037-.658-.112-.938a1.894 1.894 0 0 0-.35-.714 1.573 1.573 0 0 0-.616-.476 2.23 2.23 0 0 0-.91-.168c-.644 0-1.148.196-1.512.588-.355.392-.565.961-.63 1.708h4.13Zm1.866-3.01h1.33l1.456 5.768 1.666-5.726h1.232l1.624 5.726 1.442-5.768h1.288l-2.114 7.238h-1.288l-1.624-5.768-1.638 5.768h-1.274l-2.1-7.238Z" fill="#fff"/><path d="m342.608 298.64 6 6-6 6" stroke="#fff" stroke-width="2"/><g filter="url(#d)"><path d="M778.205 42.85h-296.41c-14.522 0-26.295 11.772-26.295 26.294v263.501c0 14.523 11.773 26.295 26.295 26.295h296.41c14.522 0 26.295-11.772 26.295-26.295V69.144c0-14.522-11.773-26.295-26.295-26.295Z" fill="#F6F9FC"/></g><path d="M491.419 88.618h-3.164v-1.47h8.008v1.47h-3.15v8.526h-1.694v-8.526Zm7.631 5.125a6.53 6.53 0 0 0-1.162.154c-.289.074-.513.172-.672.293a.836.836 0 0 0-.322.407c-.047.149-.07.312-.07.49 0 .317.098.564.294.742.205.177.504.266.896.266.7 0 1.218-.178 1.554-.532.336-.355.504-.836.504-1.442v-.42l-1.022.042Zm1.05 2.45a3.391 3.391 0 0 1-.994.811c-.392.215-.868.322-1.428.322-.345 0-.667-.046-.966-.14a2.208 2.208 0 0 1-.784-.392 1.965 1.965 0 0 1-.518-.671 2.454 2.454 0 0 1-.182-.98c0-.505.112-.91.336-1.219.224-.317.513-.564.868-.742.364-.177.77-.298 1.218-.364.448-.074.896-.12 1.344-.14l1.078-.055v-.309c0-.55-.135-.928-.406-1.133-.261-.215-.607-.322-1.036-.322-.495 0-.863.084-1.106.252-.233.167-.387.41-.462.727l-1.456-.153c.131-.71.453-1.228.966-1.555.513-.326 1.218-.49 2.114-.49.579 0 1.055.075 1.428.225.383.149.686.354.91.616.224.26.378.574.462.938.093.354.14.746.14 1.175v4.55H500.1v-.952Zm4.674-6.328v1.078c.252-.383.555-.677.91-.882a2.224 2.224 0 0 1 1.134-.309c.158 0 .289.005.392.014.112.01.219.024.322.042l-.182 1.456a1.817 1.817 0 0 0-.336-.055 4.974 4.974 0 0 0-.378-.014c-.299 0-.56.05-.784.154-.224.093-.416.219-.574.377-.15.16-.266.341-.35.546a1.67 1.67 0 0 0-.112.602v4.27h-1.582v-7.28h1.54Zm8.571 3.374c0-.449-.056-.822-.168-1.12-.103-.3-.243-.532-.42-.7a1.3 1.3 0 0 0-.602-.364 2.16 2.16 0 0 0-.686-.113c-.588 0-1.045.201-1.372.603-.317.4-.476.989-.476 1.763 0 .44.047.813.14 1.12.103.3.233.542.392.728.159.187.345.322.56.406.215.085.443.127.686.127.681 0 1.176-.206 1.484-.616.308-.411.462-.994.462-1.75v-.084Zm-3.5 4.465c.112.7.607 1.05 1.484 1.05h.364c.355-.009.639-.084.854-.224a1.28 1.28 0 0 0 .49-.531 2.19 2.19 0 0 0 .238-.77 7.29 7.29 0 0 0 .056-.924v-.49c-.541.765-1.311 1.148-2.31 1.148-.523 0-.98-.09-1.372-.266a2.713 2.713 0 0 1-.952-.757 3.278 3.278 0 0 1-.56-1.162 5.568 5.568 0 0 1-.182-1.456c0-.504.065-.975.196-1.413.14-.449.341-.836.602-1.163.261-.335.583-.597.966-.783a2.974 2.974 0 0 1 1.316-.308c.149-.01.317 0 .504.028.336.046.658.149.966.307.308.15.597.402.868.757v-.882h1.554v6.272a6.74 6.74 0 0 1-.182 1.651c-.121.486-.317.892-.588 1.219a2.379 2.379 0 0 1-1.036.755c-.429.168-.952.253-1.568.253-1.092 0-1.895-.192-2.408-.575-.513-.382-.812-.96-.896-1.736h1.596Zm13.221-2.715c-.13.755-.452 1.343-.966 1.763-.513.411-1.25.617-2.212.617-1.157 0-2.039-.332-2.646-.995-.597-.671-.896-1.614-.896-2.828 0-.625.084-1.18.252-1.666a3.51 3.51 0 0 1 .728-1.218 3.06 3.06 0 0 1 1.12-.756c.439-.177.92-.266 1.442-.266.56 0 1.046.09 1.456.266.411.168.752.411 1.022.728.271.308.472.682.602 1.12.131.43.196.91.196 1.442v.7h-5.222c.019.663.187 1.2.504 1.61.318.411.798.617 1.442.617.504 0 .882-.099 1.134-.294.252-.197.42-.476.504-.84h1.54Zm-1.456-2.199c0-.597-.14-1.068-.42-1.414-.28-.345-.728-.517-1.344-.517-.588 0-1.036.177-1.344.532-.308.345-.485.811-.532 1.4h3.64Zm2.255-1.666v-1.26h1.148v-1.96h1.582v1.96h1.806v1.26h-1.806v3.809c0 .373.075.643.224.811.159.168.388.252.686.252.159 0 .308-.009.448-.027.15-.02.294-.052.434-.098l.238 1.19c-.448.149-.933.223-1.456.223-.802 0-1.362-.205-1.68-.616-.317-.42-.476-1.045-.476-1.876v-3.668h-1.148Zm11.998 2.619c-.476.028-.864.079-1.162.154-.29.074-.514.172-.672.293a.836.836 0 0 0-.322.407c-.047.149-.07.312-.07.49 0 .317.098.564.294.742.205.177.504.266.896.266.7 0 1.218-.178 1.554-.532.336-.355.504-.836.504-1.442v-.42l-1.022.042Zm1.05 2.45a3.391 3.391 0 0 1-.994.811c-.392.215-.868.322-1.428.322-.346 0-.668-.046-.966-.14a2.208 2.208 0 0 1-.784-.392 1.953 1.953 0 0 1-.518-.671 2.436 2.436 0 0 1-.182-.98c0-.505.112-.91.336-1.219.224-.317.513-.564.868-.742.364-.177.77-.298 1.218-.364.448-.074.896-.12 1.344-.14l1.078-.055v-.309c0-.55-.136-.928-.406-1.133-.262-.215-.607-.322-1.036-.322-.495 0-.864.084-1.106.252-.234.167-.388.41-.462.727l-1.456-.153c.13-.71.452-1.228.966-1.555.513-.326 1.218-.49 2.114-.49.578 0 1.054.075 1.428.225.382.149.686.354.91.616.224.26.378.574.462.938.093.354.14.746.14 1.175v4.55h-1.526v-.952Zm4.673-6.328v1.05c.504-.7 1.101-1.107 1.792-1.219.177-.028.364-.041.56-.041.495.018.896.144 1.204.377.308.225.532.532.672.925.644-.878 1.437-1.316 2.38-1.316.775 0 1.344.214 1.708.643.364.43.546 1.116.546 2.058v4.802h-1.596v-4.368c0-.354-.023-.648-.07-.882a1.43 1.43 0 0 0-.21-.546.613.613 0 0 0-.336-.28 1.274 1.274 0 0 0-.476-.084c-.28 0-.527.052-.742.154a1.698 1.698 0 0 0-.546.406c-.14.169-.247.36-.322.575-.075.205-.112.42-.112.644v4.381h-1.596v-4.522c0-.625-.098-1.054-.294-1.287-.187-.234-.448-.35-.784-.35-.14 0-.308.032-.504.097a1.77 1.77 0 0 0-.574.294c-.177.14-.331.327-.462.56-.131.234-.196.518-.196.854v4.354h-1.582v-7.28h1.54Zm13.82 6.216c.672 0 1.162-.23 1.47-.687.318-.466.476-1.1.476-1.904 0-.793-.158-1.418-.476-1.875-.308-.458-.798-.686-1.47-.686-.672 0-1.166.233-1.484.7-.308.457-.462 1.078-.462 1.861 0 .794.15 1.424.448 1.89.308.467.808.7 1.498.7Zm-.014 1.287c-1.138 0-2.02-.335-2.646-1.007-.625-.672-.938-1.624-.938-2.857a5 5 0 0 1 .238-1.582c.168-.475.406-.882.714-1.218a3.167 3.167 0 0 1 1.134-.783c.448-.187.957-.28 1.526-.28.579 0 1.092.097 1.54.293.448.187.822.448 1.12.785.308.336.537.742.686 1.218.159.466.238.98.238 1.54 0 .634-.088 1.194-.266 1.68a3.44 3.44 0 0 1-.756 1.218 3.104 3.104 0 0 1-1.134.742 4.038 4.038 0 0 1-1.456.251Zm6.586-7.503v4.578c0 .606.098 1.022.294 1.246.205.224.513.336.924.336.224 0 .448-.043.672-.127a1.866 1.866 0 0 0 1.05-.938c.112-.223.168-.475.168-.755v-4.34h1.596v7.28h-1.554V96.08c-.336.447-.7.774-1.092.98a2.675 2.675 0 0 1-1.26.307c-.85 0-1.461-.219-1.834-.657-.364-.44-.546-1.111-.546-2.016v-4.83h1.582Zm7.913 0v1.064c.326-.448.69-.775 1.092-.98a2.9 2.9 0 0 1 1.316-.308c1.624 0 2.436.895 2.436 2.688v4.816h-1.596V92.58c0-.588-.108-1-.322-1.233-.215-.242-.532-.364-.952-.364-.28 0-.542.052-.784.154a1.764 1.764 0 0 0-.602.392 1.992 1.992 0 0 0-.406.588c-.094.215-.14.444-.14.687v4.34h-1.582v-7.28h1.54Zm5.74 1.26v-1.26h1.148v-1.96h1.582v1.96h1.806v1.26h-1.806v3.808c0 .373.075.643.224.811.159.168.388.252.686.252.159 0 .308-.009.448-.027.15-.02.294-.052.434-.098l.238 1.19c-.448.149-.933.223-1.456.223-.802 0-1.362-.205-1.68-.616-.317-.42-.476-1.045-.476-1.876v-3.668h-1.148ZM496.672 189.931h6.65v1.456h-4.956v2.66h4.676v1.47h-4.676v2.954h5.222l-.196 1.456h-6.72v-9.996Zm9.627 2.716v1.064c.326-.448.69-.775 1.092-.98.41-.206.849-.308 1.316-.308 1.624 0 2.436.896 2.436 2.688v4.816h-1.596v-4.564c0-.588-.108-.999-.322-1.232-.215-.243-.532-.364-.952-.364-.28 0-.542.051-.784.154a1.758 1.758 0 0 0-.602.392 1.992 1.992 0 0 0-.406.588c-.094.214-.14.443-.14.686v4.34h-1.582v-7.28h1.54Zm5.74 1.26v-1.26h1.148v-1.96h1.582v1.96h1.806v1.26h-1.806v3.808c0 .373.075.644.224.812.159.168.388.252.686.252.159 0 .308-.01.448-.028.15-.019.294-.052.434-.098l.238 1.19a4.586 4.586 0 0 1-1.456.224c-.802 0-1.362-.206-1.68-.616-.317-.42-.476-1.046-.476-1.876v-3.668h-1.148Zm11.978 3.864c-.131.756-.453 1.344-.966 1.764-.513.41-1.251.616-2.212.616-1.157 0-2.039-.332-2.646-.994-.597-.672-.896-1.615-.896-2.828 0-.626.084-1.181.252-1.666.177-.486.42-.892.728-1.218a3.052 3.052 0 0 1 1.12-.756 3.8 3.8 0 0 1 1.442-.266c.56 0 1.045.088 1.456.266.411.168.751.41 1.022.728.271.308.471.681.602 1.12.131.429.196.91.196 1.442v.7h-5.222c.019.662.187 1.199.504 1.61.317.41.798.616 1.442.616.504 0 .882-.098 1.134-.294.252-.196.42-.476.504-.84h1.54Zm-1.456-2.198c0-.598-.14-1.069-.42-1.414-.28-.346-.728-.518-1.344-.518-.588 0-1.036.177-1.344.532-.308.345-.485.812-.532 1.4h3.64Zm4.509-2.926v1.078c.252-.383.555-.677.91-.882a2.222 2.222 0 0 1 1.134-.308c.159 0 .289.004.392.014.112.009.219.023.322.042l-.182 1.456a1.785 1.785 0 0 0-.336-.056 4.602 4.602 0 0 0-.378-.014c-.299 0-.56.051-.784.154a1.75 1.75 0 0 0-.574.378c-.149.158-.266.34-.35.546a1.668 1.668 0 0 0-.112.602v4.27h-1.582v-7.28h1.54Zm8.333 0v1.064c.327-.448.691-.775 1.092-.98.411-.206.85-.308 1.316-.308 1.624 0 2.436.896 2.436 2.688v4.816h-1.596v-4.564c0-.588-.107-.999-.322-1.232-.214-.243-.532-.364-.952-.364-.28 0-.541.051-.784.154a1.768 1.768 0 0 0-.602.392 2.01 2.01 0 0 0-.406.588c-.093.214-.14.443-.14.686v4.34h-1.582v-7.28h1.54Zm7.981 0v4.578c0 .606.098 1.022.294 1.246.205.224.513.336.924.336.224 0 .448-.042.672-.126.233-.084.439-.206.616-.364.177-.159.322-.35.434-.574.112-.224.168-.476.168-.756v-4.34h1.596v7.28h-1.554v-1.064c-.336.448-.7.774-1.092.98a2.68 2.68 0 0 1-1.26.308c-.849 0-1.461-.22-1.834-.658-.364-.439-.546-1.111-.546-2.016v-4.83h1.582Zm7.913 0v1.05c.504-.7 1.101-1.106 1.792-1.218.177-.028.364-.042.56-.042.495.018.896.144 1.204.378.308.224.532.532.672.924.644-.878 1.437-1.316 2.38-1.316.775 0 1.344.214 1.708.644.364.429.546 1.115.546 2.058v4.802h-1.596v-4.368c0-.355-.023-.649-.07-.882a1.421 1.421 0 0 0-.21-.546.61.61 0 0 0-.336-.28 1.274 1.274 0 0 0-.476-.084c-.28 0-.527.051-.742.154a1.688 1.688 0 0 0-.546.406c-.14.168-.247.359-.322.574a1.86 1.86 0 0 0-.112.644v4.382h-1.596v-4.522c0-.626-.098-1.055-.294-1.288-.187-.234-.448-.35-.784-.35-.14 0-.308.032-.504.098a1.77 1.77 0 0 0-.574.294c-.177.14-.331.326-.462.56-.131.233-.196.518-.196.854v4.354h-1.582v-7.28h1.54Zm12.042 3.878c.01.466.066.849.168 1.148.112.298.252.536.42.714.178.177.378.298.602.364.224.065.458.098.7.098.262 0 .504-.047.728-.14.224-.094.42-.238.588-.434.168-.206.299-.472.392-.798.094-.327.14-.728.14-1.204 0-.458-.051-.845-.154-1.162-.093-.327-.219-.588-.378-.784a1.387 1.387 0 0 0-.574-.448 1.652 1.652 0 0 0-.672-.14c-.345 0-.644.056-.896.168-.242.112-.443.27-.602.476a2.033 2.033 0 0 0-.35.742c-.074.28-.112.592-.112.938V196.525Zm.014-6.594v3.668c.29-.383.621-.672.994-.868.383-.206.826-.308 1.33-.308.523 0 .976.093 1.358.28.383.186.7.448.952.784s.439.742.56 1.218c.131.466.196.984.196 1.554 0 .597-.074 1.138-.224 1.624a3.521 3.521 0 0 1-.644 1.218c-.28.336-.616.597-1.008.784a3.16 3.16 0 0 1-1.316.266c-.438 0-.844-.084-1.218-.252-.373-.168-.714-.448-1.022-.84v.868h-1.54v-9.996h1.582Zm13.291 7.84c-.13.756-.452 1.344-.966 1.764-.513.41-1.25.616-2.212.616-1.157 0-2.039-.332-2.646-.994-.597-.672-.896-1.615-.896-2.828 0-.626.084-1.181.252-1.666.178-.486.42-.892.728-1.218a3.06 3.06 0 0 1 1.12-.756c.439-.178.92-.266 1.442-.266.56 0 1.046.088 1.456.266.411.168.752.41 1.022.728.271.308.472.681.602 1.12.131.429.196.91.196 1.442v.7h-5.222c.019.662.187 1.199.504 1.61.318.41.798.616 1.442.616.504 0 .882-.098 1.134-.294.252-.196.42-.476.504-.84h1.54Zm-1.456-2.198c0-.598-.14-1.069-.42-1.414-.28-.346-.728-.518-1.344-.518-.588 0-1.036.177-1.344.532-.308.345-.485.812-.532 1.4h3.64Zm4.509-2.926v1.078c.252-.383.556-.677.91-.882a2.222 2.222 0 0 1 1.134-.308c.159 0 .29.004.392.014.112.009.22.023.322.042l-.182 1.456a1.758 1.758 0 0 0-.336-.056 4.602 4.602 0 0 0-.378-.014c-.298 0-.56.051-.784.154a1.75 1.75 0 0 0-.574.378c-.149.158-.266.34-.35.546a1.69 1.69 0 0 0-.112.602v4.27h-1.582v-7.28h1.54Zm10.14 6.216c.672 0 1.162-.229 1.47-.686.317-.467.476-1.102.476-1.904 0-.794-.159-1.419-.476-1.876-.308-.458-.798-.686-1.47-.686-.672 0-1.167.233-1.484.7-.308.457-.462 1.078-.462 1.862 0 .793.149 1.423.448 1.89.308.466.807.7 1.498.7Zm-.014 1.288c-1.139 0-2.021-.336-2.646-1.008-.626-.672-.938-1.624-.938-2.856 0-.579.079-1.106.238-1.582.168-.476.406-.882.714-1.218a3.158 3.158 0 0 1 1.134-.784c.448-.187.956-.28 1.526-.28.578 0 1.092.098 1.54.294.448.186.821.448 1.12.784.308.336.536.742.686 1.218.158.466.238.98.238 1.54 0 .634-.089 1.194-.266 1.68-.178.476-.43.882-.756 1.218a3.13 3.13 0 0 1-1.134.742 4.042 4.042 0 0 1-1.456.252Zm4.373-6.244v-1.26h1.134v-.42c0-.392.056-.733.168-1.022.112-.299.266-.546.462-.742a1.98 1.98 0 0 1 .714-.462c.28-.103.583-.159.91-.168a.474.474 0 0 1 .168 0h.196c.196.018.383.037.56.056.177.018.369.06.574.126l-.238 1.19a3.114 3.114 0 0 0-.84-.126c-.299 0-.555.084-.77.252-.205.168-.308.452-.308.854v.462h1.764v1.26h-1.764v6.02h-1.596v-6.02h-1.134Zm9.605 3.794c.028.242.094.443.196.602.103.149.229.27.378.364.159.093.341.158.546.196.206.028.425.042.658.042.532 0 .915-.08 1.148-.238.234-.159.35-.392.35-.7a.89.89 0 0 0-.224-.616c-.14-.168-.434-.29-.882-.364a48.644 48.644 0 0 1-1.526-.294 4.314 4.314 0 0 1-1.106-.378 1.768 1.768 0 0 1-.672-.63c-.149-.262-.224-.612-.224-1.05 0-.336.075-.64.224-.91.15-.28.355-.514.616-.7a2.98 2.98 0 0 1 .952-.448c.374-.103.78-.154 1.218-.154.56 0 1.027.056 1.4.168.374.112.677.266.91.462.234.196.411.42.532.672.122.252.215.518.28.798l-1.428.196c-.112-.364-.284-.635-.518-.812-.224-.178-.602-.266-1.134-.266-.308 0-.56.028-.756.084a1.626 1.626 0 0 0-.476.21.737.737 0 0 0-.238.28.9.9 0 0 0-.056.308c0 .158.019.289.056.392a.53.53 0 0 0 .196.252c.103.065.238.121.406.168.168.046.378.093.63.14l.91.154c.486.084.887.191 1.204.322.327.13.584.294.77.49.196.186.332.406.406.658.075.252.112.532.112.84 0 .662-.252 1.199-.756 1.61-.504.401-1.269.602-2.296.602-.42 0-.826-.042-1.218-.126a3.169 3.169 0 0 1-1.036-.392 2.3 2.3 0 0 1-.756-.742c-.186-.318-.294-.714-.322-1.19h1.526Zm7.774-7.77v3.724c.308-.42.663-.728 1.064-.924a2.867 2.867 0 0 1 1.302-.308c1.624 0 2.436.896 2.436 2.688v4.816h-1.596v-4.564c0-.588-.107-.999-.322-1.232-.215-.243-.532-.364-.952-.364-.289 0-.555.051-.798.154a1.946 1.946 0 0 0-.602.406 1.799 1.799 0 0 0-.392.588c-.093.214-.14.438-.14.672v4.34h-1.582v-9.996h1.582Zm9.773 6.594a6.493 6.493 0 0 0-1.162.154c-.289.074-.513.172-.672.294a.834.834 0 0 0-.322.406 1.62 1.62 0 0 0-.07.49c0 .317.098.564.294.742.205.177.504.266.896.266.7 0 1.218-.178 1.554-.532.336-.355.504-.836.504-1.442v-.42l-1.022.042Zm1.05 2.45a3.409 3.409 0 0 1-.994.812c-.392.214-.868.322-1.428.322-.345 0-.667-.047-.966-.14a2.215 2.215 0 0 1-.784-.392 1.978 1.978 0 0 1-.518-.672 2.455 2.455 0 0 1-.182-.98c0-.504.112-.91.336-1.218.224-.318.513-.565.868-.742.364-.178.77-.299 1.218-.364.448-.075.896-.122 1.344-.14l1.078-.056v-.308c0-.551-.135-.929-.406-1.134-.261-.215-.607-.322-1.036-.322-.495 0-.863.084-1.106.252-.233.168-.387.41-.462.728l-1.456-.154c.131-.71.453-1.228.966-1.554.513-.327 1.218-.49 2.114-.49.579 0 1.055.074 1.428.224.383.149.686.354.91.616.224.261.378.574.462.938.093.354.14.746.14 1.176v4.55h-1.526v-.952Zm4.673-6.328v1.078c.252-.383.556-.677.91-.882a2.222 2.222 0 0 1 1.134-.308c.159 0 .29.004.392.014.112.009.22.023.322.042l-.182 1.456a1.758 1.758 0 0 0-.336-.056 4.602 4.602 0 0 0-.378-.014c-.298 0-.56.051-.784.154a1.75 1.75 0 0 0-.574.378c-.149.158-.266.34-.35.546a1.69 1.69 0 0 0-.112.602v4.27h-1.582v-7.28h1.54Zm9.902 5.124c-.131.756-.453 1.344-.966 1.764-.514.41-1.251.616-2.212.616-1.158 0-2.04-.332-2.646-.994-.598-.672-.896-1.615-.896-2.828 0-.626.084-1.181.252-1.666.177-.486.42-.892.728-1.218.317-.336.69-.588 1.12-.756a3.796 3.796 0 0 1 1.442-.266c.56 0 1.045.088 1.456.266.41.168.751.41 1.022.728.27.308.471.681.602 1.12.13.429.196.91.196 1.442v.7h-5.222c.018.662.186 1.199.504 1.61.317.41.798.616 1.442.616.504 0 .882-.098 1.134-.294.252-.196.42-.476.504-.84h1.54Zm-1.456-2.198c0-.598-.14-1.069-.42-1.414-.28-.346-.728-.518-1.344-.518-.588 0-1.036.177-1.344.532-.308.345-.486.812-.532 1.4h3.64Zm4.061 2.128c.028.242.093.443.196.602.103.149.229.27.378.364.159.093.341.158.546.196.205.028.425.042.658.042.532 0 .915-.08 1.148-.238.233-.159.35-.392.35-.7a.895.895 0 0 0-.224-.616c-.14-.168-.434-.29-.882-.364a48.089 48.089 0 0 1-1.526-.294 4.3 4.3 0 0 1-1.106-.378 1.754 1.754 0 0 1-.672-.63c-.149-.262-.224-.612-.224-1.05 0-.336.075-.64.224-.91a2.01 2.01 0 0 1 .616-.7 2.98 2.98 0 0 1 .952-.448 4.564 4.564 0 0 1 1.218-.154c.56 0 1.027.056 1.4.168.373.112.677.266.91.462.233.196.411.42.532.672.121.252.215.518.28.798l-1.428.196c-.112-.364-.285-.635-.518-.812-.224-.178-.602-.266-1.134-.266-.308 0-.56.028-.756.084a1.614 1.614 0 0 0-.476.21.737.737 0 0 0-.238.28.9.9 0 0 0-.056.308c0 .158.019.289.056.392a.525.525 0 0 0 .196.252c.103.065.238.121.406.168.168.046.378.093.63.14l.91.154a5.8 5.8 0 0 1 1.204.322c.327.13.583.294.77.49.196.186.331.406.406.658.075.252.112.532.112.84 0 .662-.252 1.199-.756 1.61-.504.401-1.269.602-2.296.602-.42 0-.826-.042-1.218-.126a3.16 3.16 0 0 1-1.036-.392 2.3 2.3 0 0 1-.756-.742c-.187-.318-.294-.714-.322-1.19h1.526Z" fill="#222"/><path stroke="#E2E2E2" d="M487.989 173.867h283"/><g clip-path="url(#e)"><rect x="495.608" y="220.645" width="267" height="53" rx="4" fill="#F6F9FC"/><path d="M495.608 220.645h88v56h-88v-56Z" fill="#F5F5F5"/><path d="M512.518 241.637c.354-.318.737-.654 1.148-1.008.41-.355.826-.719 1.246-1.092.448-.392.84-.747 1.176-1.064.336-.327.616-.64.84-.938a3.54 3.54 0 0 0 .504-.91 2.89 2.89 0 0 0 .168-.994c0-.588-.159-1.036-.476-1.344-.318-.318-.761-.476-1.33-.476-.346 0-.64.037-.882.112a1.617 1.617 0 0 0-.616.336 1.71 1.71 0 0 0-.42.532 4.89 4.89 0 0 0-.28.756l-1.162-.182c.084-.336.2-.663.35-.98.149-.318.354-.598.616-.84.261-.252.588-.453.98-.602.392-.159.872-.238 1.442-.238.494 0 .933.07 1.316.21.382.14.7.336.952.588.261.242.457.536.588.882.14.345.21.728.21 1.148 0 .42-.061.812-.182 1.176-.112.364-.29.723-.532 1.078a7.897 7.897 0 0 1-.924 1.092c-.374.373-.817.779-1.33 1.218-.271.233-.551.471-.84.714-.28.233-.556.471-.826.714h4.732l-.182 1.12h-6.286v-1.008Z" fill="#000"/><path d="M513.311 258.006c.104.65.359 1.122.767 1.417.416.286 1.031.429 1.846.429.407 0 .745-.044 1.014-.13.277-.096.498-.217.663-.364.164-.156.281-.334.351-.533.069-.208.104-.425.104-.65 0-.182-.022-.356-.065-.52a1.048 1.048 0 0 0-.26-.468 1.538 1.538 0 0 0-.52-.364 3.28 3.28 0 0 0-.845-.247l-1.17-.208a6.939 6.939 0 0 1-1.222-.312 3.242 3.242 0 0 1-.91-.494 2.066 2.066 0 0 1-.559-.767c-.122-.304-.182-.672-.182-1.105 0-.425.086-.798.26-1.118.182-.321.424-.59.728-.806a3.142 3.142 0 0 1 1.079-.481 5.56 5.56 0 0 1 1.352-.156c.615 0 1.126.069 1.534.208.416.13.754.307 1.014.533.26.225.455.485.585.78.138.286.242.58.312.884l-1.118.221c-.07-.26-.161-.49-.273-.689a1.358 1.358 0 0 0-.429-.507 1.742 1.742 0 0 0-.65-.312 3.706 3.706 0 0 0-.949-.104c-.425 0-.78.039-1.066.117a1.88 1.88 0 0 0-.689.325 1.12 1.12 0 0 0-.377.481c-.07.182-.104.377-.104.585 0 .225.026.424.078.598.06.164.156.312.286.442.138.121.316.225.533.312.216.078.485.147.806.208l1.3.234c.962.182 1.668.485 2.119.91.45.416.676 1.031.676 1.846 0 .372-.074.723-.221 1.053a2.31 2.31 0 0 1-.637.845 3.01 3.01 0 0 1-1.053.572c-.425.138-.923.208-1.495.208a6.193 6.193 0 0 1-1.495-.169 3.263 3.263 0 0 1-1.157-.507 2.628 2.628 0 0 1-.793-.897c-.2-.364-.321-.798-.364-1.3h1.196Zm7.456-6.643h1.131v3.562c.33-.425.689-.733 1.079-.923a2.883 2.883 0 0 1 1.261-.286c.763 0 1.326.208 1.69.624.373.416.559 1.027.559 1.833v4.472h-1.144v-4.251c0-.624-.112-1.062-.338-1.313-.216-.26-.559-.39-1.027-.39-.251 0-.502.043-.754.13a1.856 1.856 0 0 0-.663.416c-.216.19-.381.394-.494.611-.112.208-.169.481-.169.819v3.978h-1.131v-9.282Zm11.535 8.359c-.242.294-.55.55-.923.767-.372.208-.836.312-1.391.312-.338 0-.65-.044-.936-.13-.277-.078-.52-.2-.728-.364a1.834 1.834 0 0 1-.468-.637 2.158 2.158 0 0 1-.169-.884c0-.46.096-.832.286-1.118.2-.286.46-.512.78-.676.33-.165.698-.282 1.105-.351.408-.07.828-.113 1.261-.13l1.157-.039v-.26c0-.572-.121-.984-.364-1.235-.242-.252-.637-.377-1.183-.377-.537 0-.931.091-1.183.273a1.208 1.208 0 0 0-.494.728l-1.027-.117c.122-.616.412-1.062.871-1.339.46-.286 1.084-.429 1.872-.429.486 0 .893.06 1.222.182.338.112.611.277.819.494.208.216.356.485.442.806.096.32.143.68.143 1.079v4.368h-1.092v-.923Zm-.026-2.444-1.079.039c-.459.017-.84.06-1.144.13-.303.069-.546.164-.728.286a.989.989 0 0 0-.377.429 1.604 1.604 0 0 0-.104.598c0 .338.1.611.299.819.208.199.546.299 1.014.299.668 0 1.188-.165 1.56-.494.373-.33.559-.78.559-1.352v-.754Zm2.77-3.354h1.118v1.04a2.77 2.77 0 0 1 .884-.858c.338-.2.698-.299 1.079-.299.234 0 .434.017.598.052l-.143 1.053a2.297 2.297 0 0 0-.26-.039 1.407 1.407 0 0 0-.286-.026c-.208 0-.42.039-.637.117-.216.069-.42.19-.611.364-.19.164-.342.355-.455.572a1.721 1.721 0 0 0-.156.754v3.991h-1.131v-6.721Zm10.139 4.836c-.113.65-.403 1.161-.871 1.534-.459.372-1.122.559-1.989.559-1.023 0-1.807-.308-2.353-.923-.546-.624-.819-1.491-.819-2.6 0-.581.078-1.097.234-1.547.156-.451.373-.828.65-1.131a2.804 2.804 0 0 1 1.014-.689c.39-.165.815-.247 1.274-.247.52 0 .966.082 1.339.247.373.164.676.394.91.689.243.286.42.628.533 1.027a4.5 4.5 0 0 1 .182 1.313v.572h-4.992c0 .338.043.654.13.949.095.286.225.537.39.754.173.208.386.372.637.494.251.121.542.182.871.182.563 0 .975-.104 1.235-.312.26-.217.438-.507.533-.871h1.092Zm-1.027-2.041c0-.321-.035-.611-.104-.871a1.759 1.759 0 0 0-.325-.663 1.45 1.45 0 0 0-.572-.442 2.073 2.073 0 0 0-.845-.156c-.598 0-1.066.182-1.404.546-.329.364-.524.892-.585 1.586h3.835Zm3.293 1.963c.078.468.273.797.585.988.321.182.754.273 1.3.273.572 0 .975-.096 1.209-.286.243-.2.364-.46.364-.78 0-.13-.017-.252-.052-.364a.606.606 0 0 0-.169-.312 1.062 1.062 0 0 0-.364-.247 2.593 2.593 0 0 0-.611-.169l-.858-.13a6.422 6.422 0 0 1-1.001-.234 2.622 2.622 0 0 1-.728-.364 1.573 1.573 0 0 1-.455-.559 2.07 2.07 0 0 1-.143-.806c0-.312.065-.59.195-.832.139-.243.325-.447.559-.611.243-.174.524-.304.845-.39a3.795 3.795 0 0 1 1.066-.143c.485 0 .888.047 1.209.143.329.095.598.225.806.39.208.164.368.359.481.585.113.225.199.463.26.715l-1.027.169a2.768 2.768 0 0 0-.208-.481.965.965 0 0 0-.312-.338 1.267 1.267 0 0 0-.481-.208 2.559 2.559 0 0 0-.689-.078c-.312 0-.572.03-.78.091a1.432 1.432 0 0 0-.507.221.856.856 0 0 0-.338.689c0 .138.017.264.052.377.035.104.1.199.195.286.095.078.225.147.39.208.165.06.377.112.637.156l.975.156c.789.13 1.352.355 1.69.676.347.32.52.788.52 1.404 0 .286-.056.55-.169.793a1.82 1.82 0 0 1-.507.624 2.488 2.488 0 0 1-.845.403 4.033 4.033 0 0 1-1.183.156 5.33 5.33 0 0 1-1.144-.117 3.039 3.039 0 0 1-.923-.364 2.03 2.03 0 0 1-.65-.676c-.165-.278-.26-.616-.286-1.014h1.092Z" fill="#747474"/></g><rect x="496.108" y="221.145" width="266" height="52" rx="3.5" stroke="#E2E2E2"/><rect x="495.608" y="286.64" width="267" height="36" rx="18" fill="#222"/></g><defs><clipPath id="a"><rect width="581" height="482" rx="15" fill="#fff"/></clipPath><clipPath id="c"><rect x="106.608" y="220.645" width="267" height="53" rx="4" fill="#fff"/></clipPath><clipPath id="e"><rect x="495.608" y="220.645" width="267" height="53" rx="4" fill="#fff"/></clipPath><filter id="b" x="-15.671" y="1.764" width="513.342" height="480.433" filterUnits="userSpaceOnUse" color-interpolation-filters="sRGB"><feFlood flood-opacity="0" result="BackgroundImageFix"/><feColorMatrix in="SourceAlpha" values="0 0 0 0 0 0 0 0 0 0 0 0 0 0 0 0 0 0 127 0" result="hardAlpha"/><feOffset dy="24.651"/><feGaussianBlur stdDeviation="24.651"/><feColorMatrix values="0 0 0 0 0.196078 0 0 0 0 0.196078 0 0 0 0 0.364706 0 0 0 0.25 0"/><feBlend in2="BackgroundImageFix" result="effect1_dropShadow_456_505"/><feColorMatrix in="SourceAlpha" values="0 0 0 0 0 0 0 0 0 0 0 0 0 0 0 0 0 0 127 0" result="hardAlpha"/><feOffset dy="41.086"/><feGaussianBlur stdDeviation="41.086"/><feColorMatrix values="0 0 0 0 0.196078 0 0 0 0 0.196078 0 0 0 0 0.364706 0 0 0 0.25 0"/><feBlend in2="effect1_dropShadow_456_505" result="effect2_dropShadow_456_505"/><feBlend in="SourceGraphic" in2="effect2_dropShadow_456_505" result="shape"/><feColorMatrix in="SourceAlpha" values="0 0 0 0 0 0 0 0 0 0 0 0 0 0 0 0 0 0 127 0" result="hardAlpha"/><feOffset dy="-1.643"/><feGaussianBlur stdDeviation="2.465"/><feComposite in2="hardAlpha" operator="arithmetic" k2="-1" k3="1"/><feColorMatrix values="0 0 0 0 0.0392157 0 0 0 0 0.145098 0 0 0 0 0.25098 0 0 0 0.35 0"/><feBlend in2="shape" result="effect3_innerShadow_456_505"/></filter><filter id="d" x="373.329" y="1.764" width="513.342" height="480.433" filterUnits="userSpaceOnUse" color-interpolation-filters="sRGB"><feFlood flood-opacity="0" result="BackgroundImageFix"/><feColorMatrix in="SourceAlpha" values="0 0 0 0 0 0 0 0 0 0 0 0 0 0 0 0 0 0 127 0" result="hardAlpha"/><feOffset dy="24.651"/><feGaussianBlur stdDeviation="24.651"/><feColorMatrix values="0 0 0 0 0.196078 0 0 0 0 0.196078 0 0 0 0 0.364706 0 0 0 0.25 0"/><feBlend in2="BackgroundImageFix" result="effect1_dropShadow_456_505"/><feColorMatrix in="SourceAlpha" values="0 0 0 0 0 0 0 0 0 0 0 0 0 0 0 0 0 0 127 0" result="hardAlpha"/><feOffset dy="41.086"/><feGaussianBlur stdDeviation="41.086"/><feColorMatrix values="0 0 0 0 0.196078 0 0 0 0 0.196078 0 0 0 0 0.364706 0 0 0 0.25 0"/><feBlend in2="effect1_dropShadow_456_505" result="effect2_dropShadow_456_505"/><feBlend in="SourceGraphic" in2="effect2_dropShadow_456_505" result="shape"/><feColorMatrix in="SourceAlpha" values="0 0 0 0 0 0 0 0 0 0 0 0 0 0 0 0 0 0 127 0" result="hardAlpha"/><feOffset dy="-1.643"/><feGaussianBlur stdDeviation="2.465"/><feComposite in2="hardAlpha" operator="arithmetic" k2="-1" k3="1"/><feColorMatrix values="0 0 0 0 0.0392157 0 0 0 0 0.145098 0 0 0 0 0.25098 0 0 0 0.35 0"/><feBlend in2="shape" result="effect3_innerShadow_456_505"/></filter></defs></svg>